<svg width="400" height="400" data-name="detail-zuckerbanket-schildkröte Bild" xmlns="http://www.w3.org/2000/svg" viewBox="0 0 493.21 252.07"><path d="M202.12 86.11a157.08 157.08 0 0 0-44.52-11.57c-2.18-.24-6.2 1.35-6.56 2.79-.7 2.77.62 6 1.1 9.1l2.58-.16c2.32-8.61 3.37-8.86 12.11-6.27 11.06 3.28 22.28 6.05 33.49 8.76a3.4 3.4 0 0 0 .46.07c-1 2.6-2.87 4.79-4.41 7.1a25.64 25.64 0 0 0-2.61 5.11c-.63 1.68-1.07 3.45-1.82 5.09-2.6 5.72-7.29 10.1-12 14.19a143.71 143.71 0 0 0-17.47-9c-.43-1.06-.74-2.55-1.39-2.71-11.71-2.94-20-10-28.58-18.47-5-4.93-4.7-4.93-.49-8.65 6.05-5.36 11.58-11.32 17.34-17l-2.72-2.74c-7.87 7.19-15.93 14.2-23.43 21.75-1.22 1.22-1 5.83.3 7.23 5.62 6 11.36 12.24 18.16 16.72a14.35 14.35 0 0 0 4.77 1.89 2.69 2.69 0 0 0 1.93 2.61 139.32 139.32 0 0 1 30.46 14.31 2.87 2.87 0 0 0 3.4-.43c5.56-4.83 11.39-10 14.53-16.8.86-1.86 1.46-3.79 2.13-5.72a20.67 20.67 0 0 1 2.43-4.66c2-3.05 4.33-5.91 5.27-9.54.79-2.92-2.67-4.44-4.46-3ZM288.6 107.04a13.71 13.71 0 0 1 .62-2.65 12.09 12.09 0 0 0 1.14-4.45 6.06 6.06 0 0 0-1.95-4.18 15 15 0 0 0-7.58-3.29 22.93 22.93 0 0 0-9 .19 2.6 2.6 0 0 0-1.63 1.24c-10.24-.26-21.56-3-30.09.68-3.32 1.42-5.11 6.38-6.68 11.84-.41.55-.83 1.08-1.14 1.58a42.09 42.09 0 0 0-3.1 6.28 97.54 97.54 0 0 0-3.92 13.09c-.22.91-1 2.55 1 3.15 3.55 1.06 11.12.74 12.34.79a181.58 181.58 0 0 0 19.24 0c4.35-.31 18.15.49 18.19.48H278.23c1 .06 1.95.17 2.92.19a9.6 9.6 0 0 0 6.45-2.04c3.46-2.81 3.75-7.53 3.56-11.66 1.24-3.32-.91-7.31-2.56-11.24Zm-5.3-2.24c-.56 2.75 2.37 18.62.28 20.94s-31.87.26-35.94 0c-6.19-.42-14.7-.59-15.18-2.49s.57-3.33 1.17-5a7.56 7.56 0 0 0 1.27-1.66c1-2.36 2.07-4.71 3.08-7.08 1.31-1.91 2.71-3.89 2.53-6.31 3.45-8.39 7.3-9.39 17-5.89 4.06 1.47 8.78 1.09 13.2 1.55 0 0 6.21-3.9 9.44-1.11a10 10 0 0 1 3.19 7.09ZM337.54 94.12a85.3 85.3 0 0 1 27.95-9c.5-.07 1-.09 1.52-.16.88-.13.3 0 .28 0a15.6 15.6 0 0 1 2.09 3.06l4.54 6.67 4.55 6.66a24.23 24.23 0 0 1 2.52 4c-9.82-.81-18.49 5.23-26.45 10.21-3.11 1.94-7.58 4.46-10.31.72-1.19-1.64-2-3.54-3.19-5.17-1.37-1.84-3.46-3.3-4.44-5.4s-1-4.34-1.3-6.46a14.72 14.72 0 0 0-2.47-7 2.91 2.91 0 0 0-3.84-1c-1.19.7-1.93 2.63-1 3.84 2.64 3.46 1.67 8.35 3.24 12.26 1 2.56 2.9 4.29 4.7 6.31 1.35 1.52 2.14 3.47 3.25 5.15a11 11 0 0 0 5.62 4.65 11.34 11.34 0 0 0 7.55-.48c4.91-1.89 9.11-5.33 13.69-7.88 4.95-2.75 10.25-4.79 16-4a2.37 2.37 0 0 0 2.09-1 2.69 2.69 0 0 0 2.94-2.7c0-4.59-3.5-8.46-5.94-12q-4.08-6-8.15-11.95c-1.24-1.8-2.4-3.52-4.73-3.88-2.14-.33-4.52.29-6.64.64a88.86 88.86 0 0 0-12.86 3.2 94.18 94.18 0 0 0-14 6c-3.23 1.55-.4 6.39 2.79 4.71ZM263.86 65.55c8.91 1.29 17.81 2.67 26.74 3.8 4.38.56 8.76 1 13.16 1.33q3 .21 6 .29a36.4 36.4 0 0 0 7.08-.17c4.09-.7 6.42-4.73 8.82-7.7 2.51-3.13 5.76-6.31 6.95-10.24 2.32-7.67-4.55-14.24-11.3-16.22-4.35-1.28-8.94-1.25-13.4-1.85a55.8 55.8 0 0 1-12.31-3.26 2.56 2.56 0 0 0-.76-1.56c-1-1-3-1.19-4 0-4.53 5.69-9 11.44-13.61 17-4.12 5-8.56 9.88-14.06 13.4-1.79 1.21-1.87 4.81.69 5.18Zm17.05-14.2c4.05-4.89 8-9.9 11.91-14.89a57.73 57.73 0 0 0 10.78 3.25c3.71.73 7.47 1 11.23 1.37 3.15.35 6.56 1 9.15 3 1.89 1.43 3.65 3.74 3.46 6.24-.23 3-3.27 5.79-5.06 8-1.23 1.53-2.45 3.06-3.69 4.59-.84 1-1.65 2.23-3.05 2.46a32.77 32.77 0 0 1-5.86 0q-3-.07-6-.29c-4-.27-8.05-.69-12.06-1.19-6.73-.85-13.42-1.85-20.12-2.85a79.85 79.85 0 0 0 9.31-9.69ZM451.42 208.8l-4.24-2.4c-1.94 3.43-4.76 6.71-5.42 10.38-.28 1.53 5 6 6 5.48a19.55 19.55 0 0 0 7.81-7.43c.55-.79-2.65-3.96-4.15-6.03Z"/><path d="M491.52 220.36c-2.39-6.41-9.11-4.8-13.76-8.71-4.47-3.76-3.78-23.76-11.51-31.73-5.88-6.06-20.71-1.06-22.58-.62-4.32 1-7.27-1.67-11.63-4.46s-10.37-2.73-10.37-2.73a2.85 2.85 0 0 1-1-3.84 2.42 2.42 0 0 1 .72-.83l-.12-.21 2.09-1.21.6 1a2.34 2.34 0 0 1 .55.22c.22.11.45.23.68.33l.22.09c.47.18.94.35 1.42.5a33.69 33.69 0 0 0 3.29.83c.58.12 1.16.23 1.75.32l.67.1.47.05c.5.06 1 .1 1.52.14a15.22 15.22 0 0 1 4.92-.39c2.55.09 5.13.11 7.69 0a44 44 0 0 0 7-1s11.36-3.94 14.23-10.82-1-13.55-1-13.55c-.32-1.4-1.24-8.84-6.29-14.37-4.56-5-13.09-8.15-16.66-8.86-16.06-3.23-15.8-3.13-19.65-18.84-1.9-7.79-4-15.91-8-22.73-4.87-8.34-9.38-17.45-17.93-23.22s-18.61-14.52-26.81-18.59c-18.05-9-37.18-15.81-55.94-23.34-1-.41-18.54-5.51-20.91-5.83-11.4-1.5-22.75-3.33-34.15-4.8-9.4-1.22-46.93-5.58-77-1.79-31.12 3.93-54.69 16.09-57.61 18.21-10.66 7.77-22 15.09-25.7 29.06-2.65 10-5.08 11.11-14.45 6-15-8.14-29.82-12.63-46.35-3.35-11.11 6.24-22.77 6.17-33.77-1.58-1.1-.78-3.7 0-5.31.75-.67.3-1.06 2.43-.76 3.49 2.52 8.8 19.3 19.92 28.52 18.99 1.16-.11 2.21-1.22 3.32-1.86-.92-.9-1.69-2.1-2.78-2.63-3.56-1.72-7.24-3.19-10.87-4.76l.72-2.24c4.55-.59 9.21-.78 13.64-1.9a74.76 74.76 0 0 0 14-5.06c9.57-4.58 18.62-3.51 27.74 1.21 4.1 2.13 8.54 3.59 12.75 5.49a58.81 58.81 0 0 1 5.27 3c-1.81.75-3.63 1.5-5.43 2.27a29.72 29.72 0 0 1-4.79 2c-7 1.62-13.39 3.63-19.86-3.32-8.42-9-18.74-6.48-25.92 5.07.89.19 2.08.81 2.47.49 9.92-8.31 17.41-3.35 25.16 3.83 3.32 3.07 8.19 4.44 12.17 6.88 1.44.89 3.53 2.92 3.29 4-2.86 12.57 2.87 22.37 9.45 32.17 2.85 4.25 4.53 9.28 7.58 15.73-16-6.93-27.34-2.49-34.34 10.37-3.41 6.29-5.67 11.49.15 17.52 3.33 3.45 5.82 7.71 8.86 11.47a8 8 0 0 0 3.42 2.27c4 1.45 8 3.5 12.18 3.89 8.87.82 17.68 6.69 26.81.69a1.17 1.17 0 0 1 .83-.07c2.93-1.16 6.17-1.4 9.2-2.66a1.73 1.73 0 0 1 .32-.11 11.59 11.59 0 0 1 1.51-.94 11.94 11.94 0 0 0 2.64-1.28c.56-.47 1-1.24 1.5-1.75a6.58 6.58 0 0 1 1-.78c.3-.66.56-1.33.8-2a34.64 34.64 0 0 0 1.5-6.52c2.48-4.09 4.47-6.06 7.56-9.75a3.34 3.34 0 0 1 5.29.69s15.81 12.73 47.18 20.2a431.38 431.38 0 0 0 59.46 9.63c.64.76 1.24 1.55 1.81 2.37.85 2 1.74 4.06 2.67 6.06a1.7 1.7 0 0 1 0 .22c-.05.47-.08.95-.09 1.42a8.75 8.75 0 0 0 1.44 5.34c.66 1 8.12 6.68 7.59 12.75-.49 5.68-8.91 11.78-10.24 13-2 1.75-5.69 1.34-5.85 1.35-.38-.08-.76-.14-1.15-.19-.69-.26-1.39-.5-2.1-.71s-3.28 1.73-3.17 2c2.16 5.77 3.13 13.19 7.33 16.68 5.25 4.36 13.12 7.13 20 7.51s15.63-1.07 21-5.1c2.14-1.61 9.35-3.55 14.08-7.39s11-12.86 12.59-14.21c.9-.77 2.2-5.29 5.67-7.79 4.53-3.27 11.48-4.6 13.06-4.94 2.8-.6 10.25-4.57 14-5.83s9 1.53 16.35 3c3 .61 9.3 13.58 16.73 18.58 10.78 7.25 23.22 7 25.42 5.39 6.1-4.55 9.14-.71 13.83 1.64a141.62 141.62 0 0 0 23.66 9.22c8.12 2.37 16.57-5.93 25.08-1.9 7.12-3.88 14.56-6.9 18-8.74 4.78-2.69 3.09-9.19 1.43-13.65Zm-66.36-88.69c8-8.44 18.45-3.38 24.48.46s8 21.45 3.58 27.32-15.75 1.29-25.77-1-9.88-7.73-12.6-13.29 2.29-5.04 10.31-13.49Zm-2.71-15.51c-1.43.93-5.58 1.18-6.56 1-2.65-.61-11.75-.49-11.35-4.6s-1-7.84 0-10.78c.45-1.31 6.53-1.35 7.94-1.13 2.34.36 5.54-2.93 6.61-1.35s4.79 15.94 3.36 16.86ZM365.71 46.3c3.85 2.27 13.12 6.17 15.46 7.23 12.16 8.18 22 21.53 24.07 23.68 3.91 4 11.79 9.22 11.68 14.94-.05 2.19-7 2.94-8.73 2.92a3.51 3.51 0 0 1-3.79.11c-2-1.18-2.62-3.86-3.57-5.79a242.58 242.58 0 0 0-18.37-18.35c-9.08-7.9-20.86-13.6-20.86-13.6s.27-13.4 4.11-11.14ZM355.1 64.13c6.14-2.83 31.55 14.18 41.53 31.27 3.52 6 .94 12.29.72 17.37a8.16 8.16 0 0 1-6.53 7.85 6.92 6.92 0 0 1-2.14 1.36c-11.35 4.43-22.89 8.38-34.36 12.51-6.77 2.43-13.46 5.25-20.42 7-2.22.54-6.76-1.26-7.56-3.13-6.3-14.64-12.31-29.43-17.43-44.51a4.36 4.36 0 0 1 1.48-5.45c5-3.7 16.52-7.58 25.4-12.22 9.34-4.92 15.98-10.52 19.31-12.05Zm-36.81 78.31c-10 1.23-73.19-.65-73.19-.65a2.89 2.89 0 0 0-.9-.1l-15 .86c-3.09.18-7.16.72-9.46-1.8a2.44 2.44 0 0 0-2.3-.85 18.36 18.36 0 0 0-3.47-.89c-1.78-.3-4.62-.43-4.89-2.7-.3-2.48 1.46-5.41 2.41-7.61q1.83-4.26 3.86-8.42c.34-.72 8.94-23.31 13.78-33.7 1-2.15 4.39-4 6.95-4.43 6.21-1.08 12.63-2 18.89-1.63 8.92.5 17.79 2.17 26.67 3.36 2.9.39 5.78.8 8.67 1.26 7 1.11 11.9 3.5 14.2 11.72 3.6 12.82 9.23 25.1 14.3 37.47 1.38 3.45 2.79 6.5-.52 8.11ZM95.6 119.04a26.42 26.42 0 0 1-5.68-9.32c-1.36-3.56-2.27-7.28-3.71-10.81l-1.61-3.28c-1.82-3.64 3.22-6.87 5.44-4a3.53 3.53 0 0 1 .65.88c.44.82.83 1.64 1.2 2.48a1.3 1.3 0 0 1 .52.38c2 2.76 3.94 5.56 5.92 8.44 2.63 2.6 5.52 5 7.86 7.85 1.07 1.31 1.5 3.52 0 4.77-1.7 1.42-1.82 3.38-2 5.49-.21 2.56-3.76 4.92-5.75 2.38a18.85 18.85 0 0 1-2.84-5.26Zm36.42 32.6s-6.58 7.22-5.73 10.84-3.58 7.43-3.46 8.27c-2.74-.18-7.08.64-7.94-.72-3.73-5.92-6.06-3-9.27.25-1.44 1.45-4.21 2.85-5.88 2.41-1.3-.35-1.91-3.55-2.66-5.55a10.73 10.73 0 0 1-.56-2.54c-5.49 1-11.29 3.92-14.67 2.18-8.39-4.33 5.06-7.27 1.74-12.69-2.4.89-4.88 2.6-7.17 2.38-1.71-.18-4.69-4-4.53-4.24 7.31-9.36-4.47-2.39-4.49-5.2 4.14-11.09 10.12-13.55 21-9.28 5.24 2.07 11.3 6.53 15-2.58a17.55 17.55 0 0 0 1.81 2.36c1.56 1.44 3.22 2.79 4.83 4.17 0-2.07.08-4.16-.14-6.21-.42-3.74-1.43-7.46-1.35-11.18 0-1.2 3.36-3.66 4-3.32 2.64 1.34 3.69 7.24 8.87 12.64 5.32 5.56 14.76 10.62 16.32 11.95-2.14 2.39-5.69 6.02-5.69 6.02Zm173.55 65c-2.75 7.28-6.63 14.69-11.9 20.25-3.11 3.27-14.94 6.77-20.15 7.1-3.46.22-20.66-6.76-20-8.6 0 0 15.15-7.16 16.72-13.5s3.7-8.7 5.16-11.43a16.27 16.27 0 0 0 .9-1.87c.16-.43.29-.87.42-1.31 0-.17.07-.34.11-.51a.86.86 0 0 1 0-.15v-.24a38.45 38.45 0 0 1-6.44-5c-1.73-1.74-2.46-4.66-3-7.4-.48-.76-.93-1.54-1.39-2.31a16.72 16.72 0 0 0-2-2.67c-1.52-.88-4.37-7.05-6.17-8.25a3.74 3.74 0 0 1 1-.91c4.19-2.61 10-3.6 15.08-3.58 6.85 0 13.68 2.35 20.54 2.48 8.16.15 4.1 7.48 7 10.49h-9.21c-.31.6-.61 1.2-.92 1.79a50.44 50.44 0 0 0 5.4 4c8.63 4.7 12.43 12.17 8.88 21.54Zm49.39-35.36c-.57 1.3-1.68 2.16-2.54 3.25a6.46 6.46 0 0 0-1.19 3.2c-.08.52-.13 1-.17 1.55a16 16 0 0 1 0 3.24c-.06.45-.15.88-.25 1.32 0 .25 0 .5-.05.75s.08.3.11.45a3.29 3.29 0 0 1-.43 2.1 1.13 1.13 0 0 1 0 .18 2.7 2.7 0 0 1-.75 1.4c-.11.24-.22.47-.3.7l-.17-.09a3 3 0 0 1-2.57 1.14 13.38 13.38 0 0 0-5.57 1.27 11 11 0 0 0-2.36 1.83 11.13 11.13 0 0 1-3.48 2 25.17 25.17 0 0 1-10.22 1c-3.23 1-6.49 1.31-8.25-3.75-1.82-5.22-3.09-10.62-5-17.43a4.77 4.77 0 0 1-.85-2.8c0-1.89 1.26-3.16 2.68-4.21a2.79 2.79 0 0 1 2.4-.38 3 3 0 0 1 .71-.23c5.77-1.31 11.7-1.13 17.58-1.28 6.32-.15 12.38-1.24 18.71-.22 2.35.37 2.77 3.17 1.99 4.93ZM331.35 70.04c-2.05.83-4 2-6.16 2.24-9.65 1.22-15.2 13.68-27.9 8.23-9-3.86-19.73-4.34-29.78-5-7.74-.54-15.62 1.07-23.45 1.42a9.75 9.75 0 0 1-6.14-1.63c-.68-.55.24-3.72 1.06-5.39 2.59-5.19 5.48-10.23 8.71-16.16-7.47 1-10.65 6.55-12.23 11.91-2.31 7.86-6 8.26-12.82 5.71-8.45-3.13-17.46-4.73-26-7.55-6.59-2.17-12.81-5.44-19.36-7.77-3.53-1.26-10.91-2.25-16.49-3.49 2.82-2.34 10.77-10.71 17.62-16.93 7.78-7.06 18.07-11.77 19.73-15.78.58-1.4-.63-3.09-2-3.45a2.88 2.88 0 0 0-3.45 2c-1.44 3.48-10.84 7.19-17.88 13.43-3.85 3.41-13.73 13.62-16.06 14.94-4.52 2.56-8.31 3.67-12-1.38-3.2-4.37-5.88-8.3-.42-12.86.6-.5.38-2 .54-3-1.61-.12-4-1-4.71-.21-1.85 1.88-4.66 5.11-4.08 6.68 1.91 5.11 4.95 9.86 8 14.48 1.69 2.57 4.21 4.6 6.1 6.62 7.49 1.77 15.73 3.32 23.72 5.69 13 3.86 25.86 8.55 38.93 12.32 9.61 2.77 12.12 8.44 7.36 17.92-3.82 7.58-11.76 23.69-12.06 24.31-1.59 3.3-3.11 6.63-4.53 10-1.33 3.14-2.92 6.37-2.48 9.88a8.32 8.32 0 0 0 5.66 6.86c2.25.86 5.62.45 7.54 2a3.7 3.7 0 0 0 2.26.84c2.78 1.4 6.13 1.57 9.24 1.42 5.47-.27 59.78 1.94 78.28.88q8.32-.48 16.58-1.64a2.14 2.14 0 0 0 1.31-.77 34.42 34.42 0 0 0 11.16-.68c18-5 35.69-10.86 53.24-17.14 6.16-2.21 9.67-10.57 18.06-8.36 3 .79 6.25 1.35 8.9 2.86 1.14.64 2 4.46 1.37 5.09-8.19 7.71-13.29 18.5-25.38 22.45-8.09 2.65-15.22 8.23-22.78 12.51l1.63 3.19a65 65 0 0 0 7.62-2.58c7.8-3.69 15.36-7.9 23.33-11.16 1.94-.79 5.08 1.33 7.67 2.11-1 1.77-1.73 3.94-3.2 5.21-3.05 2.64-6.77 4.52-9.73 7.23s-5.46 6.14-8.16 9.26l2.15 1.88c3.14-2.36 6-6 9.48-6.8 5.12-1.16 10.71-.32 16.08 0 .18 0 .77 4.4.22 4.65-15.16 6.82-20.59 19.23-18.49 34.59.64 4.75 6.14 8.85 9.45 13.29-4.23 3.62-7.7 3.5-10.37.11-3.45-3.07-7.33-5.79-9.37-10.07-.32-.68-.59-1.36-.84-2.06-1.68-3.64-3.37-7.44-4-11.41l-.31-.5c-.1-.14-.26-.57-.35-.75a11.43 11.43 0 0 1 .09-2.64 29.1 29.1 0 0 0 .86-3.88c.25-2.3.17-4.88-1.11-6.89a7.2 7.2 0 0 0-4.06-3.1 5 5 0 0 0-1.24-.24 7.87 7.87 0 0 0-2.59.16 4.45 4.45 0 0 0-1.73.85c0-.12 0-.25-.07-.37-.22.37-.45.73-.68 1.09a5.6 5.6 0 0 0-.69 1.05 25.66 25.66 0 0 0-2.66 4.72c-.91 2.34-1 5-1.53 7.51-2.38-2.28-6.66-4.48-6.75-6.85-.2-4.8 1.8-9.71 3-14.55.74-2.92 1.72-5.78 2.6-8.66-2.68-.08-5.51-.77-8-.14-11.22 2.86-22.46 3.05-34 2.59-9.08-.37-18.26 2.48-27.38 2.36-7-.09-13.93-2.6-20.9-4-4-.79-8.5-3.07-11.86-2a41.1 41.1 0 0 1-10.56 2.07 3.08 3.08 0 0 1-2.49 1.13c-4.65 0-9.29.25-13.89-.65-2-.39-3.88-1.13-5.84-1.65a39.14 39.14 0 0 0-6-.83c-7.91-.84-16-1.81-23.64-4.05-3.61-1.06-7.12-2.44-10.73-3.53-4-1.22-8.11-2.08-12.06-3.45-7-2.46-14.87-4.18-21-8.55-1.41-1-2.77-2.12-4.12-3.26a86.23 86.23 0 0 1-8.84-6.73 22.29 22.29 0 0 0-2.87-1.38 3.55 3.55 0 0 1-2.47-3.3c-4.94-4.39-9.9-8.77-15.51-12.09-3.48-2.06-5.36-6.84-7.94-10.39s-5-7.62-8-10.95c-3.65-4-8.43-7.07-11.74-11.3-7.22-9.24-6.47-13.84 2.81-20.28 1-.7 4.61.51 5.6 1.86 3.06 4.22 5.18 9.12 8.24 13.33 1.1 1.52 3.85 1.83 5.84 2.69-.3-2 0-4.3-1-5.87-3.82-6.21-8.39-12-11.89-18.35a11.2 11.2 0 0 1-.39-8.91c3.34-7 14.32-19.94 26.18-28 10.91-7.37 22.75-10.07 26.07-11q0 .14.12.48a11.1 11.1 0 0 1 1.56-.38c1.86-.29 3.75-.22 5.59-.55 3.77-.68 7.27-2.54 11-3.4 7.3-1.68 14.86-2.07 22.32-2.46 7.77-.41 15.55-.78 23.33-.57 4 .1 8 .35 11.92.83 3.74.44 7.42 1.14 11.19 1.35 3.61.2 7.36.08 10.79 1.37 2 .75 3.83 1.76 5.77 2.55h.15c3 .1 18.31.74 18.37 4.52.11 6.3-16.67 17.07-16.84 17.42-1.72 3.64-15.65 16-11.31 15.71 1.42-.12 23.47-18 25.06-17.88 8.59-8.39 21.14-12.95 33-11.54 9.14 1.08 16.16 6.1 24.17 10.08 7.53 3.75 14.16 6.72 20.17 12.91 3.47 3.58 2.84 8.28 0 11.9-.72.86-21.44 14.4-21.44 14.4ZM480.6 229.68c-4 2.42-8.13 4.64-12.2 6.95-.29-.6-.59-1.2-.88-1.81-1.74 0-3.59-.39-5.2.06-18.62 5.24-24.75 2.48-37.85-13.53-2.24-2.74-6.2-8.74-13.74-6.11-5.69 2-11.59-13-7.24-19.85s9.07-13.71 18.15-15c1.54-.21 4.2 4.09 3.16 5.35-1.63 2-4.83 3-5.72 5.19-1 2.4-.21 5.57-.19 8.4 1.79-1 14.49-12 18-13.34 1.69-.64 19.51-1.87 20.88-1.89a4.33 4.33 0 0 1 3 .58 7.52 7.52 0 0 1 4 4.38c.68 1.9 2.1 18.34 3.53 23.77.82 3.12 7.26 5.17 11.47 6.92 7.41 3.05 7.06 6.2.83 9.93Z"/><path d="M248.08 24.23c-7.8 6.61-15.16 13.65-22.38 20.9-1.78 1.8-3.59 3.57-5.49 5.25a23.81 23.81 0 0 1-2.57 2.13 1.9 1.9 0 0 1-2.32.15 80.25 80.25 0 0 0-13.35-5.45 61.69 61.69 0 0 0-10.72-2 82.56 82.56 0 0 1 14.18-12.41 84.88 84.88 0 0 1 10.91-6.37c3.62-1.76 7.81-4 11.94-3.88a26.09 26.09 0 0 1 6.79 1.47 33.25 33.25 0 0 0 7.84 1.57c3.61.18 3.6-5.43 0-5.61-4.6-.23-8.85-2.49-13.44-3-4.88-.49-9.55 1.62-13.89 3.59a88 88 0 0 0-21.87 14.3 85.44 85.44 0 0 0-10.25 10.84c-1.45 1.81-.65 4.78 2 4.78a56.89 56.89 0 0 1 21.65 4.32c2.3 1 4.43 2.31 6.74 3.22 5.37 2.13 9.94-3.24 13.42-6.61 3.8-3.68 7.45-7.51 11.29-11.16q6.57-6.27 13.51-12.14a2.82 2.82 0 0 0 0-4 2.86 2.86 0 0 0-3.99.11Z"/></svg>
