<svg width="400" height="400" data-name="detail-zuckerbanket-hund-1 Bild" xmlns="http://www.w3.org/2000/svg" viewBox="0 0 474.13 446.29"><path d="M380.23 185.98h.22v-.1ZM223.7 203.71l.09.13a.78.78 0 0 1-.05-.14s-.04.01-.04.01ZM238.76 210.18l.19.14v-.28ZM116.63 407.04v.34l.12-.22ZM88 273.25l.24-.13h-.37ZM455.7 203.83l7 5.4c-6.53 4.47-14.44 2.35-17.76-3.63-1.62-2.93-3.48-5.72-5.77-9.45v-4.94c-9.45-2-18.64-3.21-27.35-5.95-10.65-3.34-20.81-2.34-31.12.6 17.81 0 35.19 2.5 49.92 8.21 6.45 6.81 11.56 12.57 17.07 17.92s13.52 4.7 19.47-1.78c-2.72-2.89-5.46-5.82-8.45-9Z"/><path d="m380.45 185.94.28-.08h-.31l.03.08ZM145.82 269.4l19.93 34.13c-3.18-13.42-10.11-24.63-19.93-34.13ZM145.82 269.4l-.33-.58-.14.11ZM317.26 5.6c1.54-.66 3.78.64 5.85-.55s1.44-3.49-3.19-4.73-2.14 1.5-5.25 3.62c-4.73 3.23-11.71 7.88-16.89 10.9a168.17 168.17 0 0 1-15.64 8.07 34.46 34.46 0 0 1-6.89 1.44 17.15 17.15 0 0 0-6.46 1.59c-3.69 2-5.68 6-9.69 7.53-2.06.81-4.29 1-6.35 1.78s-2.81 3.29-3.51 5.26a101.35 101.35 0 0 0-13.06-6.53 56.57 56.57 0 0 0-14.68-3.4 1.5 1.5 0 0 0-1.45 1.9 171 171 0 0 0 11.31 22.43 53.54 53.54 0 0 0-9.16 3.84 23.46 23.46 0 0 0-7.67 7.29 1.52 1.52 0 0 0 .54 2.06c2.87 1.6 5.72 3.27 8.64 4.79s6.3 1.71 9.49 2.26a49.42 49.42 0 0 0 7.4.81c1.12 5.65 2.15 10.88 3.18 16.09l1.57-.37q-.75-7.94-1.49-15.86a17.93 17.93 0 0 0 3.15-.63 8.77 8.77 0 0 1 .62 2.07c.21 1.38-.29 2.85-.31 4.27s.19 2.6.3 3.9l.88-.05c.5-4.31 1-8.62 1.31-11.31.37-.19.73-.4 1.09-.62a1.83 1.83 0 0 0 .35-.32l7.91-5c-.35-.72-.7-1.44-1-2.16-5.25 3.67-10.51 6.73-17.23.36l8.34-1.66c-6.29-7.3-17.19-.4-18.35 1.85l8.9 5.32.23 1.16a52.92 52.92 0 0 1-6.93-.88c-2.88-.5-5.82-.66-8.42-2.09-2.22-1.22-4.42-2.46-6.63-3.69a20.15 20.15 0 0 1 6-5.15 46.07 46.07 0 0 1 7.27-3h.15v-.15c.5-.18 5.83-2.79 11-2.74 4.1 0 7.92 2.43 10.27 4.27l-.07-.1c-.68-1.41-1.39-2.81-2-4.24-.92-2-1.78-4.13-2.67-6.2 0 0-2.12 1.14-2.91 1.53l-9.2-6.94c1 4 1.67 6.59 2.36 9.31-1.79.28-3.12.48-4.12.7A166.61 166.61 0 0 1 224 33.87q1.83.27 3.63.66l19.67 8.26 1.51.85a1.47 1.47 0 0 0 .93.18c.18.08 2-3.75 3.33-4.85a11 11 0 0 1 3.76-1.65 21.5 21.5 0 0 0 5.75-2.17c2.42-1.44 4.14-4 6.36-5.67l6.23-2.14c.91-.1 1.83-.18 2.72-.31a34.41 34.41 0 0 0 6.4-1.66 57 57 0 0 0 6.77-3l.62-.19-.05-.12c1.67-.88 3.31-1.83 4.93-2.79ZM320.97 158.58c-1.79-4.2-4.67-6.8-9.67-6.28l8.17 8.06ZM150.13 265.46h-.05ZM150.13 265.46c2.53 3.23 5.07 6.47 8.57 10.91-1.13-6.33-3.06-10.03-8.57-10.91ZM293.23 64.95l2.09-.73-2.44-6.78-1.84.65ZM115.65 397.1l1.05 9.3q.51-4.67 1-9.32ZM116.63 407.04l.15.13-.08-.74c-.03.18-.05.38-.07.61ZM212.66 203.85l2.79 6.07c-.18-2.24-.36-4.46-.55-6.68ZM215.45 209.92v.54l.34.39-.2-.58ZM235.65 203.86l3 5.57c-.32-2.08-.65-4.17-1-6.25ZM238.77 210.17l.18-.18-.3-.56ZM150.13 265.45ZM104.36 355.04l-2 2.6 1.17.91 2-2.63ZM208.94 213.18q-1-2.43-2-4.88l-1 .39 2 4.89Z"/><path d="m145.36 268.93.14-.11-.48-3.25v-.06l-.56-.17.57.23c.09 1.12.2 2.24.33 3.36ZM117.36 393.04l.17-1.45h-.54v1.45ZM11.67 215.25ZM11.67 215.25h-.41l.18.18.23-.21ZM306.66 150.75l.35-.14 4 1.72.12-.13-.12.12h.27l-.13-.13-4.05-1.6h-.21ZM142.08 264.57l-.09.05c.8.25 1.62.48 2.44.72l-2.21-.86-.22.13ZM275.95 85.75l.47-.24-.25-.09a3.15 3.15 0 0 1-.22.33ZM253.03 59.4l-.42.08a.71.71 0 0 0 .07.09ZM88 273.25l-.13-.15-.21.19ZM11.25 215.27c0 .22 0 .44-.07.66.09-.15.17-.31.26-.47ZM272.71 49.94c2 0 4.83.8 5.71-.18 1.68-1.87 2.24-4.76 3.27-7.23-.71-.45-1.41-.91-2.11-1.37l-7.56 6.21ZM284.01 127.62l-.28-1 4-1.22c.11.41.23.82.34 1.23Z"/><path d="m452.55 187.85-2.36-6.81-17.07-8.17c-3.67-11.7-18.54-11.18-23.17-16.9-11-4.35-18.25-7.74-25.83-10-5.43-1.63-11.45-3-16.95-2.3-8.69 1.06-17.15 3.93-25.48 6-14.14-12.14-27.69-24.63-34.85-42.35.84-2.09 1.64-4.05 2.37-5.85-.85-2.43-1.54-4.43-2.26-6.43l-1.2.65-6.21-11.31 3.28-.4c1.37-4.72 2.3-9.64 4.27-14.09 1.38-3.12 3.63-6.73 6.48-8.18 11.55-5.88 17.13-14.87 14.91-26.7l-13.84-1.4c2.64-8 5.15-15.63 7.89-23.92l-5.67.35c3.49 7.6.06 13.13-4.24 18.52-6.35 8-12.54 16-19.57 25.07l12-.54c-.15 2.68-.31 5.42-.58 10.16l-11.79 8.56-5.92-9-1.3.65 4.19 18.45-5.17 5.56 8.14-1.87c-.93 5-1.65 8.77-2.36 12.58l-1.56.15c-2.25-4.47-4.49-8.94-6-11.93l-6.51-1 .27.1 9.54 15.38-6.08 1.1c-1.7-3-3.18-5.56-4.67-8.16l-1.11.59c.94 2.65 1.88 5.3 3.16 8.88l-15.46-1.7c-1.12-2-2.21-4-3.56-6.41-.35 2.22-.6 3.78-1 6l-9.24-1.51c0 3.26.38 6.15-.12 8.88-.43 2.35-1.81 4.52-2.8 6.76-.46-1.65-.94-3.32-1.49-5.27-6.65-1.39-12.11-8.06-19.65-3.92-2.46 8.88 1.86 14.49 8.31 19.76l18.15 3.75c.46 3.7 1 7.7 1.55 12.49-1.22 0-16.88 2-34.34 9.7-22.22 9.83-47.17 25.95-47.17 25.95l-6.47 4.53a19.34 19.34 0 0 0-6.75 4.69 29.45 29.45 0 0 0-5.65 4.78c-2.55 2.94-4.7 6.27-7 9.43s-4.55 6.35-6.84 9.51l-8.57 9c-1 .75-2 1.49-3 2.32-1.41 1.27-2.62 2.74-4 4-2.92 2.55-6.31 4.64-9.42 7 0 0-30 26.22-32.39 27.22-14.31 6.15-29.03 8.79-44.67 2.47-16.1-6.52-28.47-16.71-25.58-37 .47-3.26.72-6.54 1-9.82-6.2 11-5 22.16.09 33.45 1.68 1.94 4 3.61 6 5.61 13.86 13.95 31.3 16.47 49.13 13.08 0 0 15.78-3.43 21.7-8.84 2.89-2.64 18.48-14.11 29.71-23.82 11.72-10.14 23.21-22.91 25.44-26 2.39-3.33 5.78-9.08 8.18-12.41a28.41 28.41 0 0 1 4-4.78 50.77 50.77 0 0 1 5.16-3.8l11-7.68 6.46-3.1 41.43-22.57c17.09-8 43.8-12.13 43.8-12.13-2.54-2.22-4.62-4-7.17-6.27.23-1.41.51-3.12.8-4.84 4.94 7.08 11.19 11.16 12.94 8.35l-3.88-6.9h29.56l5.38 10.7c-.71-5.25-1.15-8.52-1.79-13.31l31.1 31.67-1.23 1.51-4.44-1.2c.86 2.58 1.57 4.72 2.53 7.58l-8.18.68c-4.27-11.78-12.44-16.49-24.43-13.68 13.58 1.41 20.57 6.85 20 15l-8.89 5.94c1.76 1.19 2.76 1.09 3.48.59 6.88-4.65 14-6.1 22.32-3.78 4.56 1.26 10 .83 14.73-.29 10.25-2.44 20.28-5.83 30.42-8.76 2-.57 4.06-.79 6.1-1.17a14.4 14.4 0 0 0 7.36 5c6.87 1.83 13.83 3.35 20.77 4.93 5 1.15 10 2.84 15.12 3.18 10.63.71 21.55.24 24 14l14.45 2.4 7.69 8.25.49 8.85c5.17-12.37-1.78-19.89-19.92-23.49ZM324.6 44.24c-2.07 8.19-8.14 12.55-15.46 10.65Zm-83.87 78c-1.59.43-3.15.94-6.49 2l-10.61-11.47c4.42-6.53 13.68-4.65 21.43 2.9.28 1.53.55 3.08.95 5.32-1.82.36-3.56.75-5.28 1.21Zm15.3-1-4.84-13.71 52.17-4.49a32.52 32.52 0 0 0 .69 6.22c.55 2 1.88 3.77 3.56 6.95-17.71 4.31-34.53 8.46-51.58 4.97Z"/><path d="m308.11 130.18.38-1.14 2.1 1.44ZM313.89 134.86l-2.53-3.91 4.09 2ZM332.56 155.92l-5.2-3.42 1.11-1.72 5.26 3.36ZM316.99 146.2c.11-.88.22-1.76.34-2.63 4.68 3.32 11.37-4.19 16.5 4.12ZM347.74 154.04c-.08.79-.15 1.57-.23 2.35-.32-.69-.62-1.41-.91-2.12ZM339.69 169.89c.73-3.8 1.28-6.65 2.31-12l6.4 9.26ZM351.26 161.38c-.41-1-.83-1.93-1.24-2.9l2.55 2.14ZM358.13 160.32l-3.39-5.83 1.69-1.07 3.75 5.61ZM370.11 154.04l-1.5-2 1-.71 1.47 2ZM396.36 163.4q-1.27-2-2.53-4l1.49-.95 2.52 4ZM404.7 166.46l-2.86-6.93 1.72-.73 3.39 6.71ZM427.53 174.1l-13.12-3.06c.16-.51.31-1 .47-1.54l9.24-1.73 5 4ZM35.23 271.51c-9.87-4.57-20.87-9.76-27.22-17.91-7.25-9.32-3.38-34.5-3.33-34.56.32-.39 6.19-11 12.15-14.51 7.6-4.51 15.87-2.07 18.38-1.52.23.13.47.25.7.4a10.9 10.9 0 0 1 3.39 4.15c1.27 2.31 2.43 6.82 3 9.39-.78.14-5.63-7.41-8.87-8.44a12.63 12.63 0 0 0-3.77-.48 8.13 8.13 0 0 0-5.89-.28 25 25 0 0 0-6-.73c-1.92.13-1.93 3.13 0 3 2.31-.16 4.51.54 6.78.85 1.77.24 3.57 0 5.35.12l2.69.41a7.23 7.23 0 0 1 3.39 2.43l.06.19.42.48a10.94 10.94 0 0 1 1.34 2.85v3.6l-8.31 1.7-.13 1.74 8.75 3.25c1-.67 5.93-4.38 6.83-8.6 1.11-5.17-2-11.12-3.16-13.27a13.72 13.72 0 0 0-4.11-4.73 22.44 22.44 0 0 0-5.94-2.58c-.58-.18-12.81-1.44-18 2C5.59 206.04 1.36 218.14.47 223.9c-1.52 9.84 1 21.54 2.6 26.93s14.39 20.6 31.09 25.4c17.58 5.05 47.92 2.64 57.75-.56 2.48-.82-5.06-1.55-4.25-2.38-17.59 2.28-35.5 6.07-52.43-1.78ZM149 248.04l2.1.86.18-.2c-.7-.29-1.4-.58-2.13-.84ZM147.36 244.11l1.56 3.44c-.12-1.23-.24-2.45-.35-3.68ZM148.95 247.55v.51l.12-.15ZM165.53 231.59l.22.21v-.36ZM166.28 235.4l2.82-.3c-1.14-1.09-2.24-2.19-3.35-3.3.16 1.12.33 2.24.53 3.6ZM169.18 235.19l.18-.15h-.22ZM147.02 258.6l-3.59-5.56-1.34 1 4.71 4.8c1.1 2.19 2.19 4.38 3.31 6.57 2.35-3.79.52-5.7-3.09-6.81ZM161.04 222.44l3.56 5.13q-.62-3-1.26-5.92ZM164.74 227.76l-.14-.19c0 .1 0 .21.07.32.3 1.21.58 2.45.86 3.69l.17-.14c-.34-1.21-.67-2.41-1-3.65ZM172.93 216.92l-1.58.2.63 10.59 2.38-.09q-.7-5.35-1.43-10.7ZM169.21 235.17h.09v-.06ZM151.1 248.92l.75.72c-.19-.31-.39-.61-.57-.92Z"/><path d="m376.61 179.76-16 4.54c0 .5.09 1 .13 1.5l10.72 1.57c-11.43 2.91-21.74 5.69-32.14 8-1.49.34-3.46-1.45-4.65-2l-8.66 1.67-.4-1.57-4.18 3.57-8.54.49 6.57 5.51c-7.79 3.77-10.93-4-16.44-4.93-.61 2.25-1.15 4.27-1.69 6.28-1.92-2.18-3.49-4-6-6.86v10.64l9.49 11.15c-3.83 5.09-6.48 3.55-8.66.39-4.53-6.55-8.86-13.23-12.27-18.35-.44 2.14-1.25 6.1-2.45 11.93l-5.73-8-1.38.71c2.86 6.07 5.71 12.14 8.9 18.93-12.07-.84-9-9.8-10.75-15.63l-5.51 1-4.85-6.09 5 13.72 6.15 7.11-1.83 2.48-14.22-7.66v-9.05l-5.49-1.63c-1.3-3.27-2.3-5.77-3.3-8.27l-1.11.37 5.73 18.37c6.47 3.53 6.83 4.91.48 8.88-3.33-4.9-6.59-9.95-10.16-14.77-1.06-1.44-2.91-2.31-4.45-3.4v7.93c-4.81 1.77-7-.06-8.78-3.83s-4.22-7.07-6.38-10.58c1.48 5 6.84 10.19-.65 15.43l-7.32-8.4 5.22 15.13-1.25 1.05-5.17-3.25c.15-2.87.27-5.13.42-7.88l-4.49.37c1.34 4.19 3.12 8.22-4.4 7.77-1.8-3.68-3.69-7.54-5.74-11.71l-3.19 7.68c-4.26-11.48-11.47-3.56-18.43-7.16 2.6 6.32 4.43 10.76 7 16.93l-16.42 5.28c-.7 1.69-1.41 3.39-2.61 6.31l-8.67-14.22a11.37 11.37 0 0 0 .69 7.18c.72 1.86 1.76 3.59 2.66 5.38l-1.55.77q-3-3.81-6-7.64l-1.72 1.22c2.54 4.07 5.09 8.13 7.73 12.35v10.7l-7.94-7.55c3.14 5.09 6.87 9.95 9 15.43a190.57 190.57 0 0 1 9.33 30.47c1 4.93-1.43 10.55-2.51 17.12l-21.5-35.5-2.42 1.51c3.75 5.59 8 10.94 11.12 16.86 3 5.77 4.95 12.13 7.36 18.24l-1.34.49q-6-9.15-12-18.29l-.53.44 9.6 23.36-3.25 1.63-9.86-17.25-.8.51c.91 3.35 1.83 6.7 2.82 10.3l-4-.92c.43 9.53 8 19 .5 30.2l-4.31-8.9c-.43 2.87.38 5.28.91 7.76 1.55 7.22 3.11 14.62-1.85 21.15-12.69 16.67-10.35 35.28-8.44 53.82l12.56 9.16c.36 1.46.81 3.25 1.09 4.39l10.94 6-14.99 4.56v-8.95l-6.74 1.51-4.87-5.27h-6.23c-7.56-6.37-4.11-14.67-4.84-22.09-1.4 2.64-2.81 5.28-4.29 8.08-7.95-1-13.77-10.13-14.39-23.38-.54-11.54 9.16-27.79 19-29.9v20.08l2-.06v-21.43a21.13 21.13 0 0 1 3.86-9.53c7.46-10.57 7.12-26.9-.53-37.68-6.44-9.08-11.3-18.84-9.7-30.68l-5.08-2.92 2.09-16.54-3.3-1.47-6.08 6.66-.79-1.25-11.19 5.78 5.5.4c1.63 12.59 3.22 24.33 4.64 36.08.75 6.27 1.9 12.6 1.66 18.85-.41 10.83.41 22.37-10.25 29.46-.4 3.28-.76 6.19-1.11 9.11l2 .49c.72-2.56.69-5.84 2.3-7.57 10.77-11.61 9.34-25.9 9.42-39.9 0-3.24 1.1-6.46 1.7-9.69l3-.1q2.11 9.35 4.24 18.67l-1.27.24c1.7 2.85 3.41 5.7 5.1 8.54-2.41 4-4.66 7.74-7.3 12.11.73 2.84 1.7 6.66 2.67 10.48l-1.75-.68-16.18 31.3 2.11.49c.66 5.41 1.32 10.83 2 16.35l3.31 5.41.49-.15-.36.27-16.64-2.85c2.28-7.87 4.83-14 5.64-20.28s-.13-12.89-.3-19.34l-2.3.07v4.65c-.21 8.47 1.33 17-4.75 24.74-1.65 2.09-.11 7.29 1 10.75 1.31 4.3 3.66 8.27 5.56 12.38 6.42 12.7 16.68 11.9 28.23 6.1l22.71 16.07c18 1.79 19.95 1 22.76-11.21l-31-19.59c.75-11.6 1.35-23.41 2.4-35.17.27-2.95 1.24-6.44 3.15-8.53 6.64-7.3 10.22-15.43 8.62-25.44l11.39-8-1.39-1.05c3.21-4.92 7.17-9.52 9.44-14.84 3.42-8 11.38-14.5 8.45-24.7-2-6.85-4-13.7-5.51-20.66-5.31-25-2.54-41 25.51-44.79 14.09-1.89 28.54-1.28 42.82-1.66 5-.13 10.05.2 15.08.26 4.47.05 9 0 13.43 0 9.45-.35 18.79-.18 27.79-1.87 15.26-2.86 29.75-7.44 38.95-21.92a24 24 0 0 1 18.24-11.26 197 197 0 0 0 24.29-4.42c2.42-.58 4.37-3.08 6.52-4.78l-5.08.88c.65-3.41 1.15-5.78 1.4-7.06Z"/><path d="m121.52 319.04 2 2.25-1.91 1.95a97.08 97.08 0 0 1-1-3.18ZM120.04 349.78l-3.11.39c-.34-2.69-.69-5.37-1-8.05l1.88-.49q1.11 4.08 2.23 8.15ZM111.79 299.04l-2.35 1.11c-2.48-4.15-5-8.29-7.88-13.19l4.12-2.06q3.06 7.14 6.11 14.14ZM96.8 275.35l8.07-6.22v9.12ZM102.86 307.4c-1.37-4.18-2.79-8.5-4.21-12.81l2.25-1.07 6.17 10.26 6.73 1.7-.3 1.92ZM113.68 310.75l1.19-.85 2.9 3.54-1.69 1.31ZM115.15 353.76v1l-2 .38-.18-1.57ZM102.91 428.68l-6.61-1c.14-.78.27-1.57.41-2.35l6.57 1.37c-.12.67-.25 1.34-.37 1.98ZM108.06 428.81q-1.9-4.9-3.83-9.81l1.89-1.18 5.28 9.08ZM151 334.65l-3.57-14 1.69-.48 4.17 13.87ZM193.87 226.95c-2.9-2-6.19-3.78-4.28-7.33l2.81-1q1.69 3.76 3.38 7.54ZM201.05 226.87l-1.95-3.92 1.86-.93 2 3.91ZM233.58 225.97l-4.74-2.32 1.15-2.31 4.61 2ZM239.7 225.17l-1-2.66 5.26-1.45.7 2.35ZM283.58 218.78c.84-2.44 1.49-4.31 2.7-7.81l7.71 10.88c-5.56 5.19-6.96-.54-10.41-3.07ZM307.14 219.26l-.52-4.62 2.24-.33.69 4.59ZM312.55 217.83c-.31-8 2.24-8.4 7.64-5.48Z"/></svg>