<svg width="400" height="400" data-name="Ebene 1" xmlns="http://www.w3.org/2000/svg" viewBox="0 0 500 409.02"><path d="M165.54 344.91c.69 1.1.15 3.68 1.12 4.5a122.15 122.15 0 0 0 12.57 9.49 44.61 44.61 0 0 0 7.91 3.67c1.51 1.35.83 3.05 4.68 4.41a10.15 10.15 0 0 0 6 0 39.68 39.68 0 0 1-4.53-4.06 23.19 23.19 0 0 1-3.4-4.76.76.76 0 0 1 .63-.27 15.06 15.06 0 0 1 6.77 2.44c1.39.84 5.78.1 5.78.1s-2.39-3.81-4.46-4.82a12.51 12.51 0 0 1-3.68-2.37c-1-.84-.05-2.82 1-2 3.35 2.72 9.64 1.31 9.85.88s-2.2-4.82-5-7.08c-10.48-8.39-16-19.28-13.74-34.16 1-6.64 3.61-13.06 5.14-19.38 2.25-9.25 9.18-16 15.74-23.26 2.48-2.76 4.28-5.63 6.78-7.39-2 0-4 0-6 .15-1.19.3-8.78 8.52-18.65 23.91s-6.63 45.45-6.63 45.45c-.09.8 7.53 7.47 8.17 13.92a2.16 2.16 0 0 0-1.76 2.67c.49 2.27 1 5.11 1 5.11s-2.45-1.33-4.24.28-1.3 6.05-1.3 6.05ZM187.1 60.51c.3-3.31-1.71-9.45-2.65-9.1 0 0 .49 7.2-.26 8.52-2-.73-7.15-5-8.94-5.64-.62 9.68-3.6 6.88-9.17 4.1-.62 0-1.23-.06-1.81-.06a16.07 16.07 0 0 0-3.47.42l-1.7.81c1.17 0 2.34.07 3.5.07s1.29 2.33 0 2.32c-2.23 0-4.47-.1-6.72-.17a8.72 8.72 0 0 1 3.24 1.87c1.53 1.45 2 3.78 2.84 5.74a18.49 18.49 0 0 0 4.45 6.32 35.21 35.21 0 0 1 5.25 2.93c1 .7.34 2.44-.77 2.12a14.79 14.79 0 0 1-5.89-3.34c-3-1.54-6-3.1-8.4-6-1.54-1.9-3.12-4.49-5-6.41l-1.7-1.46a5.86 5.86 0 0 0-3.94-1.13.87.87 0 0 1-.4-.06c-.53.1-1.06.19-1.59.33-3 .75-5.68 2.46-8.64 3.2-1.39.35-2.81.54-4.19 1a5.15 5.15 0 0 0-.68.29 16 16 0 0 1 4.24 1.06c1.09.47 5.64 7.78 13.14 12.48 6 3.76 15 5 17.32 5.81a37.51 37.51 0 0 0 7.19 1.68c.72-.41 1.45-.8 2.2-1.15 2-1 4.27-1.23 6.4-1.85l-.05-.12 7.68-4.73c-1.27-2.14-2.92-5.36-4.94-8.23s-4.51-5.57-6.16-9.33c8.13 1.51 19.92 15.71 20 15.63A23.36 23.36 0 0 0 195 67.51c-2-3.52-6.88-6-7.9-7Zm-33.45 17.9L140.93 67.7c8.51-1.53 10.68 4.5 13.83 8.89Zm26.61.24c-7.9-1.45-11.12-6-17.16-13.68 10.3-.16 13.02 5.34 17.16 13.68Z"/><path d="M158 331.26c.13-.64.27-1.28.44-1.91a81.56 81.56 0 0 1 2-9.28c1.26-4.79 2.32-9.65 3.73-14.39a65.18 65.18 0 0 1 2.37-6.81c.92-2.13 2.09-4.11 3.17-6.12.7-1.3 1.31-2.65 1.93-4v.48a33.85 33.85 0 0 1 7.15-11.65 1.49 1.49 0 0 1 0-.21 1.08 1.08 0 0 1 .45-.91l.06-.07c.12-.18.22-.36.32-.54.28-.51.54-1 .81-1.55a25.93 25.93 0 0 1 2.11-3.53 11.59 11.59 0 0 1 4.77-3.26c.47-.64.94-1.28 1.45-1.87a.88.88 0 0 1 1.08-.24 20.06 20.06 0 0 1 7.94-5.78 34.47 34.47 0 0 1 14-2.56c3.54.05 7.07.44 10.6.67a25.51 25.51 0 0 1 5.05-.38q49.18.94 98.39.37c5.16-.06 10.27-3.47 15.43-5.23 2.46-.83 5-2 7.47-2 7.73 0 14.9-.78 20.8-7.93 2.8-3.39 6.86-5.58 10.61-7.67 5.66-3.15 11.71-5.37 17.28-8.68 3.42-2 6.83-4.08 10.34-3.73a12.28 12.28 0 0 1 5.08-.26 42.28 42.28 0 0 1 12.51 3.1c3.41 1.42 8.52 4.09 8.83 8.88 7.93 6.59 12.87 17.37 24.45 17.7-1.62-7.39-3.17-13.96-5.16-22.39 8.72 8.47 19.87 9.22 29.78 8.06 2-.24 2.28 5.1 4.13 7.46 1.25 1.59 1.66 4.07 2.69 6.82 4-4.15 2.56-7.53.77-10.92-2.43-4.59-1.87-11.48-8.31-15.61s-13.92-5.6-21.28-9.91c6.57-3.41 12.68-5.38 17.55-7.9 2.62 3.26 20.64 4.25 21.21 3.34-1-.72-8.67-6.64-11-7.29-3.71-1-9 1.19-9.84 1a19.51 19.51 0 0 1-4.62-1.75c-7.61-4.81-11.52-6.07-14.61-6s-14.79 1.73-15.71 2.63c-7.9 7.77-14.34 6.12-23.63 5.28-6.39-.58-12.83-.47-19.27-.44-2.05 1.61-4.83 2-7.66 2.08-4.3 4-9.09 6.56-15.15 5.87a8.06 8.06 0 0 1 2.93-4.75 1.5 1.5 0 0 0 1-.75c.52-.35 3.23-3 6.13-4.22 1.73-.73 4-.23 4.58-.34l15-3c1.87-.38 1.07-3.69-.79-3.31l-16.47 3.32c-3.64.74-7.51 1.47-10.12 4.58-2.09.08-2.14-1.77-1.68-6 1.61.87 5.23-1.59 5.34-1.71s-4-2-6.66-5c5.68-9.4 16.39-6.28 22.88-13.71 1.12 3.4 1.79 5.45 2.52 7.68 1.06-2.4 1.44-4.88 2.69-5.83 5.12-3.93 10.25-8.08 15.86-10.81 5.09-2.47 9.3-5.1 11.12-11.51 0 0 1.59-9.27 2.87-11.83s10.05-5.37 10.05-5.37 1.37 2.4-1.2 8.51a75.34 75.34 0 0 1-6.54 11.86l5.16 2.36 3.91-3.15c1-6.72 1.63-12.22 2.7-17.59 1.65-8.33 8.81-3.78 13-7.58-2.46-1.52-5.3-3-7.31-2-7.09 3.33-13.81 4-20.66 8.05a13.15 13.15 0 0 0-3.57 4.68c-.68 2.12-.06 6.28-1.05 8-3.91 6.88-10 11-16.53 14.27-11.64 5.75-23.58 10.69-35.88 16.19 1.55-15.46-3.53-27.56-13.75-37.21-1.5-1.42-1.69-4.61-2.66-6.88-3.66-8.49-5.78-19.16-11.55-24.76a42.38 42.38 0 0 1-11.21-17.23 15.87 15.87 0 0 0-3.44-4.83c-4.14-4.69-8.38-9.28-12.64-14 6.43-12.13 13.88-19.62 26.49-17.94 7.35 1 10.69-3.62 7.33-11.19-.45-1-2.22-2.07-2.75-3.85 4.33-1.44 10.7-1.07 14.64-2.26 2.74-.83 9-4.84 10.28-7.77 1.86-4.35 1.57-11.35-1.89-15.84-.77 2 1.21 9.07-3 12.78-5.85 5.2-20.28 8.36-23 10-3.09-.61-24-1.27-26.43-2.3s11.31-6.3 17.63-7.51a22.39 22.39 0 0 1 11.63 1c2.67-.18 6.73-1.36 7.61-3.49 4.19-10.25-3-27.63-12.65-29s-19.9-1.9-29.64 3.27c-6.17 3.28-13.28 6.39-19.83 6-12.16-.64-18.8 8.67-26.69 16.1a29 29 0 0 0-3.19.62c-1.91-8.11-14.37-18.57-20.27-15.82-1.29.61 1.78 24.77 5.7 29.7s6.82 15.12 6.68 17.93-.57 5.77-2.1 8-3.85 3.55-6 5c-1.67 1.54-3.37 3-5 4.71l-2.45 5.51a5.21 5.21 0 0 0 1.7 3.52 8.41 8.41 0 0 0 3.69 1.75l.65.07a53.7 53.7 0 0 0 8.22-.11 27 27 0 0 0 8.55-1.57 55.82 55.82 0 0 0 8.59-4.79c1-.64 1.9.83 1.19 1.8a13.65 13.65 0 0 1-4.73 3.94 72 72 0 0 0 1.31 8.95c5.45 7.82 10.81 15.8 16.38 24-.38 3.22-.85 7.26-1.34 11.47l-11.28-6.42c-3.84-.88-7.43-3.27-10.67-5.69-3.41-2.55-11.9-7.74-12.74-7.62 0 0-15-14-23.14-19s-23.32-8.49-28.9-8.35a40.26 40.26 0 0 0-10.32 1.63c-2.62.95-25.73 8.53-27.46 8.86a24.42 24.42 0 0 1-2.79 1.89c-2.64.18-21.37-13.37-23.37-15.64l.14-.17-2.52-2.02c-2.23-.23-4.23-.78-4.61-3.78a21.51 21.51 0 0 0-5-3.62 22.78 22.78 0 0 1-3.89-1.35l-.26-.15-3.46-2.38a205.81 205.81 0 0 1 22.58-7.55 150.52 150.52 0 0 1 25.21-4.23c4.86-5.19 10.36-6.64 16.95-6.37 1.78-.61 6-1.78 7.25 0 2.13.39 4.3.51 6.44.82a29.38 29.38 0 0 1 3.52.77c5.54 0 26-.4 28.55 1 .3.17 8.73 1.8 12 4a2.67 2.67 0 0 1 .32.24c2.1.41 6.7 11.12 8.13 15 .39-.27 5.65-6.18 6.24-8.36a.91.91 0 0 1-.94-.8l-.15-.7v.13c-9.77-13.33-42.75-13.39-46.71-13.6-9.35-.5-18.66-2.41-28-2.52-5 0-10.14 2.29-15.15 3.81-6.23 1.88-12.37 4.14-18.61 6-12.08 3.61-24.2 7-36.28 10.63-.38.11-.56 1.11-1 2 8.17 4.68 16.51 8.64 24.1 14s14.65 12.37 22.24 18.91c-6.75 5.13-13.87 8.65-18.74 14.64-11.79 14.5-25.44 21.19-42.57 18.75-3-.42-6.18 1-10.28 1.71 4.41 8 8.85 13.15 15.52 14 7.06.91 14.23.75 21.34 1.13 2.48.14 5.19-.16 7.39.88 17.69 8.36 35.8 6.18 55.65 3.79 1.07 1.94 2.78 5.07 4.5 8.19l-1.08 2.01c-12.69-.54-21.67 6.45-29.39 17.1-6.75 9.32-16.18 13.21-26.38 16a143 143 0 0 0-29 12c-5.79 3.07-12.36 7.36-15.5 13.29a234.86 234.86 0 0 0-16.81 40.65C67.3 276.23 67 278.37 56 278.18c-4.24-.08-8.49-1.91-12.68-3.16-4.88-1.45-9.62-3.79-14.56-4.56-10.17-1.59-18.47 4.63-20.33 14.69 1.35.64-3.64 11.16-8.46 16l6.7 1.85 3.58 2.94c1.66 1.36 3.39 2.66 5 4.14s3.06 3.57 4.74 5.09a12.51 12.51 0 0 0 3.73 3.71 24.47 24.47 0 0 0 15.74 2.5c7.86-1.34 14.54-6.82 21.69-10.87 13.85-7.92 20.16-21.24 26.58-35.5 5.83-12.94 11.39-26.08 17.85-38.6 7.83-15.14 23.88-20.9 38.05-15.12-1.51 17.73-2.92 35.32-4.56 52.87-.43 4.57-.67 9.73-2.66 13.41-2.92 5.37-7.35 9.65-11.56 14.94 1.1 24.94 3 73.52 3.37 76.08s13.25 11.88 20.89 14.7l.18.2.42.49a33.73 33.73 0 0 1 3.82 13.39c.13 1.88 2.16 2.17 2.78.79a1.79 1.79 0 0 0 .49-.86 20.2 20.2 0 0 0 .81-6.71c0-.3-.07-.58-.11-.87v-4.12a50.87 50.87 0 0 0 8.73.88 11.67 11.67 0 0 1 1.74 1.8c.8 1 5.13 2 4.44 1-.48-.68.59-4-3.38-6.36a8.15 8.15 0 0 0-1.33-2.33 14.49 14.49 0 0 1-1.47-2.61c-.08-.2-1-2.07-.65-2.89s2-.4 2.31-.23a2.53 2.53 0 0 1 .23.12c3.46 1.74 6.54 1.47 10 3.37.23.13 2.32 1.62 2.68 1.09s-1-3.2-1.6-3.69c-.84-.68-.72-2.68-1.53-3.32-.56-.46-4.55-7.85-3.82-8.86.47-.66 8.54 4.95 9.26 3.19s3.75 3.4 4.58 2.18-.7-4.56-1-6.61c-.25-1.9.52-2.78-1.13-5a33.64 33.64 0 0 0-8.16-7.21m173.09-229.1 7.55 7.12-2.18 2.74q-3.33-4.08-6.67-8.14c.43-.57.87-1.14 1.3-1.72Zm-9.77-18.62 4.49 8.67-2.71.8c-.95-3.55-1.68-6.3-2.41-9ZM325 88.91l7.7 5.7-.92 1.62-7.55-5.94c.25-.46.51-.92.77-1.38Zm3.17-41.59c4-1.78 22.92-2.42 23.87 8.74a24.25 24.25 0 0 0-16.57-2.27c-3.72 1-4.56 4.09-6 4.08a14.94 14.94 0 0 1-4.31-.48 1 1 0 0 1-.52-.43c-.44 0-.79-.33-.94-.8l-.38.17c-1.32-5.27 1.86-7.7 4.85-9.01Zm-73.3-13.5c-2.32-5.84-2.45-18.83-2.45-18.83s3.32 2.48 4.25 3.08a27.69 27.69 0 0 1 2.66 1.81 29.54 29.54 0 0 1 4.13 4.5 32.06 32.06 0 0 1 2.32 3.07c.53.83 1.27 2.29.69 3.28 0 0-.19 2.74-.3 4-.08 1-1.57 10.81-1.57 10.81s-7.41-5.88-9.73-11.72ZM24.74 314.06a18 18 0 0 1-5.74-6.31 44.18 44.18 0 0 1-5.32-4.31 40.08 40.08 0 0 1-2.92-3.54 7.4 7.4 0 0 1-2.12-3.94 1 1 0 0 1 1.24-1.1 7.94 7.94 0 0 1 2.92 2.27 36.92 36.92 0 0 0 2.91 2.7 38.43 38.43 0 0 0 3.5 2.78c1.16.79 2.34 1.55 3.46 2.41a1.14 1.14 0 0 1 .44.86 36 36 0 0 0 7.45 4c6.72 2.46 17.86 5.12 17.86 5.12.02.34-16.81 3.63-23.68-.94Zm212-67.89 7.63 5.61c-6.37 3.11-8 2.11-7.62-5.61ZM168.82 376.7s-4.51-.88-6.95 1.11-2 8.84-2 8.84c-5.24-.27-11.84 1.56-16.64-.88-1.14-.67-12.19-8.82-11.28-15.43-.06-.61-.11-1.21-.12-1.83 0-1.19 0-2.38.12-3.57-3.64-20.47-1.1-40.95-2.09-61.92 0 0 7.85-1.64 12.64-17.07s2.56-50 2.56-50a29.08 29.08 0 0 1 .68-4.36 12.54 12.54 0 0 1 .4-1.27v-.26h.12c.3-.76.63-1.51.89-2.3a7.77 7.77 0 0 1 .31-.8 10.59 10.59 0 0 1 2.86-3.48c1.26-1.12 2.53-2.22 3.78-3.35a15.77 15.77 0 0 0 1.9-4.68c.18-.51.36-1 .56-1.52s.43-5.13.68-6.84c-.69 1.34-2.71 4.26-3 4.73-.45.65-.91 1.36-1.42 2a2.06 2.06 0 0 0-.35.12 14.23 14.23 0 0 1-8.55 1.84c-.39-.11-.78-.23-1.18-.33-.77-.18-1.53-.32-2.28-.44-3.79.42-7.11 1.53-13.91 1.23-2.7-.12-13.83 3.33-23.22 17-16.07 23.45-30.91 66.83-35.61 67s-11.28-2.38-15.82-1.47c0 .7 1.39 10 1.42 10.7-5.12-2.44-11.57-13.47-17.67-16.38-1 2.07 6.27 11.63 4.59 14.94-5.2-2.47-20.83-9.11-24.56-18.08 1.38-.75 2-12.84 8.48-13.79 10.49-1.56 29 8.38 36.44 10.69l-4.08 2.11-3 1.47c8.78 4.28 18.5-5.47 21.87-15.24 2.6-7.54 3.74-15.74 6.28-23.31.41-1.24 4-20.19 16.26-31.79 12.84-12.13 34.39-16.91 34.37-17.32 6.46-2.9 17-6.44 22.1-10.46a.21.21 0 0 1 0 .12c4.68-3.67 9.34-7.36 14.23-10.61a31.48 31.48 0 0 1 3.9-4.72 19.92 19.92 0 0 1 3.92-3.12l-.35-.61 12.37-2.24.48.87c.65 0 1.31-.07 2-.06 2.06-.16 4.11-.57 6.15-.86-2.4-2.58-4.46-5.41-4.51-10 6.66 3.89 13.29 7.94 20.2 11.2 7.24 3.41 15.07 5.66 22.93 4.72 1.87-.22 1.89-3.65 0-3.43-7.63.91-15.11-1.29-22.14-4.6-2-1-4-2-6-3.08 1.53 0 6.2-.46 7.89-1.64 0 0-10.6-2.45-13.39-6-.62-.3-12.22-7.55-19.29-6.81s-22.57.64-33.1 0a33 33 0 0 1-17.15-5.83c1.61-4.18 13-10.07 13.69-9.68-1 1.49 8.83 7.47 12.56 9.55 2.73.46 5.47.85 8.22 1.11a46.67 46.67 0 0 0 9.6-.19c1.73-.19 3.47-.37 5.2-.43 0 0-11.47-6.59-21.59-8.33s-10-5.39-10-5.39a27 27 0 0 1 8.62-5.24s2.33-3 7-.13c2.68 1.68 16.14 11.33 24.77 16.09 6.28 3.47 8.76 2.64 8.76 2.64l-23.78-17.88-3.73-6s4.88-3 6.89-1.25a86.67 86.67 0 0 0 9.3 9.83 23 23 0 0 0 10.28 5.32c1.68 1 11 6.49 15.69 11.8 3.61 4.07 4.37 11.5 4.77 12.42 1 2.18 5.1 3.81 5.29 3.7-.87-.71-3.76-11.28-8.86-17.76-5.7-7.25-13.63-10.5-14.16-11.47 3.35-.95 17.56 4.6 17.56 4.6s-17.92-21.59-23.18-25.72c.05-.19-.48-.89-.8-1a46.66 46.66 0 0 0-9.95-1.1c-.31 1.19 4.65 3.52 9.86 7 6.64 4.47 14.1 12.95 14.1 12.95s-9-1.27-10.72-1.86c-2.73-.91-9.44-5.45-10-6.74-3.21-1.59 2.16-1.9-9-6s-19.5 5.31-19.66 5.33c-1.49.64-13.24 4.23-15.94 5.59-3.73 3.64-7 6.74-10.12 9.91-5.07 5.08-10.71 7.94-17.58 6.71-2.8-.5-5.64-.67-8.52-1-1.13-5.26-.91-5 3.53-5.82 5.21-1 10.89-1.86 15.27-4.91 8.49-5.92 16.3-13.2 24.23-20.17 11.22-9.88 23.75-16 37.38-20.14 14.35-4.33 28.11-2.87 40.18 1.4 1 2.21 6.38 8.67 6.44 8.85.56 1.31 9.38 7.89 10.7 9.23 0 0 27.42 17.05 28.33 17.28l.59.15a30.29 30.29 0 0 1 7.11 2.18 13.91 13.91 0 0 1 2.21 1.47q.84.66 1.62 1.41a23.2 23.2 0 0 1 5.37 4.49c.71.8 0 2.21-1 1.91l-.4-.14a4.75 4.75 0 0 1-.15 1.08 8 8 0 0 1-2.44 3.72 33 33 0 0 1-5.86 4 19.12 19.12 0 0 1-13 1.91c-.53.71 4 4 6.35 4a36.45 36.45 0 0 0 7.88-1.69.94.94 0 0 1 .26-.59c2.73-2.45 6-3.25 9.26-4.32.47-.29.94-.57 1.42-.84a52.42 52.42 0 0 0 6.89-4.26c.76-.6 1.48.28 1.43 1.11l1-1.19c-.16 7.86 2 12.85 7.26 15.61 2.68-5.62 2.38-9.24.11-14.48-3.61-8.37-6.77-17-10.24-25.47a25.51 25.51 0 0 0-3.52-6.57c-3.68-4.43-7.64-8.53-10.82-12 .84-3.28 1.52-5.92 2.23-8.68a15.67 15.67 0 0 0-.22-2.58 30.54 30.54 0 0 0-4.24 5.84.93.93 0 0 1-1.7 0c-1.36-2.91-1-6.16-.43-9.27.24-1.4.53-2.88.65-4.36-.05-.76-.12-1.52-.18-2.27-.05-.48-.09-1-.14-1.42a25.76 25.76 0 0 1-1.58-3l-.35-.43c-.39-.5-.77-1-1.14-1.51a31.75 31.75 0 0 1-3.17 3.94c-1.12 1.2-2.64 2.78-4.26 3.31a11.94 11.94 0 0 1-3.69 1.92 18.52 18.52 0 0 1-7.21 1c-1.92-.13-4.2-.6-5.52-2.39a1.36 1.36 0 0 1-.15-1.39c2.11-4.78 5.85-7.86 9.56-11 .62.18 5.21-4.79 6.58-7.23 0 0 .41-13.08 1.86-20.79s4-9.2 4-9.2c6.17-8.86 17.5-13.6 19.07-14.54.47.59 22.49-4.37 27.49-7.4 8.09-4.91 15.46-3.09 24.09-2.84 5.89.17 10.65 8.65 9.92 15.42-1.46-2.37-4.69-7.51-9.81-8a4.5 4.5 0 0 0-5.23 4.93c1.42 4 5.64 6.27 10 8.72-4.33.23-9.4-.42-11.78.13-4.35 1-12.29-.14-16.79 5.82-6.65 8.82-9.62 22.62-10 25.48l-4 1.09 8.3 12.81-1.89 1.71-6.22-7.78-3 13.47 13.5 6.33-.54 1.5-5.89-.34c-.13.57-.26 1.14-.38 1.71l15.37 10.64-1.01 1.96-7.59-3.4-.7 1 10.85 14.86-1.75 1.69-6.81-7.29c-.54 2.46-.93 4.28-1.16 5.32l7.3 9.48 5.09-1.37 6.1 9.06-6.7-3.26c.46 3.41.82 7.49 1.62 11.45a23.13 23.13 0 0 0 2.56 6.49c1.57 2.78 3.75 5.13 5.18 8 1.73 3.48 3 7.29 4.87 12.14.59-6.28 1.05-11.15 1.52-16.21l-12.38-10.13c4.33 1 8.11 2.77 11 5.71 8.92 9.14 17.59 18.62 26.1 28.28 1.23 1.39 1 4.46 1.48 6.76l-1 .33-13.64-17.84-2.14 1.59 7.59 14-1.05.73-9.71-9.58c-.63.64-1.27 1.28-1.9 1.93l14.9 19.9-7.6-3.6c1.48 5.14 2.66 9.21 3.82 13.24q-7.12-7.05-14.23-14.12l-1.22 1.07 5 7.64v12.07c-2.9 2.75-5.54 5.25-8.17 7.76l1.05 2.13 12.93-3.39c-1.82 4.26-2.89 6.77-3.69 8.66 8.71-1.4 16.87-2.45 24.95-4.11 4.25-.88 9.09-1.65 12.35-4.49 9.82-8.53 19.86-6.42 27.64-5.3s12.73 1.82 22.34 0c5.46-1 8.83-6.61 13.71-7.4 6.15-1 19.62 4.36 19.72 5.27-3.76.68-7.6 3.79-12.3 4.65-4 .74-6.46.48-9.61 1.06 5.78 9.85 11.12 13.89 21.88 13.49 3.81-.14 7.54 2.48 7.56 8.6-9.53 1.21-17.59-2-25-8.24-5.53-4.7-11.87-3.18-19.64-4.09 2.76 4.24 9.23 3 12.2 6.9s2.63 13.05 4.88 16.5c-.35.43-7.22-2.72-8.56-4.56-2.28-3.13-3.88-7-6.34-9.85s-5.45-4.69-8.66-7.35c0 0-5.47-3.22-7.86-2.53-8.86-4.24-17.5-7.39-26.67-.1-3.86 3.07-8.88 4.2-13.4 6.13-8.62 3.66-17.27 7.26-27 11.35l7.73 3.68c-8.89 8.11-16.62-3.36-24.68-.44-.82-1.52-1.65-3-2.63-4.84-3.36 2-6.41 10-9.86.75l3.76-1.78-4.6-6.72-4.33 4.5-10.9-6.59-1 2q4 5.53 7.91 11.06l-.94.82c-5.27-5.14-10.54-10.29-16.49-16.08l-1.64 5.49c1.91 3.06 3.26 5.2 4.6 7.34l-2.89 3.08c2.75 4.64 5.24 8.83 7.72 13-11.29-5.32-9.49-21.35-18.39-29.17-4.91 6.59 1.23 9.87 2.77 14.35 1.76 5.12 3.38 10.31 4.95 15.14-5.06-.84-8-4.5-9.17-12.49-1.23-8.13-4.81-14.13-13.39-18.88 1.23 4.94 1.63 8.3 2.87 11.17 2.55 5.88 5.67 11.44 8.22 17.33.35.81-1.23 2.74-2.4 5.15-3.16-10.2-16-28.51-21.2-30.37-1.11 11.41 11.45 14.91 11 27l-11-15.38c-6.82 6.66 3.48 10.13 1.65 15.74-8.05-2.48-9.31-10.71-12-17.33l-7-2.11c1 3 2.07 6 3.12 9.08l-1.41.81-8.23-11.81c-1 4.95-1.52 7.88-2.09 10.81-.82-1.45-1.68-3-2.67-4.72l-6.81 3.17c1.52 1.76 3.43 1.62 4.62 2.64s2.07 3.44 1.67 4.59-3.72 2.29-3.77 2.18c-2.88-6.13-7-2.81-10.9-2.23 1.81-1.39 3.63-2.78 6.88-5.29l-8.68-3.42-2.16-8-1.89.69-.59 10.71-1.77-.08-3.3-24.58-1.69.3v29.82l-8.71-14.87-1.83 1.16 5.59 18.59-5.68.76c-.19-3.51-.35-6.29-.49-8.91l-8.35-3c2.46 5.46 4.22 9.4 6 13.4-5.23 5.84-7.52-1.26-10.85-3.36-2.75 6.09 2.22 14.51-4.87 18.38l-2.84-8.93c-1.53 6.08-2.52 10-3.89 15.51l-1.25-6.2-1.84.28c.25 3 .51 6 .8 9.5l-9.36 24.93a15.16 15.16 0 0 1-.95 3.23 29.3 29.3 0 0 0-1.23 4.66c-.35 1.67-.84 3.31-1.27 5-.19.72-.35 1.49-.56 2.24-.42 4-2.24 7.67-1.94 11.79a28 28 0 0 0 4.63 13.1 42.89 42.89 0 0 0 8.65 9.57c1.44.84 4.15 3 4.06 3.31a13.63 13.63 0 0 1 1.07 1.08c1.26 1.44 4.91 4.08 4.93 6.42 0 0-4.28-2.48-5.82 1.25s-.49 9.18-.49 9.18Zm144-129.41c-5.32-2-8.91-3.87-9.44-9.53 5-.16 7.24 3.4 9.43 9.53Zm50-46.08c7.33-2.41 8.84-.4 7.89 10.55-4.61 4.62-8.93 1.92-12.87-1.37-1.07-.89-1-3.6-1.82-6.8l10.56 6.92.7-1.56Z"/><path d="M268.43 75.32a12.54 12.54 0 0 0 1.25-2.82L267 67.19l-.27.25a16 16 0 0 1-5 7c-.91.76-1.9 1.39-2.78 2.19a4.86 4.86 0 0 0-1.08 1.22c-.16.28-.2.39-.14.47.44.61 1.38.54 2.13.51a16.66 16.66 0 0 0 3.7-.63 15.24 15.24 0 0 0 3.23-1.17 3.87 3.87 0 0 0 1.64-1.71ZM476 155.68c4.5 1.89 8.57 2.45 12.46 4.08-.71-9.28-6.85-11.9-15.58-8-7.77-8.24-20.77 2.88-25.24 13.28 7.49 3.82 15.79-20.28 23.86-7.71-6.11 3.89-11.46 16.44-18.83 21.14 3.14.63 10.8-.42 14.83.79 3.53 1.06 2.13 3.24 5.69 4.14v.78c-17.44 2.38-38.65-10.31-55.53 6.27.3-4.65-3.25-9.73-4.9-11.53-.5 3.05-1 5.85-1.41 8.53 1 .36 1.71 5.33.88 7.55 1.3.56-.35 2.31-.35 2.31s18.71-10.8 23.12-11.59c7.32-1.38 19.54 3 21.59 2.27 5.91-2.14 16.79-.89 21.34 4.22.59.65 1.67.71 2.52 1l1-1.58c-3.24-3.19-4.75-10.87-8.94-14.48-2.49-2.15-7.62-.07-10-2.41 4.08-.79 12.84-15.11 13.49-19.06ZM286.43 52.4c2.42-8.16 4.43-15.47 6.83-22.59.58-1.72 2.49-2.83 3.79-4.23l1.27 1.09q-.69 2.85-1.4 5.71c4 6.86 4.27 12.45-.17 16.71-2.75 2.59-5.56 8.1-10.32 3.31ZM307.86 105.79a92.12 92.12 0 0 0-5-17.05c-.78-1.81-4.26-2.06-6.51-3l-.83 1.13a14.33 14.33 0 0 1 2.38 3.47c5.73 4.19 5 11.8 5.23 20.43 2.38-2.46 4.92-4.12 4.73-4.98ZM332.51 152.95c5.69 7.42 4.8 23.65 0 26.32ZM254.8 234.45c-2.13-4.89-4.25-9.79-7-16 6.45 2.38 9.37 8.97 7 16ZM271.24 157.8a56.17 56.17 0 0 1-19.51-12.78c-7-7.36-11.91-18.76-12.79-20.09a.29.29 0 0 0 0-.09 21.23 21.23 0 0 1-1.19-2.55c-.44-.42-.88-.82-1.29-1.23a10.59 10.59 0 0 1-2.4-3.39c0 .16-.08.32-.12.48-.72-.85-1.46-1.69-2.21-2.5a18.88 18.88 0 0 0-5.06-4.21 31.45 31.45 0 0 0-6.45-2.25 59.6 59.6 0 0 0-14.15-2 1.43 1.43 0 0 0-1.41 1.34H204c-1.92.13 16.43 5.55 23.28 10.85a38.78 38.78 0 0 1 8.91 9.76c2.86 4.46 11.21 20.23 10.43 18.2 7 7.75 24.62 10.46 24.62 10.46ZM294.31 74.42l-5-8.49 3.61-6.33 1.37.6ZM246.6 228.73c-6.62-3.28-8.08-6.42-2.89-11.54.81 3.24 1.62 6.48 2.89 11.54ZM293.28 91.51a1.18 1.18 0 0 1-.45-.27l-.11-.09-.15-.12-.3-.21-.16-.09-.25-.1a11.91 11.91 0 0 0-1.28-.31l-1 .77c.08.4.16.8.25 1.19l3.52 6.3 2.69-2.13q-1.37-2.49-2.76-4.94ZM288.68 81.97c-.64-4.46-1.09-7.59-1.6-11.22-5.37 5.16-5.2 6.61 1.6 11.22ZM306.16 121.75c.48 3.11.95 6.23 1.43 9.35l-1.78.56q-1.28-4.43-2.53-8.85ZM228.35 228.7l-4.35 7.54-2-1.36 3.72-8.15ZM235.92 216.7c1 1.93 1.89 3.87 2.84 5.8l-2 1.27-2.72-6ZM228.35 135.95s-.12 9.07 10.41 15.88 24.93 12.73 24.93 12.73-3.25 3.85-15.85 0-20.76-11.74-19.49-17.47a28.06 28.06 0 0 0 0-11.14Z"/></svg>
