<svg id="Ebene_1" data-name="Ebene 1" xmlns="http://www.w3.org/2000/svg" viewBox="0 0 497.05 498.93"><path d="M170.14,144.25l0,.1-.35.17Z" transform="translate(-1.48)"/><path d="M140,132.88l-.23.24c0-.06-.05-.11-.07-.16Z" transform="translate(-1.48)"/><path d="M136.85,164.75a14,14,0,0,0-.86-1.44,7.54,7.54,0,0,1-1.43.06c-1.87-.16-3.08-3.54-4.82-4.16-.15,1.19-1.8,2-1.93,3-3.87-1.72-6.55-3.23-11.94-5.63,0,0-3.68,9.43,0,12.16s5.7,2.06,8.64,2.73C129.35,170.59,133.87,168.7,136.85,164.75Z" transform="translate(-1.48)"/><path d="M301.84,345.72Z" transform="translate(-1.48)"/><path d="M416.71,214l1,.43.13-.51Z" transform="translate(-1.48)"/><path d="M437.62,306.93Z" transform="translate(-1.48)"/><path d="M414.94,324.05c.43,1.15.29.76,0,0Z" transform="translate(-1.48)"/><path d="M405.17,256.87h0C405,257.11,404.76,257.36,405.17,256.87Z" transform="translate(-1.48)"/><polygon points="18.23 20.65 17.96 21.07 18.41 21.13 18.23 20.65"/><path d="M30,476.46c.61.4,1.23.81.22.14.35,1.07.13.39-.1-.3Z" transform="translate(-1.48)"/><path d="M30.14,476.3l-.46.05c-.39-.16,0,0,.33.12Z" transform="translate(-1.48)"/><path d="M367.52,271.23c4.29,7.13,7.37,14.91,11,22.38a11.92,11.92,0,0,0,1.08-2.2c-.46-1-12.53-29.29-22.82-40.5l-9.16-7.2c4.42,6.15,14.89,18.57,18.23,24.39C366.48,269.12,367,270.18,367.52,271.23Z" transform="translate(-1.48)"/><path d="M362.43,273.48l-1.46.68c3.06,7.42,6,14.92,9.32,22.2.69,1.49,3.14,2.16,4.78,3.2l.24-.24C370.84,290.8,367.46,281.69,362.43,273.48Z" transform="translate(-1.48)"/><path d="M351.34,298.83l8.75,18.27,1.92-.49c.15-2.49.3-5,.45-7.59l5.72-1.21v-5.6l-10.13-3.8Z" transform="translate(-1.48)"/><path d="M357.5,287.57l3.54,7.5,2.46-1.14-3.34-7.63Z" transform="translate(-1.48)"/><path d="M304.66,293.24c.67,2,1.33,4.06,2,6.08l-2.35.72-1.79-5.92Z" transform="translate(-1.48)"/><path d="M314.35,301.54l1.59-5.34c1.51,2.69,2.37,4.21,3.22,5.74L318,303.06c-1.26-.56-2.51-1.12-3.77-1.7Z" transform="translate(-1.48)"/><path d="M324.56,318.22q-1.2-2.67-2.41-5.33l1.58-.87c1,1.7,2.09,3.4,3.14,5.09Z" transform="translate(-1.48)"/><path d="M327.32,296.16c-.62-1-1.24-1.91-1.85-2.87l1.31-.88,1.9,2.84Z" transform="translate(-1.48)"/><path d="M352.89,284a14.15,14.15,0,0,1-.28-2,2.17,2.17,0,0,1,1-.27,16.09,16.09,0,0,1,.81,1.91Z" transform="translate(-1.48)"/><path d="M335.25,286.43V284.8l.66-.18c.2.58.4,1.16.61,1.74Z" transform="translate(-1.48)"/><path d="M340.86,294.3c0,.28-.05.56-.08.84C340.8,294.86,340.83,294.58,340.86,294.3Z" transform="translate(-1.48)"/><path d="M254.3,450.4c.4-8.11,7-22.39-.67-48-1.16-3.88-.55-8.13-.8-12.21l1.89-.35L251,383.66c-.29-3.92-.53-7.18-.73-9.91,1-5.43,2-10.43,3-15.62l14.17-1.41c4.15-4.82,10.4-3.53,16.68-3.75,12.1-.41,24.17-1.93,36.26-2.94,3.07-.26,6.16-.34,7.9-.43,2.64,5,4.92,9.56,7.38,14,2.73,4.94,19.26,17.72,19.26,17.72s-4.42,9.86-7.77,14.06a84.54,84.54,0,0,0-6.65,8.82c-.29-.06-2.78,3.51-4.17,5.3a45.25,45.25,0,0,0,.56,5.35c-.77,8.89,3.49,17.35,8.05,25.06a4.11,4.11,0,0,0,1.48,1.48,81.06,81.06,0,0,0,4.4,8.15A30.09,30.09,0,0,0,365.12,464c10.49,5,18.45,1.81,18.45,1.81,2.16-1.61-7.19-35-7.19-35s-8.19.05-10.9,1.55c-.76-1.44-1.49-2.85-2.55-4.87-.13-.06-.27-.1-.4-.17a6.44,6.44,0,0,1-.94-.68,3.06,3.06,0,0,1-.36-.36,7.2,7.2,0,0,1-.69-.95A7.09,7.09,0,0,1,360,424a.76.76,0,0,0-.25.69c-1.45-1.52-3.31-6.49-1.78-10.07,2.22-5.19,11.81-13.85,20.24-23.52a139.2,139.2,0,0,0,12.52-17.22l-13.8-18.62,1-1.14L396,365.08c4.71,2.85,9.66,5.39,14.06,8.67,2.92,2.18,5.06,5.42,6.9,8.76,5.78,4.87,8.65,11.37,9.35,18.63A58.5,58.5,0,0,1,426,411a53.29,53.29,0,0,1,1.51,16.08c.71,3.69-.06,12.29-.44,14-.47,2.06-15.07,17-15.07,24.7s13,18.43,22.67,18,25.93-16.77,25.72-18.21c-.71-5.05-8.16-22.31-8.16-22.31l-5.15-43.75c-1.07-12.92-.24-26-.24-39.48l-7.37-6-4.63-.44c-11.78-12.66-18.66-32-17.3-48.05-1-6.92,5.63-33.15,3.54-41.86-1.76-7.32-10-17.23-10-17.23.78-1.34,11.65,6.2,12.71,4.91,1.23,1.75,8.12.06,11.66,5.49,4.56,7,5.49,21.82,1.94,29-3.12,4.14-6.23,8.29-9.13,12.15,2.09,19.41,10.64,39.71,40.52,44.4,0,0,2.29.6,2.32.57.68-.62.55-5.59,4.15-8s4.62-.21,4.62-.21-3.16,3.26-6.6,10.56a85.71,85.71,0,0,0-3.46,9.3s-3.29,1.33-.85,5.15a15.76,15.76,0,0,0,5,5.19c1.21.46,4.83.24,7.84-1.37s-.6-.6-4.15-1.11-1.18-3.11-1.18-3.11c.33-1.3,8.36-2.8,8.93-3.79.91-1.58,1.78-3.19,2.75-4.73a22.29,22.29,0,0,1,5.41-6c.19-.35.36-.7.57-1,3.95-6.37,5.23-11.72,3.89-18.62a21.92,21.92,0,0,1-.31-3.78,25.3,25.3,0,0,0-4.39-4.94c-.58,0-2.68-.27-3-.28-1.16,0-2.32,0-3.47,0-.17,0-7.3-.15-7.86-.2a11.82,11.82,0,0,1-9.19-5.13,11.64,11.64,0,0,1-2.49-10.39,43.43,43.43,0,0,1,4-9.09l-.36-.52.35-.33a5,5,0,0,0,.63-.27c.75-1.33,1.53-2.66,2.32-4a11.87,11.87,0,0,1,1.36-1.89c-.51-5.27,1-9.76,3.85-12.09-.22-1-.44-2.05-.6-3.1-.14-.76-.25-1.52-.36-2.28,2.55-6.53,1-12.5-1.38-18.91a56.89,56.89,0,0,0-9.14-16.3,30.17,30.17,0,0,0-16.64-14.78c-2.6-1-5.63-.86-9-1.32l-8-4.53c-7.9-6.14-11.82-6.26-24.31.28-.42,3.66-6.43,2.62-7.07,8.25,8.74-7.44,22.47,1.81,31.14,3.82-.35-1.87,3.1,2.4,5.18,5.88-5.41-.78-15-4.81-24.36-7-5.19-1.23-13.76.93-14.42.56-1,2.7-1.53,2.59-2.69,5.69-5-3.18-19.35-10.83-23.64-12.27-14.6-4.88-32.44-2.57-45.79,5.22a31.38,31.38,0,0,1-21.89,4.19,246.79,246.79,0,0,1-26.54-6.75c-8.76-2.64-17.35-3.86-26,0-8,3.59-15.39,2.92-22.33-3.13,2.9-.95,17.28-1.8,17.52-3.34.29-1.87-14.19-4.85-17.93-11.15,0-2.68,15.44-4.46,14.94-6.19-1.13-3.93-19.64-6.29-26.53-9.23.67-1.77,11.85-3.91,12.85-6.54-4-4.45-18.6-8.61-22.72-13.18,1-1.51,11.73-4.24,13.05-6.21-1.47-1.12-12-1.57-13.1-1.63-7.43-.43-11.86-4.94-16.29-10.34-3.24-4-7.48-8.65-12-9.69-11.85-2.7-15.63-10.89-18.28-21-1.56-6-.69-13.19-7.38-17.44-8.34,4.19-10.77,12.29-13.85,20.2l-4.62,1.5s-1.58-2-1.73-9.37c-.29-13.25-9.59-16.44-9.59-16.44s-2.41,14-2.29,16.26,3.56,4.92,3.45,7C91.47,84.26,14.5,3,1.54,0,1.06,1.65,3.59,6.3,4.17,6.58L34.92,45.79l-1.43,1.12c1.69,1.44,3.5,2.78,5,4.36,9.72,9.93,19.35,19.95,29.1,29.85,1.55,1.56,3.84,2.43,5.27,4.07,8.44,9.59,16.67,19.35,25.1,28.94,1.06,1.2,2.86,1.76,4.35,2.59L110,135,97.77,152.84c.76,2.48-11.28,20.68-19.19,28.58S67,199.77,68.13,203.06s6.27,12.5,8.2,12.41,7.94.64,10.12-.63L89.62,220c8.24,5.79,14.42.14,20.62-4.07,0,0,13.3.59,17.41.52s13.53-4.69,22.09-7.66c1.45,9.35,2.66,17.47,4,25.57s2.66,16,4.12,24c.55,3,2.06,6,2.08,9,.14,18.47,5,35.44,15.23,50.44-3.32,15,13.62,21.22,14,35.56L181.68,365l1.68,5.44c-4.1,10.1-8.31,20.46-12.27,30.23,3.82,7.76,12,20.55,16.71,32.51,2.64,6.68,3.11,15.92,3.83,17.09-.17.55-1.59,5.27,1,9.42,3.65,5.91,12.12,12.15,15.91,16.24.44-1.06.9-2.14,1.35-3.2,1.75-.09,4.36-7.72,4.63-10.11,0-.08,0-.17.05-.3a6.32,6.32,0,0,1,.24-.85,39.58,39.58,0,0,0,1.18-5.6c0-.24.39-2.39.54-3.3s.46-1.83.68-2.74a20.74,20.74,0,0,0,.43-8.15,3,3,0,0,0-.27-.81,37.68,37.68,0,0,0-3.28-15.23c-2,.41-4.05.78-6.08,1.05-5.74.74-7.54-4.08-8.25-8.63-.43-2.74.36-5.68.61-8.53l-1-.11c.44-4.65,0-9.63,1.56-13.86s5.13-7.38,7.94-11.19l8-2.16c4.4,8.16,9.07,16.18,11.39,25.28a62,62,0,0,1,8.85,19c-.75-4.16-1.46-8.33-2-12.52-1.66-13.39-8.07-24.83-13.7-36.68-4.26-9-8.16-18.19-7.52-28.88H201.59l-1.82,4.37c-4.78.42-20-30.33-19.36-39.07l8.72,7,2-1c-.88-2.91-1.76-5.81-2.63-8.72-.08-.09-.16-.17-.23-.26q-.67-.79-1.29-1.68l-3.7-2.48-6,1.77L175.5,305c1.49-1.3,2.9-2.54,5.64-4.92l-9.79-5.77-4.51-7.63,6.09,1.28,1-1.47-7.84-5.76c.32-1.29.8-3.26,1.42-5.79l7.77,3.31c-.06-5-.06-5-10-9.38v-5.09l8.37,1,.9-1.93-13.49-10.14.95-1.57-6.06-41,9.84-14.8c-.78-.29-1.87-.57-2.77-.85a27.36,27.36,0,0,1-2.89,1.19A35.66,35.66,0,0,1,157,197.9c-4.12,2.69-9.2,4.85-14.22,4.68a3,3,0,0,1-1.47-.51c-3.57,1.34-7.8,6.68-11.17,6.77-7,.39-19.31-6-20-2.49-2.23-2.45-15.88,1.33-17.74.86-2.66-.67-.19-6.22-6.85-10-3.55-2-6.59,2.16-9,2.81-4.65-9.65,7.52-13.18,10.29-19.58,2.93-6.76,10-11.73,15.51-17.75.24-3.17-2-6,.76-10.1s13.23-15.73,21.65-18.54c10-3.34,18.51,5.22,20.4,2.62,3.55,1.93,8.81,6,16.44,7.83,5.72,1.37,14,.45,17,2.08-2.21.39-17,3.78-18.86,2.84-4.1-2.07-8.24-8.64-13.42-6.27,2.46,2.84,3.93,13.17,5.54,14.83A49.73,49.73,0,0,0,163,166.63l5.17,2.45c2,.79,9.75,2.7,11.83,3.16-1.13.31-10.74-.69-11.58-.88L162,169.85l-5.83-2.59-6.43-5.44c-1.83,6.22,10.06,11.9,12.79,12.7s6.27,2.74,9.45,4a3.07,3.07,0,0,1,1.94,2.11c4.19.31,8.4.32,12.61.29,1.29-.69,20.09-.93,20.09-2.53,0-1.09-13.87-5.74-14.64-6.52-1.45-.52-16.14-4.67-16.14-4.67s13.45-2.64,18.17-.75c2,.82,25,11.23,26.2,12.17-.87.66-1.07,3.28-7.13,4.05-8.49,1.08-28.79,2-28.79,2s4.33,2.28,10.09,5.12c3.07,1.5,14.48,2.56,14.79,2.67,4.23.63,21.35,1.42,21,2.73-.44,1.54-38.74.56-32.63,3.27s14.73.26,26.36,4c8.51,2.72,14.92,9.08,14.85,9.53-.14,1.06-5.24.95-14-3.15s-11.7.64-16.1-1c0,0,12.65,9.23,17.63,15.34s3.36,20.44,3.36,20.44c.34-.11,2-6.46,2.5-10l6.86,5,1.59-1c-.43-3.31-.85-6.62-1.47-11.46,4.15,4.87,7.37,8.67,10.6,12.47l2-.54-2.18-9.61c4.3-.16,5.32,1.12,10.84,12.35,2.57,5.22,5.5,10.26,7.29,16l7.56,10c3.33-6.63-.41-10.56-2.57-14.53-4.92-9-10.24-17.84-14.15-27.52,12.18,8.14,18.43,20.14,22.61,34.28l6.89,5.57,1-.61q-8.35-18.15-16.7-36.28l1-.79,8.83,8,1.48-1-2.91-7.92a16.63,16.63,0,0,1,9.9,16.55l-6.63-4.15c-1.73,3.32,5.07,14.51,13.63,22.82l1.8-.55L293,242.3c7.21-.24,5.51,6.67,9.88,9.41l7.71,3.07-11.48-16.91,2.21-2c9.15.52,11,10.28,16.29,15.66l2.1-1q-2.06-7-4.09-14l2-1.71L325,245.36l2.46-1.75c-2.33-4.32-4.67-8.64-7.28-13.45l6-2.78,8.74,12.24,1.95-.69c-1.42-4.85-2.83-9.7-4.58-15.69,1.11-.89,8.47-3.1,10.52-4.73,5.09,3,9.14,10.31,9,11.6l-12.85-6.46-.54,1c1.14,1.53,33,14.63,42.67,27.93a285.77,285.77,0,0,1,25.58,42.45c8.12,16.07,6,34.31,6.41,39.13s.54,9.26.76,10.88-4.5-5.68-11.19-13.35a120.57,120.57,0,0,0-13-12.82c4.33,17.13,18.5,27.62,26.28,41.83l-2.86,2c-3.37-4.32-7.06-8.42-10-13-5.44-8.4-10.4-17.12-15.7-25.62a7.66,7.66,0,0,0-4.65-3.07c2.31,17.43,15.88,28.31,24.51,42-15-10.33-25.68-24-33.42-40.07-.8-1.67-2.66-2.84-5.09-3.39,3.48,13.21,11.49,23.51,19.17,34.11a52.74,52.74,0,0,1-23.24-30c-7.74.15-9.67-4.82-11.07-11.07-1.06-4.71-3.58-9.09-5.44-13.62l-2.3.5L344,309.26l-1.47.37q-2.6-5.36-5.21-10.71l-2.1-.53c-1,2.87-2,5.73-3.33,9.5l-4.72-6.32-6.43.43,11.12,19.65L324.94,326c-3.67-8.42-7.16-16.43-10.64-24.44-1.31.72-2.62,1.44-4.55,2.48l5.78,11.33-3.31,2.69-4-7.12-1.43.22v12.76c-2.11-4.07-3.43-6.63-4.11-7.93V304.77l-5-.39a50.78,50.78,0,0,1-2.12,10.67c-1.43,4.82-2.44,9.82-4.87,14.28a24.76,24.76,0,0,1-5.42,6.85l-.08.32-.25-.06a19.81,19.81,0,0,1-5,3.06,23.69,23.69,0,0,1-7.48,3,2.72,2.72,0,0,1-1.3.36h-.56a23.74,23.74,0,0,1-9.81-.4c-.22-.06-.4-.15-.61-.22A95.8,95.8,0,0,1,234.62,335l5.63,7.09v0A36.55,36.55,0,0,1,246.3,345c.72.41,1.44.81,2.17,1.19.37.19.74.38,1.12.55l.32.15.28.12a16.57,16.57,0,0,0,2.27.71c.21,0,.41.09.62.12l.23,0c.42,0,.84.06,1.26.06a2.81,2.81,0,0,1,2.75,2.76,2.77,2.77,0,0,1-2.75,2.75,20.79,20.79,0,0,1-9.63-2.92c0,.06,0,.13,0,.2-1.16,3.08-3.55,4.74-5.52,7.23a7.71,7.71,0,0,0-1.46,3.79h0l0,.08c-.22,1.62-.19,3.31-.33,4.87-.24,2.62-.57,5.23-.69,7.85l2.8,4.92c-.13,11.08.49,20.28,7.09,25.41-.67,3.56-1.59,5.81-1.36,7.95.25,2.32,1,5,2.51,6.7,4.3,4.71,3.44,9.72,2.56,15.31-1.11,6.94.59,11.6.12,18.56,0,0,1.08,16.86,6,22.12s2.41,14.65.94,16.51-18.43,3.22-23,.77-3.85-8.84.16-14.27S241,468,242,459c.5-4.3-1.42-11.17-2.07-15.5-.12-.81-.27-1.62-.4-2.44.12,1.91.18,3.8.13,5.65-.12,4.06-1,14.47-3.67,22.49-.93,2.81-5.35,6.12-6.23,8.6-1.76,4.93-.68,2.59-1.79,7.41s-2.31,8.92-1.22,11.81c.67,1.77,6.18,1.95,6.18,1.95h27.55s5.51-4.51,6.08-10.09a25.24,25.24,0,0,0-3.18-15.6C259,465.7,253.9,458.5,254.3,450.4ZM421.07,214.85c5.05-1.56,9.55-1.68,11.8,3.66ZM210.53,377.2c-.45.11-7.28,6.44-12.44,16.9-2.42,4.9-5.74,16.65-5.56,18.24.74,4,1,9,2.69,13.42s4.73,8.41,7.32,12.82l8.2-1.09A26.66,26.66,0,0,1,212,450.2c-1.29,7.16-5.88,14.13-5.9,14.75,0,.34,0,.68-.07,1-10.93-7.86-11.54-11.79-12.79-26.88-.66-8-4.75-16-8.2-23.54-3.84-8.43-8.39-16.56-4.13-26,2.32-5.15,10.73-22.32,13.78-27.84C195.67,363.05,209.48,375.74,210.53,377.2Zm-113-168.36c3.87,0,12.07,2.37,12.85,3.16-1.72,1.29-9.72,6.5-13.75,5.28a8.52,8.52,0,0,1-5.33-4.12C92.79,211.77,93.64,208.84,97.51,208.84Zm-21.19-5.56c1.73-.26,3.42-.74,5.18-.84a6,6,0,0,1,5.62,2.42,5,5,0,0,1,.64,3.69,4.08,4.08,0,0,1-2,2.61c-1.67.93-2.19.46-4,.1-.65-.13-3.56,1-4.17.71s-3.42-1.78-4.1-3.59c-.62-1.66,1-3.55,1.13-3.84A2.75,2.75,0,0,1,76.32,203.28ZM34.49,40.15l-2.23-3.87,1.6-1,2.32,3.83Zm11.56,12-8.45-8c.68-.71,1.37-1.42,2-2.14l8,8.5Zm9.57,10.51-5.21-4.4c.19-.82.39-1.65.59-2.47,1.68.26,3.92,0,4.91.92S57,60,57.41,61.74ZM72.68,80q-4.74-5.65-9.46-11.32l2.46-2L75,78.19ZM87.1,94.09,77.09,85l2.4-2.46,10.09,9.07Zm15.32,22.55c-2.06-3.73-4.2-7.42-6.14-11.21a30.85,30.85,0,0,1-3.37-9.77c9.17,1.19,6.58,9.82,11.21,14.6l3-.5c1.36,3,2.75,6,4.41,9.67Zm54.45,12.53c-2.35,2.81-6.52,1.56-8.77-.67A6.78,6.78,0,0,1,146,124a8.77,8.77,0,0,1,1.29-4.27c.67-1.21,1.5-2.33,2.28-3.47.39-.58.77-1.16,1.11-1.77,0-.06.21-.33.33-.56a1.31,1.31,0,0,1,0-.14c.05-.16.11-.32.16-.49a3.24,3.24,0,0,1,.17-.32c0-.54,0-1.08,0-1.63a2.76,2.76,0,0,1,5.51,0c0,2.17-.18,4.33-.12,6.5,0,.74.13,1.48.14,2.22a2.56,2.56,0,0,1,0,.27l.18.92C157.63,123.77,158.73,126.94,156.87,129.17Zm8.4,34C163.22,162,155,153,153.43,151.69c.79-.33,11.57,5.75,16.39,5.75s17.54-.24,22.12,2.74C190.48,159.89,166.24,163.69,165.27,163.15Zm18.89-10.22c-6.35-.81-15.71.29-16.09-.4.91.64,9.85-3.52,16.35-4.22,3.47-.37,11.64,7.71,12.13,8C196.24,156.65,191.62,153.87,184.16,152.93ZM408.73,288.74c0,2-11-24.49-26.64-42.6-12.42-14.39-30.25-20.8-30.29-22.79s4.56-2,5-1.94c6.74,1.25,22.16,5.78,27.67,9.81,2.81,2.06,16,15,17.5,17.2,2,3.07,6.57,10.27,7.81,13.73C411.41,266.7,408.79,283.88,408.73,288.74ZM286.24,348.47,284.6,347q2.67-4.37,5.33-8.73l1.87.46c.5,2.46,1,4.92,1.66,8.12Zm12.92-7c-5.43-6.43-3.65-12.39-1.8-18.35l2.17-.62c1.21,4.12,2.42,8.24,3.78,12.89C302.15,337.09,300.85,339,299.16,341.46Zm10.21-.68v-7.64L312,333l.39,7.63Zm3.49-19.68,6.29,1.29.79,1.93c-1.52,1-3,2-5.5,3.57C313.89,325.54,313.53,324,312.86,321.1ZM321,340.31l-1.79-.1q.6-3.73,1.22-7.47l.57,0Zm37.92-10.56,3.88,1.89-1.29,2.08L358,331.59Zm-8.68-3-6.7-12.51C350.34,315.89,352.35,319.1,350.24,326.76Zm1.86,3c-.22.71-.44,1.43-.65,2.15l-1.2-.39.75-2.12Zm-24.65,11.94c1.56-4.81,3-9.36,4.51-13.91C336.7,333.71,335.86,336.49,327.45,341.67Zm7.87-23.4c-.76-1.13.07-3.33.19-5.06l2.31.07c1.14,2.27,2.28,4.55,3.43,6.82l-.95,1.38C338.58,320.45,336.33,319.78,335.32,318.27Zm5.1,20.84c.5-5.09.85-8.57,1.32-13.3C346.49,332.14,346.38,334.09,340.42,339.11Zm33,100.6c.39,2.5,2.34,18.87,2.73,21.37,0,0-21.52-10.53-19.57-16S369.65,440.69,373.46,439.71ZM377.68,362c.31.56.66,1.1,1,1.66a11.54,11.54,0,0,1,4.68,7.95c1,.88,2,1.73,2.82,2.49-.48.54-24.41,31.28-26.79,33.35-3.22,5.12-10.14,14-11.47,20.53-2.71-5.85-7-12.56-3.93-18.89,1.88-3.91,19.25-27.48,20.4-28.88a23.38,23.38,0,0,1-3.26-3.5,52.7,52.7,0,0,1-5.6-4.95c-3.09-3.33-5.29-7.12-7.84-10.83-1.73-2.51-4.85-5.59-4.58-8.88A4.86,4.86,0,0,1,346,348l.22-.08.46-.43.16.2a10.62,10.62,0,0,0,3-1.15,2.08,2.08,0,0,1,.42-.26,11.2,11.2,0,0,1,15.09.4,86.59,86.59,0,0,1,9.4,10.57A46,46,0,0,1,377.68,362Zm66.1,22.9c-.18,3.91-.23,7.85-.24,11.78A28.81,28.81,0,0,0,444,401c.1.49,0,6.13,0,6.32,0,1.29-2.5-8.94-2.49-11.08-.1-3.24-.84-5.29-.94-8.55-.07-2.59-.22-8.13-.31-13.16s-.76-11.69,1.17-12S444,379.69,443.78,384.93ZM432,426.21a82,82,0,0,1-1.12-12.73c-.17-6.6,0-13.2-.44-19.8.28-2.43-.33-18.94-.33-18.94s7.48,8.43,7.64,14c.34,11.17,5.27,23.06,5.54,24,1.62,5.32.9,30,.9,30,1.49,5.91,2.87,11.41,4.69,18.62-2,8.29-14.77,18-19.85,16s-9.53-5.81-9.47-12.37c.06-5.57,9.94-15.74,10.52-20.52C430.42,441.79,432.84,430.62,432,426.21Zm-6.12-41.36c-1.08-.49-8-8.15-10.88-10.19-2.41-1.68-4.72-5.85-5.31-6.41.15-.2-.86-3.75,0-3.62,1.73.26,5.83,4.52,5.76,4.78a66.56,66.56,0,0,0,11.17,6.76C427.16,376.38,426.33,385,425.91,384.85Zm-8.85-22.3s3.49,3.74,4.85,4.84a24.82,24.82,0,0,1,4.29,3.05h0c1.07.27,1.57,3.77,1,4.21-1-1.46-6.19-3.45-7.16-4.91-1.25-.77-4.29-2.76-4.41-2.83-.51-.31-1.55-1.48-1.36-1.89S416.74,362.41,417.06,362.55ZM429,242.3l-11.45-2.5.33-2.42,11.61,2.43C429.31,240.64,429.14,241.47,429,242.3Zm9.14-2.26-13.06-7.8c0-.34.05-.68.08-1l9.06,1,5.28,6.94ZM443,223.42c3.8,1.23,11,6,13.56,9.05,2.47,2.92,7.68,7.55,9.45,10.92,4.14,7.89,6.13,20.49,6,29.81-.05,3.19-6.5-20.06-12.25-29S439.6,222.32,443,223.42Zm-.51,7.8c.95.89,5.88,4.13,9,8.62,4.39,6.32,7.11,14.3,6.75,14.66-2.42-1.94-12.65-15.87-15.06-17.82C443.92,235.89,441.71,232,442.47,231.22Zm11.51,47c-.49-1.4-.62-3.19-1.58-4.1-1.17-1.11-3-1.46-5.25-2.42,1.79-9.93.55-19.33-6.13-27.54C454.92,251.78,451.18,266.24,454,278.25Zm-14.5,16.89c-2.67,7.9-2.44,19.83-2.6,20-2.21,2.06-5.74-16.1-4-18.48l13.35-18.39,2.1,3.3A35.41,35.41,0,0,0,439.48,295.14Zm8-4.08a24,24,0,0,1,14.93-11.17,2.59,2.59,0,0,1,1.5.09l.28-.28c0,.12-.07.24-.1.35,2.12.91,2.59,4.49-.21,5.15a18.15,18.15,0,0,0-3.13,1.08,4,4,0,0,1-1,.46c-3.86,2-7.28,5.31-8.58,9.29-2.11,6.44.72,11.92,4.07,17.29a2.4,2.4,0,0,1,.07,2.56,7.24,7.24,0,0,1,.35.68l-3.76,2.53C441.71,310.44,440.25,300.05,447.5,291.06ZM456,317c4,2,13.38,12,13,12.75-4.05-2-8.78-3.33-12.17-5.88S455.55,317.79,456,317Zm3.23,19.38c-7.67-2.83-12-10.15-13-11.46.56-.34,11.08,6.88,11.64,6.55.91,1.38,11.4,2.19,12.35,3.62C469.48,335.46,466.86,339.2,459.19,336.38Zm8.73-15.27c0,.21-1-1-1-1a52.33,52.33,0,0,1-5.21-6,25.91,25.91,0,0,1-4.15-9l-.76.16c-.77-2.75-1.55-5.49-2.5-8.88l3.3-.3c1.56-1.27,4.58-.59,4.6,2A22,22,0,0,0,465,309h.21c0,.14,0,.28,0,.42a21.67,21.67,0,0,0,1.41,2.21c3,4,7,7.38,10.54,10.91C479.76,325,469.71,322.89,467.92,321.11Zm25.4,17.95c-1,1.67-2.05,3.27-3.13,4.88-.9,1.35-5.23,7-6.28,8.29-2.09,2.45-8.16,3.29-8.52,3.57a22.73,22.73,0,0,1-.28-2.52,2.56,2.56,0,0,1,0-1.26,3.24,3.24,0,0,1,.94-2.27,2.78,2.78,0,0,1,.5-.78c2.23-2.31,2.61-7,4.46-9.61a20.55,20.55,0,0,0,5.23-11.47c.9-6.66-1.9-7-2.5-7a61.35,61.35,0,0,1,7.93.51c1.68.81,1.36,4.4,1.64,6.1a13.65,13.65,0,0,1,1.2,3A11,11,0,0,1,493.32,339.06Z" transform="translate(-1.48)"/><path d="M94.37,189.72,96,190.8c2.94-1.71,14.32-14.38,14.32-14.38s-1.57-3.16-1.82-4C108.54,172.42,94.8,188.72,94.37,189.72Z" transform="translate(-1.48)"/></svg>