<svg width="400" height="400" data-name="Ebene 1" xmlns="http://www.w3.org/2000/svg" viewBox="0 0 497.05 498.93"><path d="M168.66 144.25v.1l-.35.17ZM138.52 132.88l-.23.24c0-.06-.05-.11-.07-.16ZM135.37 164.75a14 14 0 0 0-.86-1.44 7.54 7.54 0 0 1-1.43.06c-1.87-.16-3.08-3.54-4.82-4.16-.15 1.19-1.8 2-1.93 3-3.87-1.72-6.55-3.23-11.94-5.63 0 0-3.68 9.43 0 12.16s5.7 2.06 8.64 2.73c4.84-.88 9.36-2.77 12.34-6.72ZM300.36 345.72ZM415.23 214l1 .43.13-.51ZM436.14 306.93ZM413.46 324.05c.43 1.15.29.76 0 0ZM403.69 256.87c-.17.24-.41.49 0 0ZM18.23 20.65l-.27.42.45.06-.18-.48zM28.52 476.46c.61.4 1.23.81.22.14.35 1.07.13.39-.1-.3Z"/><path d="m28.66 476.3-.46.05c-.39-.16 0 0 .33.12ZM366.04 271.23c4.29 7.13 7.37 14.91 11 22.38a11.92 11.92 0 0 0 1.08-2.2c-.46-1-12.53-29.29-22.82-40.5l-9.16-7.2c4.42 6.15 14.89 18.57 18.23 24.39.63 1.02 1.15 2.08 1.67 3.13ZM360.95 273.48l-1.46.68c3.06 7.42 6 14.92 9.32 22.2.69 1.49 3.14 2.16 4.78 3.2l.24-.24c-4.47-8.52-7.85-17.63-12.88-25.84ZM349.86 298.83l8.75 18.27 1.92-.49c.15-2.49.3-5 .45-7.59l5.72-1.21v-5.6l-10.13-3.8ZM356.02 287.57l3.54 7.5 2.46-1.14-3.34-7.63ZM303.18 293.24c.67 2 1.33 4.06 2 6.08l-2.35.72-1.79-5.92ZM312.87 301.54l1.59-5.34c1.51 2.69 2.37 4.21 3.22 5.74l-1.16 1.12c-1.26-.56-2.51-1.12-3.77-1.7ZM323.08 318.22q-1.2-2.67-2.41-5.33l1.58-.87c1 1.7 2.09 3.4 3.14 5.09ZM325.84 296.16c-.62-1-1.24-1.91-1.85-2.87l1.31-.88 1.9 2.84ZM351.41 284a14.15 14.15 0 0 1-.28-2 2.17 2.17 0 0 1 1-.27 16.09 16.09 0 0 1 .81 1.91ZM333.77 286.43v-1.63l.66-.18c.2.58.4 1.16.61 1.74ZM339.38 294.3c0 .28-.05.56-.08.84.02-.28.05-.56.08-.84Z"/><path d="M252.82 450.4c.4-8.11 7-22.39-.67-48-1.16-3.88-.55-8.13-.8-12.21l1.89-.35-3.72-6.18c-.29-3.92-.53-7.18-.73-9.91 1-5.43 2-10.43 3-15.62l14.17-1.41c4.15-4.82 10.4-3.53 16.68-3.75 12.1-.41 24.17-1.93 36.26-2.94 3.07-.26 6.16-.34 7.9-.43 2.64 5 4.92 9.56 7.38 14 2.73 4.94 19.26 17.72 19.26 17.72s-4.42 9.86-7.77 14.06a84.54 84.54 0 0 0-6.65 8.82c-.29-.06-2.78 3.51-4.17 5.3a45.25 45.25 0 0 0 .56 5.35c-.77 8.89 3.49 17.35 8.05 25.06a4.11 4.11 0 0 0 1.48 1.48 81.06 81.06 0 0 0 4.4 8.15 30.09 30.09 0 0 0 14.3 14.46c10.49 5 18.45 1.81 18.45 1.81 2.16-1.61-7.19-35-7.19-35s-8.19.05-10.9 1.55c-.76-1.44-1.49-2.85-2.55-4.87-.13-.06-.27-.1-.4-.17a6.44 6.44 0 0 1-.94-.68 3.06 3.06 0 0 1-.36-.36 7.2 7.2 0 0 1-.69-.95 7.09 7.09 0 0 1-.54-1.33.76.76 0 0 0-.25.69c-1.45-1.52-3.31-6.49-1.78-10.07 2.22-5.19 11.81-13.85 20.24-23.52a139.2 139.2 0 0 0 12.52-17.22l-13.8-18.62 1-1.14 18.07 10.96c4.71 2.85 9.66 5.39 14.06 8.67 2.92 2.18 5.06 5.42 6.9 8.76 5.78 4.87 8.65 11.37 9.35 18.63a58.5 58.5 0 0 1-.31 9.86 53.29 53.29 0 0 1 1.51 16.08c.71 3.69-.06 12.29-.44 14-.47 2.06-15.07 17-15.07 24.7s13 18.43 22.67 18 25.93-16.77 25.72-18.21c-.71-5.05-8.16-22.31-8.16-22.31l-5.15-43.75c-1.07-12.92-.24-26-.24-39.48l-7.37-6-4.63-.44c-11.78-12.66-18.66-32-17.3-48.05-1-6.92 5.63-33.15 3.54-41.86-1.76-7.32-10-17.23-10-17.23.78-1.34 11.65 6.2 12.71 4.91 1.23 1.75 8.12.06 11.66 5.49 4.56 7 5.49 21.82 1.94 29-3.12 4.14-6.23 8.29-9.13 12.15 2.09 19.41 10.64 39.71 40.52 44.4 0 0 2.29.6 2.32.57.68-.62.55-5.59 4.15-8s4.62-.21 4.62-.21-3.16 3.26-6.6 10.56a85.71 85.71 0 0 0-3.46 9.3s-3.29 1.33-.85 5.15a15.76 15.76 0 0 0 5 5.19c1.21.46 4.83.24 7.84-1.37s-.6-.6-4.15-1.11-1.18-3.11-1.18-3.11c.33-1.3 8.36-2.8 8.93-3.79.91-1.58 1.78-3.19 2.75-4.73a22.29 22.29 0 0 1 5.41-6c.19-.35.36-.7.57-1 3.95-6.37 5.23-11.72 3.89-18.62a21.92 21.92 0 0 1-.31-3.78 25.3 25.3 0 0 0-4.39-4.94c-.58 0-2.68-.27-3-.28h-3.47c-.17 0-7.3-.15-7.86-.2a11.82 11.82 0 0 1-9.19-5.13 11.64 11.64 0 0 1-2.49-10.39 43.43 43.43 0 0 1 4-9.09l-.36-.52.35-.33a5 5 0 0 0 .63-.27c.75-1.33 1.53-2.66 2.32-4a11.87 11.87 0 0 1 1.36-1.89c-.51-5.27 1-9.76 3.85-12.09-.22-1-.44-2.05-.6-3.1-.14-.76-.25-1.52-.36-2.28 2.55-6.53 1-12.5-1.38-18.91a56.89 56.89 0 0 0-9.14-16.3 30.17 30.17 0 0 0-16.64-14.78c-2.6-1-5.63-.86-9-1.32l-8-4.53c-7.9-6.14-11.82-6.26-24.31.28-.42 3.66-6.43 2.62-7.07 8.25 8.74-7.44 22.47 1.81 31.14 3.82-.35-1.87 3.1 2.4 5.18 5.88-5.41-.78-15-4.81-24.36-7-5.19-1.23-13.76.93-14.42.56-1 2.7-1.53 2.59-2.69 5.69-5-3.18-19.35-10.83-23.64-12.27-14.6-4.88-32.44-2.57-45.79 5.22a31.38 31.38 0 0 1-21.89 4.19 246.79 246.79 0 0 1-26.54-6.75c-8.76-2.64-17.35-3.86-26 0-8 3.59-15.39 2.92-22.33-3.13 2.9-.95 17.28-1.8 17.52-3.34.29-1.87-14.19-4.85-17.93-11.15 0-2.68 15.44-4.46 14.94-6.19-1.13-3.93-19.64-6.29-26.53-9.23.67-1.77 11.85-3.91 12.85-6.54-4-4.45-18.6-8.61-22.72-13.18 1-1.51 11.73-4.24 13.05-6.21-1.47-1.12-12-1.57-13.1-1.63-7.43-.43-11.86-4.94-16.29-10.34-3.24-4-7.48-8.65-12-9.69-11.85-2.7-15.63-10.89-18.28-21-1.56-6-.69-13.19-7.38-17.44-8.34 4.19-10.77 12.29-13.85 20.2l-4.62 1.5s-1.58-2-1.73-9.37c-.29-13.25-9.59-16.44-9.59-16.44s-2.41 14-2.29 16.26 3.56 4.92 3.45 7C89.99 84.26 13.02 3 .06 0c-.48 1.65 2.05 6.3 2.63 6.58l30.75 39.21-1.43 1.12c1.69 1.44 3.5 2.78 5 4.36 9.72 9.93 19.35 19.95 29.1 29.85 1.55 1.56 3.84 2.43 5.27 4.07 8.44 9.59 16.67 19.35 25.1 28.94 1.06 1.2 2.86 1.76 4.35 2.59l7.69 18.28-12.23 17.84c.76 2.48-11.28 20.68-19.19 28.58s-11.58 18.35-10.45 21.64 6.27 12.5 8.2 12.41 7.94.64 10.12-.63l3.17 5.16c8.24 5.79 14.42.14 20.62-4.07 0 0 13.3.59 17.41.52s13.53-4.69 22.09-7.66c1.45 9.35 2.66 17.47 4 25.57s2.66 16 4.12 24c.55 3 2.06 6 2.08 9 .14 18.47 5 35.44 15.23 50.44-3.32 15 13.62 21.22 14 35.56L180.2 365l1.68 5.44c-4.1 10.1-8.31 20.46-12.27 30.23 3.82 7.76 12 20.55 16.71 32.51 2.64 6.68 3.11 15.92 3.83 17.09-.17.55-1.59 5.27 1 9.42 3.65 5.91 12.12 12.15 15.91 16.24.44-1.06.9-2.14 1.35-3.2 1.75-.09 4.36-7.72 4.63-10.11 0-.08 0-.17.05-.3a6.32 6.32 0 0 1 .24-.85 39.58 39.58 0 0 0 1.18-5.6c0-.24.39-2.39.54-3.3s.46-1.83.68-2.74a20.74 20.74 0 0 0 .43-8.15 3 3 0 0 0-.27-.81 37.68 37.68 0 0 0-3.28-15.23c-2 .41-4.05.78-6.08 1.05-5.74.74-7.54-4.08-8.25-8.63-.43-2.74.36-5.68.61-8.53l-1-.11c.44-4.65 0-9.63 1.56-13.86s5.13-7.38 7.94-11.19l8-2.16c4.4 8.16 9.07 16.18 11.39 25.28a62 62 0 0 1 8.85 19c-.75-4.16-1.46-8.33-2-12.52-1.66-13.39-8.07-24.83-13.7-36.68-4.26-9-8.16-18.19-7.52-28.88h-12.3l-1.82 4.37c-4.78.42-20-30.33-19.36-39.07l8.72 7 2-1c-.88-2.91-1.76-5.81-2.63-8.72-.08-.09-.16-.17-.23-.26q-.67-.79-1.29-1.68l-3.7-2.48-6 1.77-1.78-3.34c1.49-1.3 2.9-2.54 5.64-4.92l-9.79-5.77-4.51-7.63 6.09 1.28 1-1.47-7.84-5.76c.32-1.29.8-3.26 1.42-5.79l7.77 3.31c-.06-5-.06-5-10-9.38v-5.09l8.37 1 .9-1.93-13.49-10.14.95-1.57-6.06-41 9.84-14.8c-.78-.29-1.87-.57-2.77-.85a27.36 27.36 0 0 1-2.89 1.19 35.66 35.66 0 0 1-3.13 2.22c-4.12 2.69-9.2 4.85-14.22 4.68a3 3 0 0 1-1.47-.51c-3.57 1.34-7.8 6.68-11.17 6.77-7 .39-19.31-6-20-2.49-2.23-2.45-15.88 1.33-17.74.86-2.66-.67-.19-6.22-6.85-10-3.55-2-6.59 2.16-9 2.81-4.65-9.65 7.52-13.18 10.29-19.58 2.93-6.76 10-11.73 15.51-17.75.24-3.17-2-6 .76-10.1s13.23-15.73 21.65-18.54c10-3.34 18.51 5.22 20.4 2.62 3.55 1.93 8.81 6 16.44 7.83 5.72 1.37 14 .45 17 2.08-2.21.39-17 3.78-18.86 2.84-4.1-2.07-8.24-8.64-13.42-6.27 2.46 2.84 3.93 13.17 5.54 14.83a49.73 49.73 0 0 0 11.14 8.65l5.17 2.45c2 .79 9.75 2.7 11.83 3.16-1.13.31-10.74-.69-11.58-.88l-6.42-1.51-5.83-2.59-6.43-5.44c-1.83 6.22 10.06 11.9 12.79 12.7s6.27 2.74 9.45 4a3.07 3.07 0 0 1 1.94 2.11c4.19.31 8.4.32 12.61.29 1.29-.69 20.09-.93 20.09-2.53 0-1.09-13.87-5.74-14.64-6.52-1.45-.52-16.14-4.67-16.14-4.67s13.45-2.64 18.17-.75c2 .82 25 11.23 26.2 12.17-.87.66-1.07 3.28-7.13 4.05-8.49 1.08-28.79 2-28.79 2s4.33 2.28 10.09 5.12c3.07 1.5 14.48 2.56 14.79 2.67 4.23.63 21.35 1.42 21 2.73-.44 1.54-38.74.56-32.63 3.27s14.73.26 26.36 4c8.51 2.72 14.92 9.08 14.85 9.53-.14 1.06-5.24.95-14-3.15s-11.7.64-16.1-1c0 0 12.65 9.23 17.63 15.34s3.36 20.44 3.36 20.44c.34-.11 2-6.46 2.5-10l6.86 5 1.59-1c-.43-3.31-.85-6.62-1.47-11.46 4.15 4.87 7.37 8.67 10.6 12.47l2-.54-2.18-9.61c4.3-.16 5.32 1.12 10.84 12.35 2.57 5.22 5.5 10.26 7.29 16l7.56 10c3.33-6.63-.41-10.56-2.57-14.53-4.92-9-10.24-17.84-14.15-27.52 12.18 8.14 18.43 20.14 22.61 34.28l6.89 5.57 1-.61q-8.35-18.15-16.7-36.28l1-.79 8.83 8 1.48-1-2.91-7.92a16.63 16.63 0 0 1 9.9 16.55l-6.63-4.15c-1.73 3.32 5.07 14.51 13.63 22.82l1.8-.55-6.41-18.4c7.21-.24 5.51 6.67 9.88 9.41l7.71 3.07-11.48-16.91 2.21-2c9.15.52 11 10.28 16.29 15.66l2.1-1q-2.06-7-4.09-14l2-1.71 7.38 10.54 2.46-1.75c-2.33-4.32-4.67-8.64-7.28-13.45l6-2.78 8.74 12.24 1.95-.69c-1.42-4.85-2.83-9.7-4.58-15.69 1.11-.89 8.47-3.1 10.52-4.73 5.09 3 9.14 10.31 9 11.6l-12.85-6.46-.54 1c1.14 1.53 33 14.63 42.67 27.93a285.77 285.77 0 0 1 25.58 42.45c8.12 16.07 6 34.31 6.41 39.13s.54 9.26.76 10.88-4.5-5.68-11.19-13.35a120.57 120.57 0 0 0-13-12.82c4.33 17.13 18.5 27.62 26.28 41.83l-2.86 2c-3.37-4.32-7.06-8.42-10-13-5.44-8.4-10.4-17.12-15.7-25.62a7.66 7.66 0 0 0-4.65-3.07c2.31 17.43 15.88 28.31 24.51 42-15-10.33-25.68-24-33.42-40.07-.8-1.67-2.66-2.84-5.09-3.39 3.48 13.21 11.49 23.51 19.17 34.11a52.74 52.74 0 0 1-23.24-30c-7.74.15-9.67-4.82-11.07-11.07-1.06-4.71-3.58-9.09-5.44-13.62l-2.3.5-1.84 9.79-1.47.37q-2.6-5.36-5.21-10.71l-2.1-.53c-1 2.87-2 5.73-3.33 9.5l-4.72-6.32-6.43.43 11.12 19.65-6.92 4.35c-3.67-8.42-7.16-16.43-10.64-24.44-1.31.72-2.62 1.44-4.55 2.48l5.78 11.33-3.31 2.69-4-7.12-1.43.22v12.76c-2.11-4.07-3.43-6.63-4.11-7.93v-11.22l-5-.39a50.78 50.78 0 0 1-2.12 10.67c-1.43 4.82-2.44 9.82-4.87 14.28a24.76 24.76 0 0 1-5.42 6.85l-.08.32-.25-.06a19.81 19.81 0 0 1-5 3.06 23.69 23.69 0 0 1-7.48 3 2.72 2.72 0 0 1-1.3.36h-.56a23.74 23.74 0 0 1-9.81-.4c-.22-.06-.4-.15-.61-.22a95.8 95.8 0 0 1-25.56-7.24l5.63 7.09a36.55 36.55 0 0 1 6.05 2.91c.72.41 1.44.81 2.17 1.19.37.19.74.38 1.12.55l.32.15.28.12a16.57 16.57 0 0 0 2.27.71c.21 0 .41.09.62.12h.23c.42 0 .84.06 1.26.06a2.81 2.81 0 0 1 2.75 2.76 2.77 2.77 0 0 1-2.75 2.75 20.79 20.79 0 0 1-9.63-2.92v.2c-1.16 3.08-3.55 4.74-5.52 7.23a7.71 7.71 0 0 0-1.46 3.79v.08c-.22 1.62-.19 3.31-.33 4.87-.24 2.62-.57 5.23-.69 7.85l2.8 4.92c-.13 11.08.49 20.28 7.09 25.41-.67 3.56-1.59 5.81-1.36 7.95.25 2.32 1 5 2.51 6.7 4.3 4.71 3.44 9.72 2.56 15.31-1.11 6.94.59 11.6.12 18.56 0 0 1.08 16.86 6 22.12s2.41 14.65.94 16.51-18.43 3.22-23 .77-3.85-8.84.16-14.27 6.24-10.49 7.24-19.49c.5-4.3-1.42-11.17-2.07-15.5-.12-.81-.27-1.62-.4-2.44.12 1.91.18 3.8.13 5.65-.12 4.06-1 14.47-3.67 22.49-.93 2.81-5.35 6.12-6.23 8.6-1.76 4.93-.68 2.59-1.79 7.41s-2.31 8.92-1.22 11.81c.67 1.77 6.18 1.95 6.18 1.95H259s5.51-4.51 6.08-10.09a25.24 25.24 0 0 0-3.18-15.6c-4.38-7.58-9.48-14.78-9.08-22.88Zm166.77-235.55c5.05-1.56 9.55-1.68 11.8 3.66ZM209.05 377.2c-.45.11-7.28 6.44-12.44 16.9-2.42 4.9-5.74 16.65-5.56 18.24.74 4 1 9 2.69 13.42s4.73 8.41 7.32 12.82l8.2-1.09a26.66 26.66 0 0 1 1.26 12.71c-1.29 7.16-5.88 14.13-5.9 14.75 0 .34 0 .68-.07 1-10.93-7.86-11.54-11.79-12.79-26.88-.66-8-4.75-16-8.2-23.54-3.84-8.43-8.39-16.56-4.13-26 2.32-5.15 10.73-22.32 13.78-27.84.98 1.36 14.79 14.05 15.84 15.51Zm-113-168.36c3.87 0 12.07 2.37 12.85 3.16-1.72 1.29-9.72 6.5-13.75 5.28a8.52 8.52 0 0 1-5.33-4.12c1.49-1.39 2.34-4.32 6.21-4.32Zm-21.19-5.56c1.73-.26 3.42-.74 5.18-.84a6 6 0 0 1 5.62 2.42 5 5 0 0 1 .64 3.69 4.08 4.08 0 0 1-2 2.61c-1.67.93-2.19.46-4 .1-.65-.13-3.56 1-4.17.71s-3.42-1.78-4.1-3.59c-.62-1.66 1-3.55 1.13-3.84a2.75 2.75 0 0 1 1.68-1.26ZM33.01 40.15l-2.23-3.87 1.6-1 2.32 3.83Zm11.56 12-8.45-8c.68-.71 1.37-1.42 2-2.14l8 8.5Zm9.57 10.51-5.21-4.4c.19-.82.39-1.65.59-2.47 1.68.26 3.92 0 4.91.92s1.09 3.29 1.5 5.03ZM71.2 80q-4.74-5.65-9.46-11.32l2.46-2 9.32 11.51Zm14.42 14.09L75.61 85l2.4-2.46 10.09 9.07Zm15.32 22.55c-2.06-3.73-4.2-7.42-6.14-11.21a30.85 30.85 0 0 1-3.37-9.77c9.17 1.19 6.58 9.82 11.21 14.6l3-.5c1.36 3 2.75 6 4.41 9.67Zm54.45 12.53c-2.35 2.81-6.52 1.56-8.77-.67a6.78 6.78 0 0 1-2.1-4.5 8.77 8.77 0 0 1 1.29-4.27c.67-1.21 1.5-2.33 2.28-3.47.39-.58.77-1.16 1.11-1.77 0-.06.21-.33.33-.56a1.31 1.31 0 0 1 0-.14c.05-.16.11-.32.16-.49a3.24 3.24 0 0 1 .17-.32v-1.63a2.76 2.76 0 0 1 5.51 0c0 2.17-.18 4.33-.12 6.5 0 .74.13 1.48.14 2.22a2.56 2.56 0 0 1 0 .27l.18.92c.58 2.51 1.68 5.68-.18 7.91Zm8.4 34c-2.05-1.17-10.27-10.17-11.84-11.48.79-.33 11.57 5.75 16.39 5.75s17.54-.24 22.12 2.74c-1.46-.29-25.7 3.51-26.67 2.97Zm18.89-10.22c-6.35-.81-15.71.29-16.09-.4.91.64 9.85-3.52 16.35-4.22 3.47-.37 11.64 7.71 12.13 8-.31.32-4.93-2.46-12.39-3.4Zm224.57 135.79c0 2-11-24.49-26.64-42.6-12.42-14.39-30.25-20.8-30.29-22.79s4.56-2 5-1.94c6.74 1.25 22.16 5.78 27.67 9.81 2.81 2.06 16 15 17.5 17.2 2 3.07 6.57 10.27 7.81 13.73 1.63 4.55-.99 21.73-1.05 26.59Zm-122.49 59.73-1.64-1.47q2.67-4.37 5.33-8.73l1.87.46c.5 2.46 1 4.92 1.66 8.12Zm12.92-7c-5.43-6.43-3.65-12.39-1.8-18.35l2.17-.62c1.21 4.12 2.42 8.24 3.78 12.89-1.16 1.7-2.46 3.61-4.15 6.07Zm10.21-.68v-7.64l2.63-.15.39 7.63Zm3.49-19.68 6.29 1.29.79 1.93c-1.52 1-3 2-5.5 3.57-.55-2.36-.91-3.9-1.58-6.8Zm8.14 19.2-1.79-.1q.6-3.73 1.22-7.47h.57Zm37.92-10.56 3.88 1.89-1.29 2.08-3.51-2.13Zm-8.68-3-6.7-12.51c6.8 1.65 8.81 4.86 6.7 12.52Zm1.86 3c-.22.71-.44 1.43-.65 2.15l-1.2-.39.75-2.12Zm-24.65 11.94c1.56-4.81 3-9.36 4.51-13.91 4.74 5.93 3.9 8.71-4.51 13.89Zm7.87-23.4c-.76-1.13.07-3.33.19-5.06l2.31.07c1.14 2.27 2.28 4.55 3.43 6.82l-.95 1.38c-1.72-1.05-3.97-1.72-4.98-3.23Zm5.1 20.84c.5-5.09.85-8.57 1.32-13.3 4.75 6.31 4.64 8.26-1.32 13.28Zm33 100.6c.39 2.5 2.34 18.87 2.73 21.37 0 0-21.52-10.53-19.57-16s13.07-4.41 16.88-5.39ZM376.2 362c.31.56.66 1.1 1 1.66a11.54 11.54 0 0 1 4.68 7.95c1 .88 2 1.73 2.82 2.49-.48.54-24.41 31.28-26.79 33.35-3.22 5.12-10.14 14-11.47 20.53-2.71-5.85-7-12.56-3.93-18.89 1.88-3.91 19.25-27.48 20.4-28.88a23.38 23.38 0 0 1-3.26-3.5 52.7 52.7 0 0 1-5.6-4.95c-3.09-3.33-5.29-7.12-7.84-10.83-1.73-2.51-4.85-5.59-4.58-8.88a4.86 4.86 0 0 1 2.89-4.05l.22-.08.46-.43.16.2a10.62 10.62 0 0 0 3-1.15 2.08 2.08 0 0 1 .42-.26 11.2 11.2 0 0 1 15.09.4 86.59 86.59 0 0 1 9.4 10.57 46 46 0 0 1 2.93 4.75Zm66.1 22.9c-.18 3.91-.23 7.85-.24 11.78a28.81 28.81 0 0 0 .46 4.32c.1.49 0 6.13 0 6.32 0 1.29-2.5-8.94-2.49-11.08-.1-3.24-.84-5.29-.94-8.55-.07-2.59-.22-8.13-.31-13.16s-.76-11.69 1.17-12 2.57 17.16 2.35 22.4Zm-11.78 41.31a82 82 0 0 1-1.12-12.73c-.17-6.6 0-13.2-.44-19.8.28-2.43-.33-18.94-.33-18.94s7.48 8.43 7.64 14c.34 11.17 5.27 23.06 5.54 24 1.62 5.32.9 30 .9 30 1.49 5.91 2.87 11.41 4.69 18.62-2 8.29-14.77 18-19.85 16s-9.53-5.81-9.47-12.37c.06-5.57 9.94-15.74 10.52-20.52.34-2.68 2.76-13.85 1.92-18.26Zm-6.12-41.36c-1.08-.49-8-8.15-10.88-10.19-2.41-1.68-4.72-5.85-5.31-6.41.15-.2-.86-3.75 0-3.62 1.73.26 5.83 4.52 5.76 4.78a66.56 66.56 0 0 0 11.17 6.76c.54.21-.29 8.83-.71 8.68Zm-8.85-22.3s3.49 3.74 4.85 4.84a24.82 24.82 0 0 1 4.29 3.05c1.07.27 1.57 3.77 1 4.21-1-1.46-6.19-3.45-7.16-4.91-1.25-.77-4.29-2.76-4.41-2.83-.51-.31-1.55-1.48-1.36-1.89s2.5-2.61 2.82-2.47Zm11.97-120.25-11.45-2.5.33-2.42 11.61 2.43c-.18.83-.35 1.66-.49 2.49Zm9.14-2.26-13.06-7.8c0-.34.05-.68.08-1l9.06 1 5.28 6.94Zm4.86-16.62c3.8 1.23 11 6 13.56 9.05 2.47 2.92 7.68 7.55 9.45 10.92 4.14 7.89 6.13 20.49 6 29.81-.05 3.19-6.5-20.06-12.25-29s-20.16-21.88-16.76-20.78Zm-.51 7.8c.95.89 5.88 4.13 9 8.62 4.39 6.32 7.11 14.3 6.75 14.66-2.42-1.94-12.65-15.87-15.06-17.82.74-.79-1.47-4.68-.71-5.46Zm11.51 47c-.49-1.4-.62-3.19-1.58-4.1-1.17-1.11-3-1.46-5.25-2.42 1.79-9.93.55-19.33-6.13-27.54 13.88 7.62 10.14 22.08 12.96 34.09Zm-14.5 16.89c-2.67 7.9-2.44 19.83-2.6 20-2.21 2.06-5.74-16.1-4-18.48l13.35-18.39 2.1 3.3a35.41 35.41 0 0 0-8.87 13.6Zm8-4.08a24 24 0 0 1 14.93-11.17 2.59 2.59 0 0 1 1.5.09l.28-.28c0 .12-.07.24-.1.35 2.12.91 2.59 4.49-.21 5.15a18.15 18.15 0 0 0-3.13 1.08 4 4 0 0 1-1 .46c-3.86 2-7.28 5.31-8.58 9.29-2.11 6.44.72 11.92 4.07 17.29a2.4 2.4 0 0 1 .07 2.56 7.24 7.24 0 0 1 .35.68l-3.76 2.53c-10.21-8.62-11.67-19.01-4.42-28Zm8.5 25.97c4 2 13.38 12 13 12.75-4.05-2-8.78-3.33-12.17-5.88s-1.28-6.08-.83-6.87Zm3.23 19.38c-7.67-2.83-12-10.15-13-11.46.56-.34 11.08 6.88 11.64 6.55.91 1.38 11.4 2.19 12.35 3.62-.74.37-3.36 4.11-11.03 1.29Zm8.73-15.27c0 .21-1-1-1-1a52.33 52.33 0 0 1-5.21-6 25.91 25.91 0 0 1-4.15-9l-.76.16c-.77-2.75-1.55-5.49-2.5-8.88l3.3-.3c1.56-1.27 4.58-.59 4.6 2a22 22 0 0 0 2.76 10.91h.21v.42a21.67 21.67 0 0 0 1.41 2.21c3 4 7 7.38 10.54 10.91 2.6 2.46-7.45.35-9.24-1.43Zm25.4 17.95c-1 1.67-2.05 3.27-3.13 4.88-.9 1.35-5.23 7-6.28 8.29-2.09 2.45-8.16 3.29-8.52 3.57a22.73 22.73 0 0 1-.28-2.52 2.56 2.56 0 0 1 0-1.26 3.24 3.24 0 0 1 .94-2.27 2.78 2.78 0 0 1 .5-.78c2.23-2.31 2.61-7 4.46-9.61a20.55 20.55 0 0 0 5.23-11.47c.9-6.66-1.9-7-2.5-7a61.35 61.35 0 0 1 7.93.51c1.68.81 1.36 4.4 1.64 6.1a13.65 13.65 0 0 1 1.2 3 11 11 0 0 1-1.23 8.56Z"/><path d="m92.89 189.72 1.63 1.08c2.94-1.71 14.32-14.38 14.32-14.38s-1.57-3.16-1.82-4c.04 0-13.7 16.3-14.13 17.3Z"/></svg>