<svg id="Ebene_2" data-name="Ebene 2" xmlns="http://www.w3.org/2000/svg" viewBox="0 0 500 500"><defs><style>.cls-1{fill:#83bd9b;}.cls-2{fill:#487999;}</style></defs><path class="cls-1" d="M469.27,342.06a237.83,237.83,0,0,0,0-184.12V31.46H342.79a237.83,237.83,0,0,0-184.12,0H32.19V157.94a237.83,237.83,0,0,0,0,184.12V468.54H158.67a237.83,237.83,0,0,0,184.12,0H469.27Z" transform="translate(-0.73)"/><path class="cls-2" d="M.73,0V500h500V0ZM469.27,342.06V468.54H342.79a237.83,237.83,0,0,1-184.12,0H32.19V342.06a237.83,237.83,0,0,1,0-184.12V31.46H158.67a237.83,237.83,0,0,1,184.12,0H469.27V157.94a237.83,237.83,0,0,1,0,184.12Z" transform="translate(-0.73)"/><path class="cls-2" d="M446.51,150.24V66.44h-83.8a219.26,219.26,0,0,0-213.82,0H65.09v83.8a219.26,219.26,0,0,0,0,213.82v83.8h83.8a219.26,219.26,0,0,0,213.82,0h83.8v-83.8a219.26,219.26,0,0,0,0-213.82ZM65.09,348.46a211.28,211.28,0,0,1,0-182.62ZM439.43,73.52v65a220.94,220.94,0,0,0-65-65ZM255.8,45.69a210.11,210.11,0,0,1,91.31,20.75H164.5A210.07,210.07,0,0,1,255.8,45.69Zm-2.28,31.44c3.87,1,6.15,3.69,8.26,6.21,6.13,7.3,62.36,93.07,38.19,125.58-11.69,15.73-26.1,63.19-30.61,67s-19.88,1.29-27.48,1-8.32-13.51-10.17-19.16c-.88-2.7-15.87-16.37-33.39-58.48C182.38,161,238.88,94.26,241.39,91.13c3.44-4.27,7-8.5,10.49-12.73A9.82,9.82,0,0,1,253.52,77.13ZM72.18,73.52h65a220.94,220.94,0,0,0-65,65Zm78.85,0H250.4a24.3,24.3,0,0,0-1.91,1.58c-.21.19-.4.4-.6.6-7.65,7.55-15.4,15-22.91,22.67-4.65,4.73-9.21,9.58-13.32,14.69-5.15,6.4-9.91,13.07-14.62,19.74-4.16,5.89-8.29,11.8-11.92,17.95s-6.63,12.3-9.64,18.58c-3.66,7.63-7.09,15.35-10.49,23.07-1.31,3-.66,4.35,2.18,6.18a49.89,49.89,0,0,1,5.41,3.61c4.34,3.71,8.7,7.41,12.72,11.38,4.92,4.86,9.81,9.8,14.18,15.05,4.81,5.8,9.06,12,13.47,18A112.78,112.78,0,0,1,220,256.93c3.68,6.44,7,13,10.47,19.58l5.18,9c1.58,2.73,8.17,1.17,13.32,1.75s24.8-1.75,24.8-1.75l7-15.93c4.69-10.44,9.83-20.68,16.44-30.29,2.75-4,5.27-8.12,8.31-11.92a102.83,102.83,0,0,1,8.51-8.86c5.05-4.95,10.07-9.94,15.33-14.71,2.72-2.47,6-4.49,8.92-6.76,1.6-1.22,2.42-2.71,1.59-4.66-2.07-4.88-3.84-9.87-6.18-14.64-4.38-9-9-17.84-13.67-26.67-3.08-5.79-6.17-11.62-9.84-17.13-5.05-7.58-9.63-15.44-15.95-22.34-6.09-6.66-11.44-13.85-17.7-20.36-5.45-5.68-11.75-10.72-17.61-16.1a21.05,21.05,0,0,0-1.9-1.59h103.6a213.09,213.09,0,0,1,78.85,78.86V265c-.42-1.2-.9-2.4-1.44-3.59-4.43-9.67-9.91-18.69-19.49-25.2-3.33-2.26-7-4.2-9.91-6.84-6.58-6-15.11-8-23.8-9.49-5.45-1-11-1.27-16.58-1.77a43.09,43.09,0,0,0-4.82.05c-8.57.16-16.5,3-24.69,4.72a11,11,0,0,0-2.81,1.16c-5.64,3-11.26,6.05-16.9,9.07-.06,0-.24-.08-.89-.34,2.89-2.28,5.37-4.81,8.42-6.52,6.69-3.77,13.41-7.55,21.34-9.15,5.5-1.11,10.89-2.66,16.36-3.9,3-.69,6.09-1.26,9.17-1.69,4.86-.68,9.76-1.73,14.63-1.65,7.17.12,14.42.65,21.21,3.09,2.62.95,5.35,1.79,7,4.16,1.52,2.18,1.35,4.51-1.08,5.84-1.37.75-2.84,1.26-2.52,2.87a9.51,9.51,0,0,0,1.59,4,7.29,7.29,0,0,0,7.06,2.76c4.06-.58,7.13-2.68,8.17-6.16A11.89,11.89,0,0,0,427,214.64a26.28,26.28,0,0,0-12.9-7.77,80.2,80.2,0,0,0-19.5-3.06c-8.43-.26-16.85-.53-25.14,1.47s-16.87,3.71-24.87,6.84c-3.3,1.29-7,1.95-10,3.63A131.18,131.18,0,0,0,318.48,226a84.09,84.09,0,0,0-15.93,16.23c-4.66,6.24-9.41,12.42-13.83,18.79-5.55,8-11.43,22.14-12.28,25.72s-11.17,2-14.29,2.8-27.52-.39-27.52-.39c-2.74-.26-2.94-2.09-3.41-3.49a93,93,0,0,0-12.82-24.18c-5.83-8.18-10.32-17.3-18.56-24a18,18,0,0,1-2.05-2.14c-6.3-7.18-14.63-12.24-23-17.23a92.43,92.43,0,0,0-18.09-7.92,108.28,108.28,0,0,0-22.19-5.12,145.07,145.07,0,0,0-29.32-.24c-7.17.63-14.28,1.64-20.31,5.62-3.49,2.31-7.33,4.34-8.36,8.59-1.71,7.1.78,10.81,6.79,12.56,3.66,1.06,6.84-.42,9.8-1.92,2-1,2.11-3.28.53-4.91a29.86,29.86,0,0,0-3.41-2.62c-1.93-1.47-2.16-3.07-.55-4.81A14.41,14.41,0,0,1,95.52,213a46.67,46.67,0,0,1,15.33-2.66c3.9,0,7.81.23,11.7.5,14.69,1,29.36,2.16,43,7.69a89.65,89.65,0,0,1,21.61,12.2,5.75,5.75,0,0,1,1.07,1.68c-8.11-3.69-15.75-7.68-24.38-9.82-2.89-.71-5.63-2.09-8.54-2.47-4.89-.65-9.87-.79-14.81-1-3.45-.18-7-.66-10.33-.16a178.67,178.67,0,0,0-18.38,3.76c-6,1.54-11.11,4.57-16.15,7.75-5.23,3.29-9.81,7.08-12.85,12.16-.92,1.53-1.65,3.15-2.43,4.75-2.58,5.29-5.72,10.43-7.57,15.92-.23.69-.44,1.39-.65,2.09v-113A213,213,0,0,1,151,73.52ZM404,283.61c-.37-6-9.21-22.45-23.41-32.44-15-10.52-35.22-16-38.12-15.93-6.28.16,7.71-9.15,35.07-5.88,11.95,1.43,39.22,18.85,42.55,24.75s4.54,12.1,5.46,18.22c1.4,9.25,1.33,18.75-3.11,27.67-2.06,4.14-5.35,7.4-8.9,10.55-6.55,5.81-34.73,6.29-30.87,2.92C383.82,312.42,405.49,308.74,404,283.61Zm-152.32,143S235.4,410.35,233,406s-.24-8.16.26-9.66,11.1-16.34,12.56-15.56l7.48,6c3.92.24,7.81-5,7.92-4.87,1.05,1.57,9.19,8.84,11.83,11.75s3,7.3,2.59,11.58c-.55,6.1-13.06,17.12-18.22,21.14C254.67,428.55,254.54,428.36,251.63,426.6Zm-1.95-106.89c-.1-1,8.56-2.73,8.65,0,.25,8.31.29,26.84,0,35.14-.14,4-7.6,3.34-8.91-15.57C248.94,332.48,250.31,326.34,249.68,319.71Zm-16.78-7.64c-3.45,0-7.73-5.49-7.81-6.75-.09-1.59-1.63-10.43,2.52-10.59,5.37-.2,37.3-1.12,46.53-.91.62,0,7.82,1.42,7.3,5.47-.77,5.93-.36,9.88-3.83,11.32S239.78,312.11,232.9,312.07Zm-120.28-2.78c3.36,4.72,7.1,9.71,13.64,11.9,1.63.54-21.23-2.25-29.35-9.66-1.46-1.33-3.06-2.55-4.55-3.87-4.39-3.87-6.56-8.9-8.86-13.83a15.91,15.91,0,0,1-1-5.09c-.36-3.45-.67-6.91-.81-10.37-.24-6.11,1.69-12,3.34-17.77.47-1.62,16.38-23.75,39.1-29.13,24.92-5.89,43.63,2.33,43.41,3.41-.27,1.29-9.39.2-27.17,4.24-10.3,2.33-19.07,12.33-21.22,14.39a46.65,46.65,0,0,0-12.41,18.88,43.12,43.12,0,0,0-2,10.58C104,292.49,107,301.4,112.62,309.29ZM72.18,440.77v-65a220.94,220.94,0,0,0,65,65Zm0-78.85V296.19A50.41,50.41,0,0,0,78,308.27a45.9,45.9,0,0,0,22.12,18.3c2,.81,4,1.93,6.19,2.27a79.6,79.6,0,0,0,11.65,1c8.57.05,17.19.21,25.23-3.21a9.38,9.38,0,0,1,2.16-.14c3.84-.48,7.88-.47,11.47-1.59a41,41,0,0,0,16.1-9.22,23.05,23.05,0,0,0,6.53-9.88c3.77-12.1-3.56-23.38-17-27.09a21.32,21.32,0,0,0-11.5-.28c-1.46.39-3.74.27-3.86,2.19s1.92,2.05,3.46,2.61c4,1.48,7,4.4,5.82,8-1.49,4.57.3,6.93,4.26,9a5.92,5.92,0,0,1,1.11.69c2.73,2.32,2.88,4.3.81,7.12-2.6,3.56-6.77,4.82-11,5.81a19.75,19.75,0,0,1-6.6,0c-1.88-.22-3.23-1.51-4.74-2.5-1.27-.83-3.88-.75-5.53-1.88-1.43-1-2.64-2.2-4.05-3.2-6.14-4.34-9-10.41-10.44-16.91-.86-3.89-.45-8-.2-12.06a13.52,13.52,0,0,1,1.89-6.15,158.67,158.67,0,0,1,9.74-13.91c7.74-9.78,19.06-13.94,31.93-15.31,9.14-1,17.5,2.11,25.84,4.67a17,17,0,0,1,7,4.95,179,179,0,0,1,11.39,13.94,75.56,75.56,0,0,1,11.78,22c.58,1.82,1.61,3.47-1.26,4.5-.39.14-.4,1.22-.49,1.87-.19,1.33-.31,2.67-.46,4-.76,6.82,2.41,12.39,7.76,16.78,2.16,1.78,3.06,3.49,3.11,5.77a35.93,35.93,0,0,1-5.41,19.28C218.2,347.59,211,353.28,202.06,357a29.79,29.79,0,0,1-15.36,2.46c-4.9-.64-10.1-4.06-9.7-9.41.13-1.74.2-3.48.34-5.22.29-3.88-2.56-6.47-6.85-6.19A8.24,8.24,0,0,0,164,343.5c-1.31,3.82-.3,7.37,1.9,11.09-1.44,0-2.47-.06-3.5,0-10.68.64-16.53,8.59-11.67,17.72,3.45,6.5,10.25,9.15,17.54,10.73,3.85.84,7.91.94,12.08,1.4a7.32,7.32,0,0,1-.62,2c-3.11,4.61-3.82,9.86-5.18,14.93-.6,2.22.39,3,2.84,2.35a26.85,26.85,0,0,1,3-1c7.8-1.17,12.28-5.79,15.59-11.68.41-.73,1-1.4,1.77-2.58.69,2.58,1.21,4.46,1.73,6.4a6.64,6.64,0,0,0,1.76-.46c6.34-4.92,12.52-9.84,16.3-16.88a52,52,0,0,0,5.64-18.91,16.67,16.67,0,0,1,2.51-7.16c6-9.56,10.59-19.49,10.26-30.77-.12-3.93.55-4.15,4.94-4.42,2.41-.15,3.33.78,3.67,2.59a33.09,33.09,0,0,1,.91,5.95c0,6-1.89,42.87-7,50.49s-15.81,18.56-15.81,18.56c-3.88,3.62-3.7,5-1.26,10.05,4,8.18,8.72,15.95,15.2,22.73,4.67,4.89,9.76,9.47,14.88,14l.15.12H151A212.91,212.91,0,0,1,72.18,361.92Zm97.95,14.74c-6-.54-13.69-4-10.22-12.4s15.87.36,25.18,2.55,16.06-4.38,25.55-4-.9,20.35-8.15,26.84c-1.33-2.34-1-7.06-4-7s-4.2,3.11-5.42,4.94c-2.32,3.49-6.35,8.48-9.45,7.73s1.92-10.57,4.2-14.26C188.46,380,176.15,377.21,170.13,376.66Zm85.67,91.95a210.21,210.21,0,0,1-91.3-20.75H347.11A210.25,210.25,0,0,1,255.8,468.61Zm183.63-27.84h-65a220.94,220.94,0,0,0,65-65Zm-78.86,0h-103c3.84-2.94,7.85-5.83,11-9.3,7.29-8,11.45-17.54,15.08-27.19,2.32-6.15,1.93-6.21-2.86-11.31a118.12,118.12,0,0,1-8.89-10.05,53.33,53.33,0,0,1-5.56-10.06c-2.6-6.09-1.48-14-2.95-23.93s-1-29.82-1-29.82a3.13,3.13,0,0,1,3.41-3.12c3.2,0,3.67.05,4.85,2.52a13.14,13.14,0,0,1,.86,2.29c1.28,4.8,2.41,9.63,3.81,14.41s2.37,9.9,5.11,14.53A38.34,38.34,0,0,1,285.93,364c1.11,8,5.53,15,10.14,21.79a22.59,22.59,0,0,0,11.36,8.55c.92-1.88,4.59-11.74,5.46-13.53,3.73,5.92,29.3,12.74,42.24,4.93,8.85-5.35,4-16.65,4.52-18.85,1.25-5.17-2.12-10.47-7.87-12.06a79.83,79.83,0,0,0-8.48-1.44c.44-1.15.95-2.28,1.28-3.44a26.7,26.7,0,0,0,.71-3.56c.37-2.63-2.38-6.79-5.19-7.89-5.43-2.13-11.15,1.73-10.68,7.23.08.93.46,1.84.53,2.77.35,4.47-1.75,7.73-6.29,8.77-3.57.83-7.24,1.68-11.07.43-2.23-.73-4.72-.8-7.08-1.22a15.81,15.81,0,0,1-4.35-1,46.19,46.19,0,0,1-11.5-8.74c-2.56-2.53-3.86-5.64-5.56-8.6a32.49,32.49,0,0,1-4.16-15.36c-.08-2.23,0-4.47,0-6.51,2.14-1.2,4.7-2.07,6.31-3.68a14,14,0,0,0,3.21-6A81.82,81.82,0,0,0,291.63,296c.51-3.42-1.91-6.12-5.82-6.68-2-.29-2.55-.87-1.61-2.66s1.56-4,2.38-6c4.93-12.09,13.43-21.74,25.17-29.16q3.87-2.44,7.84-4.75a35.26,35.26,0,0,1,16.56-4.47c4.34-.18,8.27,1.19,12.39,1.7,6.93.88,12.89,3.71,18.69,6.73,7.92,4.12,12.49,11.09,17.27,17.76a11.34,11.34,0,0,1,1.92,4.05c1.53,7.06,1.81,14.1-1.3,20.94-4.72,10.36-12.78,17.42-25.24,20a15.28,15.28,0,0,1-12.26-2.75c-2.3-1.66-4.42-3.93-3.85-6.92s3-4.4,6.11-5.26c2.9-.8,2.86-.91,1.77-3.31-3.48-7.76-.68-10.84,6.15-12.72a20.12,20.12,0,0,0,3.38-1.64c-4.78-4.93-15.56-5.93-21-2.19-4.57,3.13-8.43,6.79-10.83,11.64-4.76,9.62-1.72,21.16,7.4,28.14a29.82,29.82,0,0,0,9.22,4.72c7.23,2.19,14.57,4.32,22.46,3.51a14.91,14.91,0,0,1,5,.16,65.8,65.8,0,0,0,19.23,1.61,52.17,52.17,0,0,0,17.5-3.34c3.69-1.49,7.32-3.12,10.83-4.91a36.23,36.23,0,0,0,13.67-12,35.22,35.22,0,0,0,4.85-11v64.84A212.94,212.94,0,0,1,360.57,440.77Zm-66.3-77.29c4.38,0,5.79.78,5.79.78s21.29,4.54,28.17,1.88,13.15-7.67,17.22-4.38,11,14.23,5.17,16.27-21.13,8.61-27.08,2.74a28.81,28.81,0,0,0-13.46-7.27s-6.73,10.95-10,5.32S289.88,363.48,294.27,363.48ZM446.51,165.84a211.28,211.28,0,0,1,0,182.62Z" transform="translate(-0.73)"/></svg>