<svg width="400" height="400" data-name="detail-zuckerbanket-orangenbaum Bild" xmlns="http://www.w3.org/2000/svg" viewBox="0 0 494.61 437.2"><path d="M389.22 7.12c2.14 3.06 4.57 5.92 6.76 8.73v2.78l-1.88 1.74c-2.72-3.88-6.79-5.35-10.46-7.49l-1.28 1.49c2.24 2.7 4 5.45 6.41 7.54a23.25 23.25 0 0 1 5.28 6.57c-.38 2.62-2.33 4.6-1.48 6.57 1.3 3 2.18 6.38 4.56 9.22a27.52 27.52 0 0 1-.7 2.73c-1.67 4.75-1.52 9.22-.52 14 .55 2.68 2.18 5.52.82 8.09-3.93 1.5-8 2-9.81 6.36-.62 1.51-2.26 1-3.42 1.54.78 1.15 1.45 2.16.28 3.49a4.23 4.23 0 0 0-1.19 2.62c.17 4.39-.86 8.87.84 13.15a10.32 10.32 0 0 1 .95 4.6c-.05.77.57 1.56.73 2.37 1 4.86 3.89 9.34 2.75 14.2 1.7 2 3.41 3.48 4.53 5.35a65.38 65.38 0 0 0 9.3 12.39c1.92 2 4 3.25 6.61 2.89 1.91 5.28 3.71 10.26 5.53 15.32h.7c1.61 3.11 3.24 6.21 3.33 9.83l2.55 1.59c0 3.93-.15 7.85.05 11.75.16 3.17.27 4-.58 6.7-.13.4-.41.83-.35 1.2.61 3.57-1.39 6.81-.89 10.35l-1.9 1.39v3.89a17.34 17.34 0 0 1-3.25 2c-1.81.62-3.53 2-3.72 3.41-.3 2.3-2.44 3.2-3 5.18v4.85l-3.11 1.94c2.8 0 5-.15 7.22 0s4.24.72 7 1.21l1.18 1.51h3l1.81 2.8 2.43-1.34c.82 2.39 3.16 1.89 5.26 2.39l-2-2.79 3.46-2.54v-4.32l-3.16-3.14h3.23l4.87 5.9c3.42 1.62 6.62-2.49 9.84.48 1.58-1.39 2.71-3.25 5.06-3.3.43 0 .84-1 .92-1.13l-1-2-2 1.12c-.55-1-1-1.88-1.46-2.7s-.87-2.07-1.62-2.43c-2.9-1.39-4.5-4.21-6.88-6l-7.4 2.57-2.48 2.72-2.39.23v2.4c-1.81.12-3.51.21-3.44 2.54a6.67 6.67 0 0 0 .28 1.15l1.88-1c1.23 2.12 2.35 4 3.5 6l-4.91 2.36c-2-1-1.6-2.59-1.69-4 0-.18-.41-.34-.85-.69l-2.71 2.19-1.05-.79-10.58-1.39v-5.09l2.35-1.24c.18 1.19.3 2 .43 2.91l1.22-.08 1.36-3.5h3.62c-.33-1.22-.72-2.4-1.05-3.41.51-1.75 1.63-2.14 3.19-2l1.55 3c-1.2.93-1.71 2.75-3.69 2.44-.07 1.46-.07 2.93-.07 4.41h1.41c.32-1.43.14-3.09 2-3.51 1.38-.32 1.65-1.81 1.71-2.58.15-1.84.58-3.79-.38-5.64a3.55 3.55 0 0 1 .44-4 25.38 25.38 0 0 0 2.17-4.88l5.11-1.31a7.68 7.68 0 0 1 0-1.73 4.48 4.48 0 0 1 .74-1.23l-1.44-1.27-4.35 2.62c-1.41-4.56.46-8.68.56-12.92.08-3.49.54-7 .88-10.45 0-.38.54-.7.61-1.09.16-.85.57-2 .2-2.56-1.62-2.66-.5-5.51-.81-8.24 0-.21.28-.47.42-.69l1.12 1c.51-.94 1-1.79 1.42-2.68s.66-1.84 1-2.76c3.5-.08 3.5-.08 9.18 2.54 0-.48-2.16-3.12-3.82-4.56H433c.09-1 .16-1.8.21-2.41l3.46-.73a34.44 34.44 0 0 1-2.88-2.17 23.13 23.13 0 0 1-1.84-2.26c-.49 1-.78 1.6-1.07 2.21a5.39 5.39 0 0 1-.64-.49c-2.41-2.66-2.92-6.81-6.63-8.48-.27-.13-.32-.74-.48-1.12-.6-1.41-1.83-2.89-1.67-4.2.28-2.16-2-2.64-2.13-4.67-.23-2.81-2.12-5.41-2.57-8.36-.08-.55-.84-1-1.42-1.63a4.76 4.76 0 0 0 .5 4.36 5.72 5.72 0 0 1 .5 5.87c-2.5-3-3.09-6.7-4-10.21a25.67 25.67 0 0 0-4.5-8.62c0 1.51-.26 2.35 0 2.9 2.93 5.46 4.17 11.51 6.21 17.28.54 1.52 1.89 3.06.46 4.79h-.74l-2.4-4.79v-1.51c-.92-2.27-1.92-4-4.36-4-.35 0-.7-.66-1-.93l2.73-1.78-3.14-3.14c-.92-3.59-1.68-6.59-2.45-9.6l-.49.53-3.23-3.56c-.9 1.07-1.91 2.29-2.92 3.51-.12-3-1.13-5.65-1.31-8.34-.31-4.46-.52-9 1.65-13.26.28-.54.56-1.91-1.06-1.88a5.51 5.51 0 0 0-1.62 4.11 10.55 10.55 0 0 1-.71 3.73c-.56 1.91-1.47 4.37-.84 6a13.37 13.37 0 0 1 .63 5.12c0 3.49 1.28 6.71 1.91 10.07.22 1.17 1.78 2.32 1.62 3.3-.4 2.45 1.24 4 2.37 5.36 1.76 2.12 3.18 4.4 4.75 6.62 1.43 2 2.3 4 2 6.4 0 .26-.27.49-.42.73-.31-.29-.63-.57-.89-.8l-1.54 1.08a12.45 12.45 0 0 1-4.39-8l2.1-.77-2.46-1.64-4.25-8-1.49 1.17-3.15-6.57.4-.21-2.75-2.46c.41-.86 1-1.46.85-1.85-.75-2.54-.77-5.34-2.66-7.66 0-4 .1-8.24 0-12.44-.1-3.1 1.28-5.5 3.18-7.71 1.15-1.34 2.48-2.54 3.49-3.55h5c.78 2.58 1.55 5.12 2.49 8.2l2.39.9c-.86-2.45-1.2-4.47-2.24-6-.86-1.31-1.14-2.72-.54-3.68 1.78-2.82.25-4.9-1.1-7.45 0-.86.4-2.29-.11-3.19a6.59 6.59 0 0 1-.83-2.85 18.66 18.66 0 0 0-.68-2.94l2.79-14.06-3.42-2.94c1.87-2.6-1.66-4.92 0-7.71h2.11c.18-5 .38-5.62 2.82-8.43v-4.57a35.46 35.46 0 0 1-2.66-6.57.7.7 0 0 1 .18-.59l3.25.36c.16-.8.25-1.21.34-1.64h2.53l3 6.3-2.94 1.93v3.32c1.07.67 2 1.75 3 1.8 2.25.13 2.66 2.13 3 3.27.46 1.74 1.83 3.49 1.07 5.41-.82 2.07-1.9 4-2.43 5.14.4 2.59.66 4.25.77 5l3.67 3.89 1.36-1c.78 1.45 1.6 2.91 2.37 4.4s.89 3.74 3 4.56l.94-.85.4 1.35-3.77 1.9c0 3.41 3 5.38 4 8.31a93.17 93.17 0 0 0 3.92 8.55c.48 2.68.94 5.21 1.42 7.89l2.36 1.2c-1.64-4.55-1.76-6.06-.65-7.65a4.89 4.89 0 0 1 .74.92c.63 1.39 1.21 2.81 1.84 4.2.07.15.4.2.61.29l1.07-1.14c-.57-2.61-1.09-5-1.63-7.51 1.67-.75 2.65.07 3.57 1.21-.36 3.4 1 6.35 2.57 9.08.6 4.85-1.26 9.88 2.36 14.4l-1.53.32c-2.91-3.29-2.86-7.64-5-10.9-.54.15-.78.16-.79.23-.84 3.26 1.7 5.66 2.11 9.55l-1.73.65c.46 1.19.8 1.95 1.06 2.75a57.09 57.09 0 0 0 5.47 12.6c.2.34 1.11.25 1.85.38-.94-3.46-2.25-6.26-4.45-8.3v-4.7c1.3 1.61 2.24 2.78 3.13 3.9l1.19-.85c2.9 2.58 3.3 3.29 3.2 5.54l-.94-.86-1.36 1.36 1.3 1.1 2.72-1-1.1 3.79c1 4.62 6 6.78 6.19 11.81l-2.09.12c-1.69-.91-2.44-3.51-4.94-2.81l-.65-1.89-3.06.7c-1.76-2.35-3.48-4.63-5.18-6.93-2.31-3.14-4-6.51-4-10.53a4.15 4.15 0 0 0-.16-.84l-1.51-1.51c-.15-.83-.28-1.56-.41-2.3-1.29 5.29 1.1 9.77 3.32 14.08 1.87 3.63 4.63 6.79 7 10.13-1.59 1.88-.72 4.05-1.06 6l-1.47 1.5c-1.92-3.52-3.81-7-5.67-10.41-.93-1.72-2.3-3.38-2.61-5.21-.82-4.72-3.1-8.91-4.05-13.5l-1.5.23 1.17 6.59a80 80 0 0 0 12.14 24.4v6.8l-2.15-2.93c-2.54-3.59-5.42-6.93-7.35-10.94-1.51-3.14-3.14-6.21-4.72-9.32.63-3.82-3-6.39-2.95-10.07 0-.5-.49-1-.75-1.51l-.85.52c.29 1.21 0 2.3.53 3.69.7 1.82 2 3.54 2.1 5.41.1 2 1.24 3.43 1.91 5.11s.87 3.7 2 5a29.8 29.8 0 0 1 3.74 6.6 5.34 5.34 0 0 0 1 1.83c3.69 3.16 4.7 8.43 9.1 11.14 1.71 1.06 2.65 3.36 4.1 5.31-1 5 2.6 9.25 3 14.23 2.05 2 1.35 4.6 1.46 6 2 4.63 3.69 8.34 5.75 13l-4.08-2.74-2.16.82-1.56-.9-2.68 3c.58 1.35 1.07 2.48 1.44 3.32h3.73c-2.18-1-3.9-1.8-2.66-4.65a14.28 14.28 0 0 0 2.71 1.19 15.2 15.2 0 0 0 3 0l-.57.89c.66.67 1.33 1.33 1.95 2 .07-.07-.12.28-.36.33-1 .2-2 .29-3 .48-.2 0-.35.34-.52.52l1.25 1.26h2.65l9.52 8.92v-5.84l4.95-1.17c2.24 2.17 2.81 3.15 3.44 6l2.48 1a3 3 0 0 1 0-.44l4 .57 1.32-1.33c.16-1.72.32-3.42-.8-5a22.38 22.38 0 0 0-6.54-6.39c-1.33-.8-2.55-2.49-3.85-2.52-2.24-.06-3-1.74-4.38-2.68a17.38 17.38 0 0 0-3-1.29c-1.31-2.05-2.62-4.06-3.88-6.1a21.29 21.29 0 0 1-3-6c-1.21-4.74-1.48-4.76-.85-6.91 3.41 2.37 5.56 6.38 9.69 7.17l1.9-.84 1.69-2.66h3.33c-1.6-1.53-1.15-2.92-.5-5 1.37 1.39 2.34 2.36 3.07 3.11l-4.2 5.37c-.49.77-2.53-.62-2.1 1.6l10.8 4.28c-.37-1.74-.67-3.14-1.1-5.2.91.83 1.23 1.11 1.72 1.57l.34-2h-4c-.25-1.26-.46-2.29-.69-3.47h2.65l3.33 3.56h3.35c1.61.77 2.09 2.79 4.09 2.66.74-1.6-2.15-3.2.5-4.79.65 1.3 1.24 2.49 1.86 3.75l2.23.92 1.33-2.3c-.54-3.84-.11-6.94-.37-10-.54-.11-1.08-.06-1.35-.3a33.55 33.55 0 0 0-10.58-7.14c-.52-.19-.9-.74-1.33-1.13-6-5.5-7.28-7.21-10.86-14.45-.44-.88-.87-2.12-1.62-2.41-1.77-.7-2.22-2.44-3.41-3.55s-2.58-2.52-3.82-3.84a3.84 3.84 0 0 1-.47-1.25l1.48-.56c1.6 3.22 6 3.59 7.17 7.34h3.25c4.09 2.75 7.13 6.67 12.19 7.3 2 1.89 5.15 1.64 7 4.06.55.73 1.59 1.23 2.1 2.24s2.26 1.51 2.27 3.15c0 .17.9.33 1.76.62-1.6-2.52-.57-4.91-1.28-7.83.32-1.5-3.6-2.08-2.09-4.85l1.47-.51a5.74 5.74 0 0 0 0-1.92c-1.37-3.3-3.35-6.47-1.75-10.27a1.14 1.14 0 0 0 0-.89c-1.6-2.44-.57-5.17-1-8.13l-1.77-1.39c.68-5.15-4.26-8.08-4.55-12.73-1.89-2.15-4.46-3.8-5.31-6.82.32-.6.66-1.21 1-1.84-2.23-2.61-4.37-5.2-6.63-7.68-.64-.7-2.18-1-2.34-1.65-.27-1.18-1.29-1.6-1.68-2.48-1-2.21-3.05-3.28-4.77-4.65v-1.69c-2.58-3-5.06-5.92-7.34-8.6-1.33-.18-2.71 0-3.27-.52-2-2.11-4.48-2.52-7.19-2.36a3.43 3.43 0 0 1-1.73-.16c-2.95-1.66-5.49-.61-8.06 1-3.83-3.53-7.73-7.15-11.68-10.72a17.7 17.7 0 0 0-1.83-1 6.81 6.81 0 0 1-2.72-8 10.25 10.25 0 0 0 .49-2.5c.06-2.38 0-4.77 0-6.76l-2-2.69 2.21-2.34-1.2-6.71c-1.28-1.73-2.83-3.09-3.4-4.78a13.68 13.68 0 0 0-3.95-5.59c-.17-.17-.52-.17-.79-.25l-2.16 1.16-1.55-2.32-7.45 1.32-4-4.09c-5.07-1.88-9.5-4.07-14.65-3 2.39 3.09 6.39 3.72 8.57 6.84Zm46.4 199.93c.87 2.52 3.42 3.78 6.19 4.76 1-1.38-.18-2.42-.69-3.5a18.7 18.7 0 0 1-1.64-3.29c2.5 3 7 3.21 9 7.1-1.48 2.93-5.52 1-7.1 3.91-3.13-2.25-4.66-5.6-8.66-7.69Zm-9.59-67.24c3.26.34 2.5 3.75 4.79 5.3h-3c-1.13-1.63-2.43-3.01-1.79-5.3Zm-6.26-9.69 5.16 7c-.08.2-.23.59-.72 1.89l-5.38-7.93Zm-12.68-7.42 1-.1 4.36 7.48c-3.36-.55-3.6-3.6-5.37-5.09-.41-.3-.03-1.5.01-2.29Zm1.62 11.94 3.41-4.34c.57 1.65.72 3 1.45 3.93s1.92 1 3.23 1.64c0 2-.33 4.4.95 6.38 1.41 2.18 1.85 4.64 2.67 7a18.69 18.69 0 0 1 .86 1.89 12.2 12.2 0 0 1 0 2.38c-3.3-.6-4.94-2.91-7.18-5.05.43-2.74-1.41-5-2.82-7.6.94-1.71 2-3.57-.22-5.37-2.15 1.58-4.07.56-6.28-.86Zm65.65 55.17v4.07l-4.16-6.13c2.73-.21 3.3 1.4 4.16 2.06Zm3.06-40.52c3.38 2.78 7.66 3.46 9.7 7.3l-2.89 1.47-6.81-4.48ZM440.3 91.02c2.64 1.56 2.91 3.93 3.3 6.25a9.71 9.71 0 0 1-3.3-6.25Zm8.49 16.35c.75 1.47 1.46 2.84 2.35 4.57-4.04-.52-4.48-1.47-2.35-4.57Zm-2.38 47.22-1.48-1.48c-.79-2.19.93-4.77-.73-6.29.27-2.23.49-4 .75-6.19l-4.43 1.32c-.51-2.48-1-4.77-1.45-7.11 1.32-.44 1.61.48 1.93.91s0 1.2.2 1.7a13.67 13.67 0 0 0 1.89 2.2c-.2-2.23.16-4-.53-5-2.35-3.45-1.33-6.87-.46-10.33a13.26 13.26 0 0 1 1.55-2.76c3.21 2.61 4.47 6.42 6.64 10.22l-1.25 7.88-1.36 1.36c-.07.12-.22.26-.19.36.85 3.53-2 6.8-.29 10.64 1.25 2.73 1 6.15 1.42 9.85-3.32-2.21-1.39-5.02-2.21-7.3ZM453 170.3c.84.84 1.1 2.23 1.7 3.32 1.56 2.81 3.48 5.23 6.85 6.06l3.53 6h-2.86l-2.05-1.92v4.4a9.94 9.94 0 0 1-1.87-1.39c-.82-1.13-1.53-2.34-2.41-3.73h-2.94l1.83-3c-2.86-5.53-5.82-10.57-6.59-16.68h2c-.45 2.9.87 5.01 2.81 6.92Zm9.68-11.21c-1.24-1.81-4.37-.41-4.38-3.9l4.52 2.31c-.03.34-.06.63-.14 1.57Zm.2-4.26-3.58-2.3c-1.07-.06-2.59-.46-3.61 1.13a2.16 2.16 0 0 1-1.08.61c-.26.09-.79.12-.86 0-.75-1.38-2.21.42-3-.72-.19-.26-.78-.23-1.3-.36v-6.68l1.68 2.28-1.07 2.13 1.47 1.6 1.95-2.66h2.82c.1.48.18.89.33 1.61l2.48.14c0-.66.17-1.27 0-1.43-1.44-1.18-3-2.27-4.38-3.33v-4.81l1.22-1 8.67 13Zm4.88-3.29c-4.74-3-6.32-5-6.13-8.59 2.36 2.26 4.14 5.22 6.13 8.57Zm-6.78-10.59a11 11 0 0 1-3-3.54l-2.95-.94-1-7.31c.34 0 1.07-.14 1.31.13 2.86 3.23 5.48 6.64 5.64 11.64Zm28.45-11.05c-1.1-.19-1.9-.09-2.21-.44-.74-.81-1.81-1.87-1.74-2.76.13-1.74-1.06-2.52-2.12-3.81h2.54Zm-5.45-16.11c-2.76-.42-3-3.27-4.55-4.83-.61-.61-.31-2.12-.48-3.92 4.07 2.81 5.54 5.6 5.03 8.73Zm-11-22.56a3.19 3.19 0 0 1 1 0 1.47 1.47 0 0 1 .66.53q3.18 4.44 6.32 8.88l-.36.27a75.55 75.55 0 0 1-6-4.79c-1.3-1.29-2.41-2.87-1.62-4.91Zm-5.55-3.07c.92.76 1.71 1.66 2.47 2.42v2.16c-.4.09-.73.29-.93.2-2.12-1-2.66-3.07-4-5.7a10.51 10.51 0 0 1 2.46.9Zm-3-7.6a9.07 9.07 0 0 1-4.59-4c1.74-.63 1.74-.63 4.61 3.98Zm-31.8-21.71 1.82 2.84 7.16-4.07 1.68 3c-.21.28-1.19 1.23 1.06 2.2l-3.72.78c1.29 1.53 2.3 2.72 3.42 4.06l-1 1.46c2.75 2.29 3.92 5.79 6.06 8.57s3.06 6 4.89 9.2l-2.74 2.26a4.31 4.31 0 0 0 .49 3.2c1.33 1.92 2 4.31 3.13 6.31s2.3 4.18 3.54 6.2a24.9 24.9 0 0 0 4.23 4.56 30.77 30.77 0 0 1 3.9 5.12 43.4 43.4 0 0 0 6.32 6.83 18.32 18.32 0 0 1 2.93 2.75c1.25 1.72 3.47 2.9 5.5 3.85a8 8 0 0 1 3.21 2.7 25.11 25.11 0 0 0 1.75 1.84c-2.69.52-4.26-1-5.82-2.58-3.53.41-6.26-1.21-8.91-3.4-2.16-1.79-4.7-3.13-7-4.72-1.86-1.27-3.27-3.26-5.68-3.61-5.36-4.43-6.53-11.65-11.35-16.54.43-3.27-.86-6.08-2.34-8.87a34.36 34.36 0 0 1-1.9-4.61 3.22 3.22 0 0 1-.18-2.14c1.73-3.7.38-7.59.93-11.18l-2.71-3.78-1.91 1.42c2 2.34 2.17 5 1.45 8.48l-3.28-4c.56-3.73-1.4-6.73-3.47-9.65a9.66 9.66 0 0 1-2-4.61c-.14-1.26-1.18-2.42-2-3.91Zm-21.16-37.86c.3.05.61 0 .7.14.66.92 1.27 1.88 1.77 2.63v5.32l-2.47-4.89ZM393.53 5.16a12.14 12.14 0 0 0 1.29.43l1.17 2.43c-2.52-.73-2.7-.89-4.17-3.84.76.44 1.22.74 1.71.98Z"/><path d="m472.3 194.99-.43-.18a1.55 1.55 0 0 0 .07.31ZM457.3 198.37l-3.08-.94c.68 1.42 1 2.15 1.28 2.75 2.42.49 4.72 1.05 7.24 1.66l1.44-2.35c2.28-1.07 4.77 2.56 7.21-.09l1.36 1.47-2.74 1.74v2.56l-3.15 3.27a12.49 12.49 0 0 1-6.3-3.48c-1.51-1.66-3.93-2.42-5.06-4.78a2.51 2.51 0 0 0-2.55 1.71l8 6.94c.17 2.18-.59 3.29-2.66 3.21-.75-1.51-1.5-3-2.07-4.13-2.52-1.6-4.74-3.06-7-4.43a6.41 6.41 0 0 0-2-.34c1.77 3 8.31 8.09 11.09 8.9-1.37 1.71-3.05 3.13-4.46 4.83a4 4 0 0 1-2.51 1.41c-2.36.13-3.82 2.67-6.37 2.19-.29-.06-.73.68-1.35 1.31a12.31 12.31 0 0 0 9.58-2.45c3.86-2.85 7.49-6 11.33-9.08 4.42.34 6.3-2.79 7.54-5.8l5.3-2.33c1.86-.15 4.08.26 6.95-.37-1.14-1.07-1.72-2-2.53-2.29-2.58-1-5.24-1.89-7.89-2.74-1-.3-1.71-.7-2-1.58l-2.73 1a53.17 53.17 0 0 0-11.87 2.23ZM491.45 364.47h-4.6c-2.92-2.4-5.73-4.25-9.37-4.64-1-1.12-2.1-2.31-3.41-3.75l2.17-1v-2.39l-8.84-1.21c-2.94-2.52-5-3.29-9.14-3.26-.25 0-.5.22-.82.36l.09 1.37c3 0 5.65 1.05 8.66 2.79l-1.8 2c-6.51-1.69-8.73-3-10.06-5.48l-5.77-1.28c-1-.92-2.43-2-2.27-4.06-2.3-2.72-7.46-4.73-10.47-3.44a37.55 37.55 0 0 1-10.13 3.2v-5.64l-2-1.56c2.75-2.6 6.62-1 8.85-3.37l3 1.64 1.38-1.79c3.77-.49 6.66 2.82 10.33 1.53l1.08-1.13 9.45-2 2 .89c.17-1.18.3-2 .47-3.12l5.66 1.23c.21-.59.28-1.46.59-1.56 2.28-.72 3.35-2.81 5-4.21.17-.15.15-.53.3-1.09l-2.5-2.24a15.58 15.58 0 0 1-1.95-.5c-3.9-1.47-7.75-3.07-11.7-4.42-2.82-1-5.78-2.28-8.77-1.26a25.06 25.06 0 0 1-9.71 1.59c-1-.06-2 0-2.87 0a15.29 15.29 0 0 1-7.3 4.89c-2.1.63-4.73 1.48-5.71 4.1a12.24 12.24 0 0 1-3.13 4.59c-.33.33-.22 1.12-.45 2.58 1.47-1.22 2.19-1.9 3-2.45.29-.2.79-.08 1.31-.12v3.44l-2.46.27v3.6l-1.7 2.35.46.37 4-2 2.86 1.68-1.67 2.16h-3.3c1.2 2.81-2.86 1.68-2.51 4l8.9 2.4.32 1.6h3.88l6.76 5.62v2.34c1.57 1.21 3.25 2.51 4.9 3.8l1.13-1.12c.28-3.47.28-3.47 1.5-5.09 3.28 2.11 6.7 4 9.28 7.06.06.08.31 0 .43 0 2.71 1.43 5.19 3.26 8.16 4.28s5.87 2.12 9.07 2c.43 0 .87.05 2.18.14l2.56 2.58 2-.75c.09.09.29.47.52.49 2.14.15 4.19.42 6.42-.34 1.4-.47 3.15-1.35 5-.42 1 .48 2.44 0 3.85-.11a282.8 282.8 0 0 0-3.11-6.14Zm-23.88-42.1 2.07 1.26-2.14 2.4-2.61-2.29Zm-22.81-4.91 10.38 4.73.79-1.76 2-.22 4.29 5.1-5.21 1.83c.58-1.52.85-2.21 1.25-3.28l-3.45 1-6.8-4.49c-.65.28-3 0-5.23-.66 1.07 3 3.37 3.35 6.15 3.28 1.14 2.81 6 2.58 5.79 7.17h-3.71c-2.56-2.11-5.15-4-7.47-6.21-2.1-2-5.75-1.75-7.15-5.11 2.79-1.04 5.81.6 8.37-1.4Zm-22.55 11.5c.26-2.77 2.42-4.19 4.22-6.15l4.43 1 2.71-2.71 5.86 2.51 8.3 6c-1.62 2.29-1.62 2.29-4.57 2.31-1.49-4-4.9-5.45-9.2-6.28.8 2.14 3.42 2.83 3.7 5.56-2.82-.75-4.95-1.73-5.73-4.2l-4.95.7c.26 1 .52 2 .84 3.2-2.52.6-4-.79-5.61-1.96Zm19.77 29.32-1.68-1.74-.75.59v-4.22l2 3.25.5-.41Zm11.65.85c-2.7-3.86-7.12-3.86-8.9-6.8l-4.84-1.34-2.06 1.84-5.67-5.67c.11-1.63.94-3.18 3.21-4.63 2.72-1.75 4.32 1.1 6.6.17v2.47l-4.54 1.65a61.85 61.85 0 0 1 12 3.44l-.95 1.2 5.36 4.29c-.07.99-.11 1.69-.21 3.36Zm10.92 5.14c-5.37-2.57-5.56-2.74-8.8-8.19l1-2.18a3 3 0 0 1 .53.14 5.71 5.71 0 0 1 3.19 3c1 2.14 2.64 3.95 3.95 5.94.23.31.11.81.13 1.27Zm7.16 3.19-3.06-1.35c-1.34-2.33-2.79-4.85-4.52-7.84h3.64l5.11 6.24Zm5-.18c-.61-2.69-4-3.81-3.94-7.39 3 .57 3.86 3.54 6.13 4.59.1 1.25.1 1.8.1 2.54Zm5.23.65-2.69-3.7c.9-1 2.13-1.77 2.64-1.43 1.81 1.21 4.13 2.21 4.39 5.13ZM41.43 141.07c.08 1 .17 2.16.31 4l3.28-2.7c.57-5.9-.82-11.72.8-16.32-.49-1.25-.74-1.9-1.14-2.94a58.4 58.4 0 0 0-1.3 6.17 53.85 53.85 0 0 0 0 5.67l-1.92 1.81c.73-3.43-1.44-6.07 0-9.17.64-1.36 0-3.27.14-4.91a43 43 0 0 1 .88-5c.64-3 1.29-6.07 2-9.09.33-1.35.46-3 1.35-3.89 1.33-1.28 1-2.66 1.27-5l2.2-2.22-1.48-1.22c-1.92 1.76-3.59 3.27-3.58 5.92a5.53 5.53 0 0 1-.89 2.76 12.49 12.49 0 0 0-1.66 6c-.21 4.06-2 7.8-2 11.87 0 .91-1 1.82-1.74 3.16l-1.94-3.34c.3-2.2.83-4.9 1-7.62.19-3 0-6 0-8.18.87-3.49 3.51-5.21 3.68-8.35.15-3 3.39-4.93 2.83-7.3a35.69 35.69 0 0 1 2.68-3.36c.86-.82.78-2.47 2.47-2.56 1.26-.06.27-3 2.5-2.1 1.44 2.38-1.85 4.62-.27 7h1.16l2.48-6c.66-.45 1.89-.86 2-1.41.34-2.84 2.38-4.72 3.56-6.89a9 9 0 0 0 2.1-.49 14.88 14.88 0 0 0 2.1-1.7c1 1.08 1.77 1.93 2.52 2.82a16.51 16.51 0 0 0 3.81 2.9 7.14 7.14 0 0 1 5.92 5.21l-1.65 1.57 8.15 6.53c2.13.77 4.27-.71 5.9 1.22.74-.92 2-1.77 2.09-2.74.28-2.74 2.17-4.3 3.09-5.26.71-2 1.12-3.09 1.42-4.17.51-1.82 2.12-3.61.15-5.56a1.8 1.8 0 0 1 0-1.73c1.34-1.82.77-4.15 2-6-1.93-2-3.56-4-2.78-6.9l2.65-.5-.27-1.38-2.33-.31q-.69-6.57-1.36-13a296.8 296.8 0 0 1-1.36-2.65c.38-3.3.68-5.86 1-8.16 2.4-3.46 5.91-5 8.65-6.22l5.08.55c2.32 1.81 4.32 3.78 7.32 3.71.47 0 1 .61 1.19.78-.81 1.25-1.38 2.15-2 3.07 3 1.59 4.73-2.65 7.27-1 .94 2.78-2.38 3.25-2.64 5.28l.73.89 5.37-4 6 1c-1.08-2.61-2-4.88-2.89-7-5.34-.54-10-2.3-15.16-1.94-.08-3-3.49-2.56-4.23-4.28-5.36-.93-9.89.08-13.3 2.46l-4.42 6.37a2.88 2.88 0 0 0 0 1c.56 1.12 1.19 2.21 1.87 3.45-2.65 3.57-1.64 7.28-.32 10.43-.33 1.86-.56 3.21-.76 4.33l2 2c-.23.81-.49 1.74-.75 2.62 1.61 1.78.16 4.33 1.31 6.55 1 2 .47 4.88.65 7.37.17 2.31.4 4.62.58 6.71-2.48 1.87-2.41 4.48-3.11 6.49l-2.3 1.37c-.12 1.25-.24 2.37-.39 3.86-2.2-.61-4.14-1-6-1.71-1.16-.43-.94-1.66-1-2.71a1.85 1.85 0 0 0-1.2-1.23c-1-.16-1.14-.78-1.61-1.54-1.66-2.68-3.66-5.14-5.59-7.75h-3.81c-2.79-3.68-2.54-5.35-9.86-3.44l-2.51 2.86-.35-.55-6.77 3.2c-1.46 2-2.78 3.72-3.91 5.52-1.78 2.85-4.55 5-5.23 8.67-.34 1.83-1.87 3.43-3.28 5.85-.33.92.18 2.28-.63 3.79a25.51 25.51 0 0 0-2.58 7.91 70.92 70.92 0 0 0-.34 9.35v4.31l2 2.34-1.23 1.83.83 1.21c-1.74 2.88 1.73 5.86-.51 9.17-2 1.21-5.23 1.38-7.09 4h11.09c.76-1.91 1.01-2.12 2.01-1.42ZM446.35 379.11c-.85-2.62-.77-6.53-4.73-7.44-.2-.05-.29-.47-.46-.69a12 12 0 0 0-7.06-4.75 18 18 0 0 1-3.8-1.86c.37-.66.59-1 1-1.77l-2.8.18v3.36c4 1.93 7.9 3.75 7.26 8.91l2.8-.81c1.45.91 2.06 1.94 1.46 3.59h-4.9a43.46 43.46 0 0 0-3.74-3.67c-1.26-1-1-3.57-3.85-3.34l1 3.37-3.31.48c1.6 1 2.66 2.27 3.75 2.3 3.54.1 3.78 2.93 5.23 5.26l-2.94.46v1.44h4l8.61 11.67c-2.46.65-4.11-.27-5.65-1.3s-2.59-2.5-4.14-3.08c-2.55-1-3.35-3.68-5.6-4.82l-8.17-14.66c.64-1.84-1.27-2.47-1.8-3.57v-2.65c.87-.75 1.83-1.58 2.74-2.35l1.48 1c.16-.31.3-.45.28-.55-.46-1.7-2.7-1.43-2.95-2.56l-5.76-1.42v-3.72c4.59.57 8.19 3.13 12.61 5l-1.75-3.41 2-2.71-9.45-6.63v-1.7l-4.32-1.14v2.15c3.16 2.09 6.62 3.37 8.68 6.63l-1.43 1.25c-1.5-.78-2.9-1.86-4.11-.36a25.59 25.59 0 0 1-10.45-7.15l-1.23.79c1.36 1.83 2.34 4.32 4.15 5.33 2.59 1.45 3.21 3.3 3.36 5.89.05.89.83 1.74 1.28 2.6h1.81c.74.74 1.47 1.49 2.12 2.15.14 2-.21 4.11.52 5.76 1.79 4.07 3.2 8.33 5.89 12 3.14 4.29 5.63 9.12 10.55 11.77a68.81 68.81 0 0 0 8.58 4.31c2.22.82 4.74.82 6.86 1.14l2.68 3.77a23.59 23.59 0 0 0-3.27-16.19c-1.48-2.48-2.08-5.48-3.03-8.26Zm3.65 18c-5.36-1.93-7.76-6.43-10.61-10.52l.86-.94c-1.22-2.26-1.22-2.26-3.64-3.54.05-.86.07-1.44.12-2.38.93.15 1.92 0 2.47.47 1 .77 1.55.62 2.4-.43l3.7 3.9-2.31 1c1.38 2 5.2 1.31 5.13 5l-2.6 1.58 4.5 2.14ZM279.66 125.56a7.12 7.12 0 0 0-.56-2.91c-.82-1.69-.2-3.05.58-4.45l-5.92.85c-.31-.32-.84-.59-.92-1-.92-4.12-3.48-7.34-5.8-10.68-.47-.67-1-1.54-1.68-1.79-2.91-1-5.31-2.88-7.77-4.64a1.37 1.37 0 0 0-1-1c-3.65-1-4.84-5.62-6-8.75a34.24 34.24 0 0 0-2.42-5.51 16.08 16.08 0 0 0-1.77-2.47 11.27 11.27 0 0 0-2-3 10.9 10.9 0 0 1-1-1.28 27.65 27.65 0 0 1-2.12-11.2c0-2.29.28-4.41-.45-6.63-.19-.59-.42-1.16-.66-1.73a19.28 19.28 0 0 1 2.51.66l1.28 1.28 1.34.06a12 12 0 0 1 3.89 4.66 1.5 1.5 0 0 0 2.05.54 1.39 1.39 0 0 0 .7-1l.44.11c.77-1.43-.13-1.55-.93-1.75a14.59 14.59 0 0 0-5.62-5.75 14.39 14.39 0 0 0-4.15-1.57c-1.19-.25-2.46-.37-3.64-.74l-.14-.18a1.26 1.26 0 0 0-1.51-.37 1.43 1.43 0 0 0-1.39.7 1.52 1.52 0 0 0 .54 2.06l.14.06h-.06l2.35 4.56c-.34 1.71-.55 2.75-.76 3.75l1.23.43a29.33 29.33 0 0 0 0 3.75 31 31 0 0 0 1.39 7c.08.22.15.45.23.67h-1.46a15.7 15.7 0 0 0-4.29-6 1.35 1.35 0 0 0-.31-1.58 26.21 26.21 0 0 0-9.9-5.84c-2-.7-3.88-.42-5.92-.51a13.58 13.58 0 0 1-5.93-1.73 1.51 1.51 0 0 0-2.09 1.95l-.08.05a10.66 10.66 0 0 0 1 1.53c1.55 2.55 3.14 5.08 4.5 7.72.15.28.29.57.43.86-.19 1.06-.37 2.11-.55 3.09l2.16 1.47c.22.49.45 1 .69 1.43-.23.77-.45 1.48-.72 2.35l2.5.49a21.54 21.54 0 0 0 3.46 3.62c.8 1 1.63 1.92 2.49 2.84.67.72 1.44 1.69 2.31 2.55v1.07l1-.24a3.64 3.64 0 0 0 3.94.76 1.51 1.51 0 0 0 0-2.59 18.22 18.22 0 0 1-3.75-3.08c-.17-.2-.34-.38-.52-.56-1.07-2.31-1.69-4.44-3.64-5.48a17.76 17.76 0 0 1-3.2-2.22c-.3-.48-.6-1-.88-1.47-.78-1.35-1.41-2.78-2.06-4.2-.24-2-.48-3.94-.73-6l8.07 1.21c1.83 1.35 4 2.94 6.19 4.59s3.48 4 5.44 5.8 2.18 4.61 4.16 6.4c1.61-2.49-1.55-3.09-1.46-4.86l.54-.1a10.73 10.73 0 0 0 1.38 2.1c.62.74 1.36 1.36 1.94 2.14a15.79 15.79 0 0 1 1.55 2.63c.1 2.09 1.31 4.1 1.76 6.27a6.51 6.51 0 0 0 2.31 3.44 12 12 0 0 0 2.11 2.72 3.44 3.44 0 0 1 .21.88l1.07.11a8 8 0 0 0 1.69.8c2.22 1.84 4.21 3.54 6.28 5.09 1.1.83 2.55 1.18 3.68 2 2.16 1.53 3.16 3.95 4.34 6.31l-3.69 2.49c1.47 1.12 2.29 2.79 4.08 3.35 1.7-1.89-1.23-2.24-1-3.75 1.95-.05 2.46 1.91 4.29 2.84h3.18a58.54 58.54 0 0 0-.42 7.83c.09 1.34.88 2.63.86 4.14a19.63 19.63 0 0 0 .84 4.14l1.8-1.22c-.03-3.5.01-6.94-.05-10.37ZM279.55 164.57a9.66 9.66 0 0 1-.53-1.07c-.25.24-.5.48-.74.68a12.54 12.54 0 0 0 2.43 3.42l.11.1a10.24 10.24 0 0 1 .1-1.36ZM421.8 309.49c-.08-.08-.26-.44-.5-.48-2-.41-4.25-1.45-6-1-2.54.7-5 .4-7.42.41a7.37 7.37 0 0 0-4.05 1.08c-3.53 2.52-7.33 5-10 8.31a19.37 19.37 0 0 0-4.15 10.16l2.34 1.5c.87 1.45 1.53 2.54 2.74 4.57.25-1.92.35-2.71.42-3.25l-2.88-3.25 1.34-2c4.31 4.31 5.49 6.23 6 9.76-2.33.4-4.48 1.89-7.51.78-.3-1.21-.67-2.67-1-3.91l-4.89-3.8-1.72.1v2.73h3.18l2.91 4.22c0 1.42.37 3.19-.87 4.7a29.41 29.41 0 0 1 6.43-1.66c3.33-.47 5.86-1.58 7.3-4.54l4.44-.35c-.46-1.37-.82-2.42-1.26-3.69 1.63-1.1 2.18-3.16 4.07-4 4.09-1.77 5.57-6.16 8.76-8.84.22-.19 0-.86 0-1.31l-4.18 2.08-2.47 5.14h-2c-.17-.85-.36-1.77-.55-2.69h-.48l-.28 4.19-1.47 1.41a9.6 9.6 0 0 1-4.35-4.9l-2.27 1.41c1.54 2 3.63 3.35 4.59 5.7-1.57.12-3-.1-3.6-1.39-1.13-2.46-3.63-3.1-5.48-4.57-.18-.15-.59 0-.91-.09 1.29 4.07 6.28 5.24 7 9.82l-1.13.92c-1.1-1.07-2.87-1.87-2.19-3.86-3-1.42-4.59-3.82-7.05-6.35 1.57-.28 2.48-.44 3.4-.53-.26-.86-.55-1.79-1-3.05l4.17-3.08 5.8 1.22 2.76 2.74c-.1-3.46-2.37-4.85-4.3-7.13l2.59-.72-.65-.62h2.87c1.68 1.43 1.84 4.19 5.41 4.51-1.47-1.48-2.41-2.43-3.18-3.22v-2.1c1.17-.19 2.58 0 3.34-.62 1.26-1 1.48 1 2.64.49 1-.45 2.33-.09 3.45-.09 1.4 2-.65 3.6-.48 5.41l1.6-1.07c.27-1.84.49-3.46.72-5.2Z"/><path d="M63.24 104.22c.39-2.57.75-5 1.14-7.53.93-.88 2.21-1.81 1.23-3.57l-1.7-.58c.26-1.11.49-2.13.72-3.11l-1-1c-1 1.41-2 2.8-3.1 4.36-.18 2 .46 4.27-.91 6.72l1.78.94c-1.33 2.41-2.54 4.46-3.61 6.58s-2.24 4.47-3.17 6.79-1 4.72-1.51 7.07-2 4.62-1.54 8.22c-.87-1.68-1.25-2.4-1.68-3.22 1.41-1.64.75-3.77.63-5.7-.13-2.22 1.6-3.68 1.79-5.57.21-2 .35-3.94 1.66-5.66 1.18-1.55.77-3.94 2.57-5.22-.28-2.06 2.28-3.14 2.08-5.66a13 13 0 0 0-1.8.89c-1.54 1.18-1.87 3.17-2.94 4.61-2.42 3.29-3.06 7.2-4.06 10.92-.58 2.15-1.12 4.37-1.58 6.57-.57 2.72-.83 5.44.55 8-1.13 2.48-1.23 4.27-.52 9.77h2.44v-6.19h.52c.18.92.36 1.84.54 2.71h1.1a27.86 27.86 0 0 0 1.35-10.72c-.15-3.48 1.22-6.74 2.3-9.85 1.33-3.97 3.1-8.01 6.72-10.57ZM357.16 166.37a14.38 14.38 0 0 1-2.82-1.9c-1.35-1.09-2.35-2.49-4.06-3.27a3.25 3.25 0 0 1-2.1-3.6c.06-.36-.72-.88-1.28-1.51-.92 1.32-2 1.23-3.27.45-.93-.57-2.28-.64-3-1.36-1-1-2.15-.8-3.29-.84s-2.33.33-3.08-.15c-1.12-.71-2-1.21-3.14-.34l.88 1-1.68.81 14.31 16.15v2.22h3.8c-.67-2-1.4-3.68-2.93-4.82-3.73-2.77-5.16-7.27-8.29-10.4l.86-1c2.61.76 3.31 4.17 6.14 4.65l5.73 7.48c.11 1.43.22 2.81.37 4.68 1.23-2.41 3 .11 4.21-1.3a2.2 2.2 0 0 1 2.14 0c1.92 1.9 3.4.22 5-.4-.27-.47-.75-.92-.77-1.4a5.72 5.72 0 0 0-3.73-5.15Zm-.8 3.85c-.34.11-.77.41-1.1.32-1.83-.5-3.86-.68-4.42-3.15-.15-.69-1.11-1.19-1.68-1.76l1.56-1.61 5.64 4.57ZM359.93 192.69c-1.43.91-2.88 1.77-4.37 2.56a1.43 1.43 0 0 0-.15 2.42.59.59 0 0 0 0 .08h.1a1.43 1.43 0 0 0 1.6.12q2.48-1.32 4.81-2.85c-.14.4-.29.8-.41 1.2a37.93 37.93 0 0 0-1.16 7c-.27 2.7-.53 5.4-.8 8.1-.19.3-.37.61-.56.92.14.3.27.61.38.91-.16 1.72-.33 3.45-.5 5.17a43.54 43.54 0 0 1-2.93 13.24 74.51 74.51 0 0 0-3.31 8.44 44.33 44.33 0 0 1-.67-6.17 18.54 18.54 0 0 0-1.87-7.36c1-2.61 2.46-5.13 1.51-8.23-.44.42-.95.66-1 1-.94 3.58-2.19 7.1-.88 10.93a7.88 7.88 0 0 1-.17 6.36 2.24 2.24 0 0 0-.28 1.64c1 2.5 2.15 4.94 3.31 7.56l.58-.65a1.63 1.63 0 0 0 1.73-1.42.43.43 0 0 0 0-.11 12.09 12.09 0 0 1 3.3-1.31l-1.89-2 3.73-6.14v-5a50.85 50.85 0 0 0 1.75-9.77c.29-3 .59-6 .88-9a15.64 15.64 0 0 0 .93-2.18 11.34 11.34 0 0 0 .5-3.38c0-1.17-.37-2.34-.44-3.51v-.47a25.59 25.59 0 0 1 .53-2.88c.16-.63.35-1.25.56-1.86 1.66-1.67 3-3.58 2.24-6.76l-.74.11a1.61 1.61 0 0 0-1.81.18l-.22.15-.46.11c-1.7.43-2.73 1.67-3.82 2.85ZM372.95 216.65l-6.38-1.14-1.85 3.08c-.49 3-.95 5.79-1.4 8.53l-1.93 2.11c1 2 1.92 3.75 2.82 5.53.82-.69 1-1.26.9-1.78s-.52-1-.6-1.55a14.05 14.05 0 0 1 0-2.16c1.68-.3 2.83 0 3.42 1.14l-.94 2.19h3.39l1.63-3.72 3.33 1a7.69 7.69 0 0 1 0-1.66 5 5 0 0 1 .55-1.22l-5.18-5-1 .47 3 4.81-2.78 1.21c-2.93-2.12-4.16-4.67-3.45-8.17a10.24 10.24 0 0 1 1.75-1c1.58-.58 2 1.29 3 1.6l1.63-.86 5.58 6.52.64-.42c-.35-1-.71-1.92-1.1-3 2-.42 3.19-1.31 2.81-3.19 2.73-4.46 8.33-3.5 12.44-7h-5.22l-7.92-13.33c.48-.71 1.06-1.69 1.77-2.57.22-.28.76-.3 1.17-.44l.92 1.92 1.31-.09a17.26 17.26 0 0 0-.23-2.41 17.75 17.75 0 0 0-.84-2.32c3.06-3.31 7.64-3.4 10.67-6 4.16 0 8.21.35 12-1.44l-1.56-1.55a15.42 15.42 0 0 1-3 1.07 23.79 23.79 0 0 1-4.05 0 13.08 13.08 0 0 0-10.77 4.56h-3c-1.5 2.09-3 4.39-4.72 6.49s-2 5.33-3.71 7.45a12 12 0 0 0-2.52 9l4.5 5.87c-.05.8-.12 1.8-.2 3.08-2.87-1.16-3.21-3.89-4.88-5.61Zm5.49-14.62c.41.12 1 .1 1.17.36 1.36 2.26 3 4.34 3.87 6.92.57 1.68 2.68 2.84 1.49 5.24h-2.94c-1.73-2.9-4.36-5.57-4.57-9.57Zm-3.2 10.65c.07-1.41.12-2.39.17-3.37.63 0 1.13-.1 1.19 0 1.4 2.89 4.26 5.16 4.11 9.1-3.7-.49-2.74-4.69-5.47-5.73Z"/><path d="M109.66 236.71a1.17 1.17 0 0 0 .27 0c2.69 2.83 5.5 5.24 9.62 5.13l1.36-1.36-6.23-2.16v-3.29c.62-1 2.32-1.33 1.32-3.25-4 2.37-8.54 1.94-13 1.93-.49 0-1-.06-1.48 0-3.55-.2-7.09-.6-10.62-1.07l-2.6-1.82-3.29.8a10 10 0 0 1-3.08-1.54c-1.48-1.06-2.94-2.16-4.39-3.27-2.53-1.93-5-3.94-7.42-6l.19-.18h10.6a1.51 1.51 0 0 0 1.23-2.33l3.34 1.92c.18 1 .33 1.84.44 2.49 3.1.62 5.53-.77 7.9-1.63l4.5 2.08 2.58-2.37c3.55 1.41 7 2.56 10.07 2.08l7.73 3.82c1.89 2.86 3 6.18 7.14 6.1l.94-2 2.73 1.2a10.12 10.12 0 0 0-1.81-6.37c-2.2-.53-3.88.57-5.67 1.73a3.59 3.59 0 0 0-.29-1.25 13.43 13.43 0 0 0-5.88-4.15c-1.81-.77-2.62-1.39-3.12-3.18-1.18-4.2-2.26-8.42-5.37-11.78-.37-.4 0-1.46 0-2.21l-3.68-1.23c.31-2.48 2.51-2.25 3.68-3.28-.5-1.43-3.17-1.08-2.71-3.3-2.43-4.11.55-8.21 0-12.32 0-.11.13-.24.2-.37l1.31-1.31 1.39-7.76 1.61-.56a9.65 9.65 0 0 0 0-1.56c-.32-1.86-1.15-3.48-.17-5.65a5.58 5.58 0 0 0-.56-5.48c-1-1.41-1.85-3.27-.2-5.06.28-.3 0-1.07 0-1.65l-2.53 1c.13-3.94.81-4.38 3.92-3a21.07 21.07 0 0 0 5.51-6.18c2.09-3.45 4.33-6.9 7.56-9.49a9.15 9.15 0 0 1 .89-.54h3.39l2.32-3.47 2.4 3.1c2.45-2.33 3.25-5 4-7.75l1.31.34v5.81l-.13.12a2 2 0 0 0-1.58 2.18c-1.27 5.14-2.21 10.32-1.66 15.32l-2.2 2.68.57.45-.13.22a73.44 73.44 0 0 0-4 9c-.45 1.19.85 2 1.85 1.84 1.48-.23 2.21-1.69 2.83-2.89.18-.33.34-.67.52-1a12.19 12.19 0 0 0 6.72-4.75l.26.15c4.56-2.3 5.8-6.7 7.64-11 .53.23 1.07.44 1.63.62 3.55 1.16 7.44 1.24 11.14 1.24a141.55 141.55 0 0 0 20.83-1.74l.17.11c1.52-.25 3-.46 4.32-.79l1.5-.23a1.2 1.2 0 0 0 .89-.6 8.92 8.92 0 0 0 2.32-1.52l-.6-1.24c-.64.32-1.27.63-1.93.91a1.3 1.3 0 0 0-1.08-.5l-7.43.19-2-2.12c-1.08.29-1.62 1.48-2.67 2.21-6.17.11-12.34.19-18.52.19a30.76 30.76 0 0 1-6.14-.46l-.95-.46a35.77 35.77 0 0 1-5.07-4.61 9.51 9.51 0 0 0-.66-3.71c1.07-.61 2.15-1.17 3.22-1.78s1.87-1.18 2.78-1.78l.92-.45a3.4 3.4 0 0 0 1.28 0 27.15 27.15 0 0 1 10.56-.63c1.56.62 3.08 1.33 4.64 1.94a37.23 37.23 0 0 0 6.94 1.93 40.56 40.56 0 0 0 6.22.6 7.66 7.66 0 0 1 1.72 1.32 4.89 4.89 0 0 0 3.09 1.09 1.61 1.61 0 0 0 .92-.35 16.94 16.94 0 0 0 2.76.23 9.87 9.87 0 0 1 2 .08 6.55 6.55 0 0 1 1.9.82c2.23 1.3 4.71 2.78 6.31 4.86a1.55 1.55 0 0 0 2 .54 1.51 1.51 0 0 0 .54-2.05c-.17-.22-.35-.43-.53-.63.3 0 .63.09 1 .17-.27-.25-.54-.48-.82-.71a1.24 1.24 0 0 0-.22-1.05 17.2 17.2 0 0 0-7.43-6 13.05 13.05 0 0 0-1.76-.6 12.59 12.59 0 0 0-2-1.06 1.2 1.2 0 0 0-1-1c-7.68-1.39-15.39-3.15-23.15-4-2.11-.23-4.28-.4-6.44-.43 1.53-3.26 3-6.41 4.52-9.68-.29-.5-.63-1.1-1-1.66 2.05-3.54 1-8 3.57-11.28-.95-1.34-2-2.76-1.7-4.59s.69-3.59 1.11-5.75l-2-1.22c0-2.58-.4-4.79.11-6.76.56-2.13-2.67-4 0-6.14l-2.75-1.77a48.35 48.35 0 0 0-1.83-5.22 60.44 60.44 0 0 0-3.12-5.28l-5.66.85a1.58 1.58 0 0 0-.81-.61c-1.09-.28-2.36.43-3.33-.71s-2 1.63-3.33-.14c-.41-.57-2.28-.09-3.48-.09h-5.41c-1.65 0-3.47-.44-4.91.11-1.74.66-3.16-.27-4.71-.1a6.47 6.47 0 0 1-5.58-1.94c-.46-3.63-.89-6.94-1.32-10.25-.19.23-.39.45-.59.67l-3-4.42c-.91 1.3-1.59 2.26-2.27 3.25l1 1.86 1.3-.17-.72-1.47 1.62-.24c.64 2.92 1.4 5.77 1.84 8.67a32.44 32.44 0 0 1 0 5.4c0 .11-.2.21-.07.08l-2.76-.38c.72 2.57 2.81 4.31 1.73 6.83l-1.94.8 4 5.64c-.08 1.18-.17 2.46-.3 4.22l-3.72-2.56c.81 3 3.29 4.8 1.82 7.27l-2.3-.78 3.75 6.49-2.36 2.58c2.46 5.73 5.55 11 10.37 15l-2.47 5c-3.15-4.35-4.56-9.65-9.42-12.75.36 1.77.64 3.14.92 4 1.86 2.38 3.17 4.37 4.45 6.31l-2.34 3.7-4.27-7.16 2.16-1v-1.86a4 4 0 0 1-2.33-.12l-5.66 1.88 2.78 5.38c-1.07.79-2 1.5-2.94 2.14l1.33 3.78-2.7 2.7c.22.22.89.58 1 1.09.94 3.28 3.34 5.81 4.5 9a6.34 6.34 0 0 1 .18.67l-1.9 1.41-6-7.77v-5.67l-2.2-3.1-.61.34c.74 1.76 1.48 3.52 2.25 5.33l-2.3 1.08c.33 2.76 2.52 4.43 3.77 6.61.16 1.54-.41 2.56-2 2.84-2.41-1.43-3.2-3.83-3.8-6.58-.89 2.23-2.4-1.07-3.08.5 1.26 3.45 4.21 5.85 4.57 9.17l2.87 2-1.79 4c-2.26-.53-2.1-2.18-2.39-3.51l-2.44-.49c-.13-3.14-.7-5.89-3.05-7.68l-3.14 2.82c2.42 4.15 5.62 7.61 8.26 12l-2.32 2.86-4.53-8.24-2.55 1.07c2.94 1.77 2.65 4.68 4.52 6.4.28.27-.09 1.25-.14 1.71l-2.83-.73 1.09 1.43c-.38 1.79-.67 3.15-.86 4l2.65 3.89c.54 1.6-.64 3.43.9 4.57l-3.23 4.21c-.41 2.73-.8 5.13-1.14 7.55s-.75 4.85-.86 7.29-.51 5 .52 6.54l-1.16 2.76c-1-1-1.94-1.49-1.93-2 0-2-1.94-3.37-1.86-5.07.1-2.14-.95-3.91-1.09-5.94a19.32 19.32 0 0 0-1.32-5.75 28 28 0 0 1-2.29-9.45c-.07-1.72-.77-3.43-1.42-6.06-.88 1.47-1.26 2.11-1.74 2.9-2.83-.78-5.07 1-7.51 2.11 0 1.58-1.32 2.29-2.27 3.09a31.1 31.1 0 0 1-4.1 2.47c-.27 1-.53 2.25-1 3.43-.6 1.65-2.43 1.22-3.6 1.81v4.32l-2.23 3.31-2.2-1.13c-1.45-3.46-1.45-3.46-3.5-3.92.31 1.9.61 3.82.89 5.52l-1.39 1.32-3.52-2.27c.55 2.75.92 4.64 1.28 6.45l-2.51 1.27c-1.08-1.33-2.51-.66-4-.7.4 1.61.71 2.91 1 4.2-1.41-1.84-5.57-1.29-4.45-4.89l3.24-3.24c1-1 2.45-1.77 2.74-2.9.46-1.73 1.72-2.09 2.56-2.6a17.58 17.58 0 0 1 1.69-3.24 50.76 50.76 0 0 0 8.93-15.25 6.45 6.45 0 0 1 1.59-2.48c1.79-1.71 2.12-3.92 2.57-6.18.79-3.92 1.57-7.82 2.08-11.82.48-3.68 1.64-7.39 2.43-11.11a10.14 10.14 0 0 1 1-2.19l-1.12-1.21 1.1-2.71-4.64 2.92c.23-3-.14-5.26.79-7.78 1.21-3.26 2.47-6.5 3.74-9.73.15-.37.29-.74.43-1.09h1.99c1.36-3.21 2.69-6.36 4.4-10.38-1.42.76-2.49 1-2.68 1.51-1.14 3.16-3.53 5.28-5.45 7.15a21.3 21.3 0 0 1-1 2.8c-.61 1.11-1.75 2.06-2 3.22a74.21 74.21 0 0 0-1.79 11 18 18 0 0 1-2.72 8.78l5.37 1.61a8.9 8.9 0 0 1-2.81 6.53c.9 4.86-2.34 8.94-2.83 13.6l-1.6 1.6v4.19a56.84 56.84 0 0 1-3.67 6.89c-1.52 2.1-1.72 4.78-3.35 6.75-1.76 2.14-3.6 4.22-5.41 6.33s-3.34 4.06-5.12 6a31.74 31.74 0 0 1-6.32 5.5l-.43.05-9.89 7.16h-2.57c-.4 1.72-2.56 1.68-3.42 3.38-.45.87-2.49 1-3.83 1.34-1.51.37-1.87 2-3.37 2.59-2.87 1.1-4.6 3.73-6.58 6a14.64 14.64 0 0 0 6.72-4.46c6.67-2.86 11.56-6.79 17.35-8.89 2.83-3.11 6.88-4.53 9.77-7.27 2.72.59 1.59 3.31 2.92 4.56.08.07-.17.49-.33.91H34.2l-3.1 3.69-4.8-1c-.18 2.94-.18 2.94-1.38 4.16l-2.69-.49-2.8 4.33c-3 .85-5.83 1.55-8.61 2.51-1.14.4-3 .06-3.09 2.13-2 .26-3.06 3.09-5.38 1.73-.88.92-1.63 1.66-2.3 2.46-.13.16 0 .56.06 1.31l4.19-2.62 3.8-.52c.9-.14 1.8-.3 2.76-.46v5.84c.43.42.85.85 1.22 1.22h2a25.11 25.11 0 0 1 5.32-8l1.31 1.31c-.68 1-1.44 2-2 3a15.77 15.77 0 0 0-1.47 3.44c-.11.37.57 1 .94 1.5a49.42 49.42 0 0 1 3.55-5.62 36.6 36.6 0 0 1 5.51-5.41c1-.82 2.61-.92 4.15-1.42.89-2.86 3.59-3.72 6.4-4.36a10.47 10.47 0 0 1 .34-1.26 12.14 12.14 0 0 1 .66-1.26c3.25 1.27 3.89 1.31 4.73.26v-1.87l3.35-.19c.66-1.45 1.28-2.85 1.94-4.3l3.58-.2c.37-1 .8-2.2 1.3-3.54h4v-4.83l1.6-1.6h3.2a27.66 27.66 0 0 1 2.21-2.54c.85-.76 2.42-1.2 2.65-2.06.61-2.23 2.52-2.48 4-3.38l2.62 1.25v-4.85l2 1 1.5-1 2.7 5c.42 3 .85 6 1.25 8.77a58.47 58.47 0 0 1 3.34 6.46c.93 2.47 1.77 5 2.88 7.37 1.22 2.67.87 5.61 1.67 8.33a1.45 1.45 0 0 1-.18.81c-.63 1.55-1.27 3.08-2 4.77h-5.25c-1.81 0-3.91-.59-5.34.14-1.92 1-4 0-5.49.89l-.15.08h-6.8a1.41 1.41 0 0 0-1.45 1.4c-.59.29-1.24.64-2.06 1h2.34a1.36 1.36 0 0 0 1.17.59h1.94l.18.09a1.23 1.23 0 0 0 .48 1.1q1.89 1.6 3.8 3.16l-.11.12a9.65 9.65 0 0 0 2.29 1.64c1.06.84 2.12 1.69 3.19 2.51s1.94 1.53 2.93 2.28l.11.22h.21a14.6 14.6 0 0 0 6.34 3c7.97 1.3 16.12 2.35 24.2 1.94Zm26.4-113.34a19 19 0 0 0 1.06-2.64 14.79 14.79 0 0 0 .18-2.48h1.51c.08 1.39.16 2.81.25 4.19l3 1.37c1.16 2.07 2.34 4.17 3.57 6.38l-.23.15c-1 .61-2.13 1.18-3.19 1.78l-.15-.1-.12-.23a1.24 1.24 0 0 0-1.38-.72l-.87-.56c.41-1.59.81-3.07 1.27-4.83Zm3.12-15.51 1.87 3.19.49-.54v4.32l-3.12-.79c-.35-1.78-.62-3.13-.94-4.74Zm-.15-3.48v-3.01c.24 0 .55-.15.63-.06 1 1.09 2.68 1.93 1.81 4Zm19.65 4.2v7.73l-2.57.18c.08-2.82-.65-5.51 2.57-7.96Zm-11.87 17.07-1.51-1.59v-1a15.35 15.35 0 0 1 4.36-1.52c.08 1.26.14 2.24.23 3.52l-.61.45c-.84 0-1.66.04-2.47.09Zm6.25-5.6-3.7-2.43 1.78-2.14c2.16 1.28 2.16 1.28 1.92 4.52Zm-1.51-17.11a10 10 0 0 1 2.8 2.39l-2.51 1.73c-.11-1.69-.2-2.88-.29-4.17Zm-2.75 1.41-3.5-3.47v-1.51h3.21c.45 1.39.84 2.59 1.25 3.83Zm.2 6.43-1.45 2.93-3-3v-5.38c3.08 1.04 2.75 3.91 4.45 5.4Zm-2.14 7.77c-.52 1.18-1 2.33-1.72 3.91a8.75 8.75 0 0 1-2.31-3.6c.35-1.13.71-2.24 1-3.3 2.47-.19 1.96 2.25 3.03 2.94Zm12.2-25.24-2.76 2v-5.66c1.85.4 1.71 2.31 2.76 3.61Zm-13-22.34c.25-.26.22-.8.38-1.43.83 0 1.71.06 2.57 0a13.42 13.42 0 0 0 1.86-.44c2.18 2.18 4.46 4.45 7.2 7.2.12.62-1.16 1.92-.26 3.49.28.49-.66 1.68-1 2.46-3.05-.41-2.41-2.47-2.52-4.14l-4-3.43c-1.52 2.67.63 4.36 1.43 6 .89 1.86.3 4 2 5.6l-1.94.54c-.11-.78-.21-1.46-.28-1.9l-6.1-6.1-.81.81a12.43 12.43 0 0 0 4.14 6.42v5.09l-5.06-3.77c-.11 1.18-.2 2.14-.25 2.71l2.51 4.44-3.57.37-4-4.45-1.59 4.19-1.12.29a2.76 2.76 0 0 0-.31.77 10.57 10.57 0 0 0 0 2.25c.2 1.23.81 2.46.75 3.66 0 1-.8 2-1.27 3.1h-1.79l-.9-1.91a3.8 3.8 0 0 0-1.19.49 6 6 0 0 0-1 1.36c-.3.48-.53 1-.82 1.55l2.54 3.76v2.72a3.63 3.63 0 0 1-1.3.14c-.94-.26-1.83-.66-2.8-1-1.06-2.12-2.26-4.32-.45-6.56-.39-1.89-.67-3.25-1-4.7 2.53-1.1 4.06-3.73 7-3 1.93-2.46 1.17-5.19 1.41-8.19l5.86-1.85c.86-1.44 1.71-3 1.27-4.8-.55-2.28.85-4.21 1-6.39s1.86-3.86 3.4-5.4Zm-22.37 2.55-3.39-2.29c-.9-1.69 0-2.65 1.25-3.71a14.16 14.16 0 0 0 3.47 1c1.06 0 2.58-1.11 3.13-.71 1.23.91 2.11.25 2.91-.17 1.36-.72 2.3 1.38 3.87.2.86-.65 2.6-.14 3.95-.15h4.52c.29 3.69-2 6-3.47 8.66l.88.94-1.89 4.86c-3.4-.09-6.74-.25-9.6 1.78-5.97-2.75-7.51-5.56-5.64-10.46Zm1 20.73a13.73 13.73 0 0 0 1.62-8.06l2.4-1.22 4 1 2.31-2.1 2.81 1.24c-.07.19-.09.49-.24.58-1.55.94-3.12 1.84-4.6 2.71-.45 2.18-.86 4.22-1.3 6.36h-3.39l-.28 1.4-2.61 1.33a3.78 3.78 0 0 1-.71-1.2 3.21 3.21 0 0 1-.01-2.09Zm-5.39 25.52 2.35 1.15c.7 2.34-.19 4-1.44 5.53l-.91-.29Zm-4.67 25.73-1.93-3c.44-.53 1-1.16 1.45-1.78 1.23 1.01 1.88 2.13.43 4.78Zm-5.81-26 2.17-2.71c2.56 2.6 3.75 5.59 5.37 8.27l-1.38 1.31c-1.76-.29-2.33-1.43-2.15-3.5Zm-.52 27.07 2-1.68c.66 1.25 1.16 2.2 1.85 3.53l-2.54 1.29c-.91-.14-1.46-1.34-1.31-3.14Zm-2.58-8.71c.88 2.3.88 2.3-1.54 4-.99-2.22-.04-3.19 1.54-4ZM23.3 211.85l-.87.39-2.12-3.64 3-.23Zm39.73-33.94c-.09.7-1.2 1.28-2.37 2.41-.13-1.84-.2-2.92-.27-3.89l1.69-1.69c.43 1.19 1.11 2.23.99 3.17Zm33.47 38.46c-2.67.71-4.55-.42-6.26-2 .86-5.76.86-5.76.62-8.77l3.92 4.36c-1.48 2.41 2.52 3.72 1.72 6.41Zm3.6-1.45.49-1.15c2 .27 2.35 2 3.3 3.14-2.16-.22-2.17-.2-3.79-2.03ZM92 175.5a20.3 20.3 0 0 0 1.93-4h2.22l1.27 3.85-.85 1.25c1.48 2.4.6 5.24.93 8 .3 2.51.93 5 1.55 8.12-2.41 3.24 1.07 6.65.16 10.05 3.29 1.24 2.68 3.86 2.73 5.31l3.08 3.07 1.25-1c.75 1.38 1.47 2.73 2.47 4.59-3.22-1.11-6-1.78-8.23-3.68-.23-.19-.42-.6-.64-.61-2 0-2.71-1.28-3.83-2.76a29.66 29.66 0 0 1-5-10.08 79.24 79.24 0 0 1-1.5-8.33c-.66-4.71-.75-9.62 2.46-13.82ZM353.89 117.22l-1 1.43c.33.5.63 1 .82 1.27-.8 1.61-1.49 3-2.1 4.19a25.67 25.67 0 0 1-16.5 4 12.33 12.33 0 0 1 .23 3.36 11.05 11.05 0 0 1-1.54 2.94c-.52.87-1.11 1.68-1.75 2.62 3.57.65 3.94-2.3 5.52-4.25 4.12-.45 7.93-2.66 12.11-3.72 1.86-.47 2.28-1.53 2.2-2.7a52.17 52.17 0 0 0 3.53-5.28 39.14 39.14 0 0 0 1.86-5.14l3.69-1.5c-4.4-.26-8.47-1.45-12.62-2.24v2.17c2.18.37 4.18.92 5.55 2.85ZM408.87 195.23l-1.57 2.67c-2.05-1.58-3.89-1.25-5.72-1.12-.68 1.16-1.26 2.13-1.92 3.27v6l-4 5.21-.32-.44-3 1.39c7.14.1 10-3.84 9.17-10.15l2-2.49 5.3-1.25 2.83-2.18c-.34-2.7-.67-5.28-1-8.07l2.86-3.05h-2.55l-3.65 2.35c.77 1.67 1.41 3 2.09 4.54v3.75ZM407.89 287.37a20.51 20.51 0 0 0 8.91 4.74v-2.52c0-.85-1.23-1.52-.08-2.34a18.65 18.65 0 0 0-6.78-6.83c-.21 1-.41 1.92-.63 3l-8.19-5.91c1.47 4 4.87 5.46 6.65 8.23.02.51-.18 1.38.12 1.63ZM328.48 366.65c.21-.21.41-.44.63-.63s.67-.5 1-.72c2.71 1.69 5.46.68 8.15.75a5.92 5.92 0 0 0-5.05-.86c-2-1.57-4.24-.3-6.95-.92.55 1.72.91 2.87 1.28 4 .42 1.33.86 2.66 1.09 3.39l2.37 3.09c-.43.7-.65 1.05-1.05 1.72 3.57 2.19 3.92 6.47 6.61 10.52a19.87 19.87 0 0 0 0-3.23 16.58 16.58 0 0 0-.86-1.88c-.83-2.39-2.15-4.66-1.82-7.35a2.47 2.47 0 0 0-.2-.81l-1.44-1.44v-2.57l4.51 1.13 2.06-1.52c-7.69-.67-9.59-1.19-10.33-2.67Z"/><path d="m77.98 101.83-6.54 7.33h-2.37c-.27.26-.42.35-.47.47-1.4 3.11-4.15 6-1.83 9.77a1 1 0 0 1 0 .88c-1.75 2.58-.79 5.47-.79 8.19a4.34 4.34 0 0 0 2.78 4.29l1.54-1.2-2.36-3.67c.26-2 1.07-3.81.48-4.65a5.23 5.23 0 0 1-.68-3.79c.19-2.54.66-5.07 1-7.81l5.56-2.18c.81-1.06 2-2.85 3.48-4.48a2.29 2.29 0 0 0 .2-3.15ZM195.18 283.2c1.83-.73 3.38-2.17 5.26-1.71 1.39-.95 2.52-1.84 3.75-2.52 4-2.22 4.6-3.48 3.61-9.27-.59 3-1.1 5.23-3 6.44-2.53 1.59-4.32 4.34-7.82 4.53-2 .11-4 1.11-5.92 1.69-2.07-.91-4.09-1.81-6.12-2.67a1.36 1.36 0 0 0-.89 0 9.15 9.15 0 0 0-1.27.75l2.3 2.47 4.79 1.17c1.5-1.46 3.65-.22 5.31-.88ZM402.61 344.52h9.94c1-1.3 1.7-2.31 2.45-3.31 0-3 0-3-1.38-4.51-.87 1.5-1.76 3-2.74 4.69l-5.5-3.84-1.08 1.17c1 1.13 1.93 2.22 3.22 3.72l-5.22.93c.11.4.22.8.31 1.15Z"/><path d="M315.08 353.66c-1.4 0-2.79-.93-4-.11L307 351l-.73.82c-.11-.23-.22-.47-.34-.7a18.45 18.45 0 0 0-2.91-4 15.6 15.6 0 0 1 11.68-3.39c2.06.2 4.15 0 6.22 0-2.16-1.07-4.43-2.86-7-.94-.38.28-1.17 0-1.77 0h-6.64l-4.39 2.6a19.65 19.65 0 0 0-6.9-2.68c-1.48-.36-2.95-.69-4.43-1a5.77 5.77 0 0 1 2.28-3.54l2.32 1.15 1.08-1 4.76 2.41c1.33-1.21 3.58-1.23 5.08-3.69l-4.8 1.27c-1.43-1-4-1-3.68-3.91 1.46-2.51 4.31-3 6.55-4.5.65.31 1.14.58 1.66.78s1 .28 1.66.47c-.42-1.06-.7-1.74-1.15-2.87h6.09c-.54-1-.84-1.64-1.38-2.69l3.71-3.37c-.39-1.08-.77-2.13-1.07-3 1-1.5 2-2.16 3.81-1.41-.19 1-.38 2.16-.58 3.28h1c.44-1.13.89-2.29 1.42-3.68h3.12l-.53-3.44 4.21-4.5c3 1.7 3 1.7 6.48 1.51l1.58-1.9c-3.19-.83-3.6-3.59-5.54-5.78l5.39-.49c-1-2-2.4-3.81.34-4.76l5.44-1.87 2.54 1.34.78-.7c1.3 1.52 3.11.47 4.46.87l2.51 2.09 1.52-2.65-1.22-1.29h-5.47l-3.08-3.08-2.22.5-1.42-1.58c2.16-.87 1.85-2.91 1.79-4.65 2-.47 3.2.26 4.71 1.13a41.52 41.52 0 0 1 8.44 6.81c.29.29.52 1.2 1.35.39-.1-.36-.09-.9-.36-1.13-3.36-3-5.81-7.08-10.37-8.68-.55-.19-.85-1.06-1.09-1.38l2.43-3 11.55 6.69 1.69-2.15-1.68-1.77-3.77 1 2.58-3.54-6.45-2.24a21 21 0 0 1-.86-3.24 35.17 35.17 0 0 1 0-4 4.5 4.5 0 0 1-.69-.7c-1.09-1.81-.57-4.08-1.25-5.8-1.71-4.32-.27-7.72 1.92-11.2a31 31 0 0 0 1.66-3.37c-3.41 1.69-4.41 5-5.9 7.4-.91 2.8 1.07 5.73-1.62 7.76l-3.37-2.24c1.72-2.52 1.1-5.08 1-7.78l-2 1.46a24 24 0 0 1-1.47-2.66c-.25-.65 0-1.65-.37-2.08-1.61-1.7-2.34-3.82-3.33-5.85-.53-1.08-1.74-1.83-2.6-2.69l-1.43 1.2c1.46 1.62 3.65 2.93 3.39 5.26l1.65.51c-.73 3.36 2.29 5.77 1.87 9.24-.36 3.05.55 6.26.95 9.88 1.11-1.74.35-4.27 3.1-4 1.3 3.21 2.58 6.44 3.95 9.63a7.53 7.53 0 0 0 1.47 2 17 17 0 0 0 2.06 1.45c-3.54.61-6.19 1.46-7.87 2.9l-2.6-1.36 2.74-2.93c-.8-2.28-1.68-4.77-2.51-7.15l-2.35 1.22c-.39 1.56-.8 3.2-1.22 4.9h-2.28a18.59 18.59 0 0 0-4.87-8.84 6.08 6.08 0 0 1-1.49-3.4c-.44-4.87-.65-9.77-1-14.66 0-.61-.18-1.21-.31-2.07-.68.74-1.46 1.2-1.43 1.6.22 2.61-.82 5.34.63 7.84-.85 1.57.53 3 .25 4.58s.22 3.42-.35 5.21a12 12 0 0 1-1.43-2.41 10.39 10.39 0 0 1 0-2.24c-.19-2.53-1.89-5.61-4.05-8.17-1.55-1.84-2.61-4.11-4.22-5.89-2.57-2.82-5-6.12-8.61-7.45-4.29-1.6-8.33-4-13-4.7-.7-.11-1.3-.94-2-1.47l1.06-1.82-3.87-3.9h-2.84l-1.17-1.17v-6h2.5a29.5 29.5 0 0 1 2.73-2.67c1-.74 2.18-1.26 3.25-1.92.14-.08.12-.4.21-.72h-3.2l-3.1 3.23-4.62 1.37c-1.58-1.58-3.26-3.06-4.71-4.75-4-4.65-8.66-7.06-14.42-7.25l-2.74-4.42c2.31 0 4.08-.11 5.82 0a23.81 23.81 0 0 1 3.69.87l-1.42-3-8.24 1.1-1.93-3v-2.88c.94-.23 1.87-.47 2.8-.75.49-.15 1-.33 1.47-.53l.36-.15c4.41-1.55 8.38-3.93 10.72-8.3a1.51 1.51 0 0 0-2.05-2c-4 1.74-8.06 3.48-12.23 4.84a60.14 60.14 0 0 1-12.45 2.57c-3.75.41-7.38 1.14-10.51 3.36a18.91 18.91 0 0 0-1.76 1.43c0-.18-.12-.42-.17-.65h-1.45l-.5 1.7a1.48 1.48 0 0 0-.35-.05c.17-.86.33-1.71.51-2.56a37.42 37.42 0 0 1 4.81-11.53l1.45-2.44a3.84 3.84 0 0 0 .46-.44 15 15 0 0 0 2.84-3.78c0-.13.11-.24.17-.37a11.83 11.83 0 0 0 4.18-1.16c3.85-1.77 7.54-3.7 11.55-5.11a82.54 82.54 0 0 1 11.54-3.09c.21.41.4.81.59 1.18l4 2.07h2.53l1.35-1.35-2.91-2.24c.06-1.13.1-1.83.15-2.67 1.66.23 3.19.44 5.71-1.73a5.16 5.16 0 0 1-.33-1 9.08 9.08 0 0 1 .56-5.3l.09-.6a7.1 7.1 0 0 1 1.7-3.23l.13-.18.3-.74c.7-1.89 2.71-2.81 4.73-3.34.28-.07.55-.15.53.41a8.82 8.82 0 0 1 6.07-.23 3 3 0 0 1 1.86.17l5.61 3.86c.3 2.78 4.11 2.56 4.51 5.26a24.61 24.61 0 0 1-.05 4 20.5 20.5 0 0 1-1.27 3.58l-2.28-2c-1.93 3-3.74 5.75-5.66 8.68a26.35 26.35 0 0 1-4.73-1.25c-3.09-1.46-6.67-1.87-9.23-4.58 0 1.79.65 2.37.71 3.32l-.75 1.95 1.55 1.56c.15 2.14.33 4.3-1.85 6.18l-2.9-3.71h-4.07c-1.18 1.66-2.09 3.18-2 5.22.05 1.07-.77 2.15-.77 3.23a14.19 14.19 0 0 0 .82 3.23 2 2 0 0 1 0 .9 3.08 3.08 0 0 1-.36.7l-1.19.24.86 6.83-2.69.4-.65 1.84h-5.86c1.41.67 3.27 1.8 4.15 1.27 2.72-1.61 3.86.84 5.73 1.42-.56 1.3-2.32 1.76-1.78 3.43l5.74 1c-.48-2-.83-3.52-1.22-5.17 2.2-1.65 5-2.91 7.51-1.91 2 .78 3.89 0 5.53.8a19.09 19.09 0 0 0 5.15 1.74c2.78.45 5.37 1.84 8.27 1.77 4.35 2.94 9.84 3.57 14.21 7.51-.16-1-.08-1.65-.31-1.82-3.41-2.49-6.75-5.19-10.81-6.5-1.46-.47-2.4-.8-2.51-2.42-.09-1.34-.92-1.81-2.18-2.25a15.72 15.72 0 0 0-5.51-.85c-4.8.05-9.61 0-14.4 0-.76-.77-1.51-1.51-2.15-2.15l1.17-2.25h1.82l1.55 1.91 2.35-3.12 3.66 2c1.94 0 3.9-.06 5.85 0 1.71.07 3.33 1.92 5.34.15-1.27-2.19-3.77-1.61-5.16-2.56l-1.71.76-1.77-2.49 6.38-2.31c2.84 2 5.2 4.38 8.05 5.33a22.13 22.13 0 0 1 6.22 3.73c1.59.51 3.37-.51 5.08.61 3.05 2 6.41 1.51 9.59.72.74 2.06 2.31 2.37 4.09 2.36h9a14.27 14.27 0 0 1 9 3.2c-.38 1.45-.8 2.92-1.14 4.42a20.47 20.47 0 0 0-.84 4.58c0 1.27-1 2.53-.36 3.8-.12.47-.23 1-.34 1.43a5.21 5.21 0 0 0-.43 2.16c-.22 1.25-.41 2.52-.52 3.82-.6 6.92-1.25 14.42 2.82 20.46a1.44 1.44 0 0 0 1.42.66c.24.36.48.72.74 1.08v-1.34a1.3 1.3 0 0 0 .43-1.91c-.16-.23-.29-.46-.43-.69v-.45c-.38-.6-.73-1.15-1.07-1.67a17.3 17.3 0 0 1-.86-2.73l.39-.46c-.24-.55-.49-1.1-.72-1.65-.06-.56-.11-1.12-.12-1.7a82.56 82.56 0 0 1 .49-10.54c.56-5.5 3-10.64 3.91-16.06 1.29-.21 2.36-.44 2.72-2l-3-6.63c-2.63-1.42-3.16-3.58-3.58-5.78-2.85-.94-4.5-3.14-6.07-5.47-.64-1-1.26-2.31-2.18-2.61-1.71-.57-2.62-1.88-3.7-3a7.86 7.86 0 0 0-6.42-2.66l-1.63-1.74h-4.36c-.16.33-.56 1.11-1 1.9l-2.12-5.31-3.12 3.72-1.45-2.49 2-4.11h1.35l7.56 5.11 6.45 1.17c1.06-1.17 2.82-1.93 2.24-4.15-1.28-.94-2.1-2.68-3.88-3.19-1.32 1.33.07 1.81.51 2.62a22.2 22.2 0 0 1 1.09 3.44c-6.16-2.24-10.67-6-15.89-8l-1.91 3h-3l-1.56-2.28 4.16-2.36 1.48 1.15c.36-3.19-2.18-2.42-2.95-2.86-1.05-1.65-1.79-2.82-2.4-3.76 0-2.09 3.36-2.9 1.2-5.38-1.09 2.09-2.13 4.06-3.05 5.83.66 1.87 1.2 3.39 1.75 5l-1.77 1.48c-.59-.8-1-1.38-1.33-1.78-.41-2.76-.67-5.51-1.29-8.17-.3-1.31-1-3.08-2-3.57-2.22-1.07-3.39-3-5.42-4.59l10.25-2.51 2.91-3a37.14 37.14 0 0 1 4.36-1 39 39 0 0 1 4.47 0c-.12-.82-.17-1.23-.25-1.78-2.83-.06-5.59-.4-7.47 1.71-2.45.25-4.62-.41-6.68.74-.41-.59-.82-1.16-1.22-1.72 2.3.08 3.22-1.59 4.47-2.74a2.1 2.1 0 0 1 1.05-.69c1.5-.15 1.87-2.48 3.76-1.85s2.49-1.66 4.12-2.07 2.88-1.68 4.76-1.6c.61 0 1.26-.79 2.57-1.69-1.83 0-3-.31-3.84.05-3.86 1.58-7.6 3.44-11.46 5-1.44.58-2.24 1.93-3.47 2.51s-2.64 2.58-4.25 1.07a19.09 19.09 0 0 0 .63-4.4 5.93 5.93 0 0 1 1.28-4c1.39-2 3.7-3.32 4.72-5.69 3.85-1.51 6.33-4.9 9.7-7.07 1.14-.73 2.26-1.49 3.4-2.24-2.91-3.2 1.6-3.92.92-6.85l4 2.34 1.46-3.52h2.91c.73-1 1.07-2 1.73-2.32 4.15-2.33 4.17-2.29 6.08-5.62v-6.86c1.19-1 1.89-2.5 3.78-2.22.44.07 1-.81 1.55-1.26l-1.23-1.23h-2.86l-7.56-3.9-3.24 3.78a7 7 0 0 0-6.25 2.69c-2.25 0-4.51-.13-6.75 0s-4.55.61-6.33.86l-7.24 5.23c-1.46 3.84-3.92 7.34-8.24 9.22l-1.62-.93-2.64 1.14v-4.4a20.52 20.52 0 0 0 1.84-1.88 19.91 19.91 0 0 0 1-1.83 16.09 16.09 0 0 1 1.93-2.79 4.53 4.53 0 0 1 2.47-1.55c3.62-.18 4.3-3.5 6.12-5.53.89-1 1.19-2.48 2-4.2v-.51c.32-.57.6-1.17.87-1.74a28.29 28.29 0 0 0 1.84-5.21 30.93 30.93 0 0 0 .81-5.5 50.09 50.09 0 0 1 .21-5.88 34.75 34.75 0 0 1 1.81-5.41c.65-1.86.89-3.69 2.1-5.31 1-1.37 2.12-2.66 3.86-3 1.51-.28 2.87-.4 4-1.52a1.34 1.34 0 0 0 .44-1.09l.46-.12-.55-.28a1.78 1.78 0 0 0-1-1 4.16 4.16 0 0 0-1.61-.29h-.05a2.3 2.3 0 0 0-.28-.06 19.71 19.71 0 0 0-5.08.35 4.65 4.65 0 0 0-1.76.65c-1.78.79-3.75 1.35-5.26 2.48a19.3 19.3 0 0 0-6.23 3.08 28.52 28.52 0 0 0-3.5 3.45c-.54.6-1.08 1.2-1.55 1.84a1.14 1.14 0 0 0-.47.5c-.1.25-.22.49-.34.74s-.19.39-.28.59a27.12 27.12 0 0 1-1.55 2.66c-.87 1.17-1.76 2.33-2.57 3.55-2.84 3.67-5.91 7.2-7.43 11.67-1.28 3.74-.62 7.74-1.63 11.51a13.1 13.1 0 0 0-1.44 4.48 20.16 20.16 0 0 0-.72 2.85l-3.22 1-1.72-.88c-2-3.9-1.63-7.58-1.64-11l4.34-5.11c-.44-1.46-.75-2.51-1.19-4l-5.16-2.13c.52-1.36 1.11-2.88 2-5.21 0-.69.06-2 0-3.33a14.88 14.88 0 0 1 1.38-2.69 33.69 33.69 0 0 0 3.92-7.21c1-1.13 2-2.28 3-3.5a36.82 36.82 0 0 1-2-5.3c-.42-1.94-.1-3.92-.68-6-.11-1.34-.22-2.67-.3-4a32.79 32.79 0 0 0-.71-6.18 24.61 24.61 0 0 1-.74-3.19c-.12-1.12-.1-2.25-.18-3.38a16.34 16.34 0 0 0-2.29-7.41 6 6 0 0 0 .92-.81 32.89 32.89 0 0 0 2-2.88l-3.89 2.27a14.88 14.88 0 0 0-2.36-2.47 1.51 1.51 0 0 0-.9-.37 1.59 1.59 0 0 0-1.88.52 62.23 62.23 0 0 0-7.49 12.27h-.08l-.09.34a37.07 37.07 0 0 0-1.86 5.3 17.63 17.63 0 0 0-.47 2.94c-1.48 3.79-1.63 5.26-.79 9.85a2.73 2.73 0 0 1 .05.4c-.07.62-.13 1.23-.18 1.84s-.35 1.55-.48 2.47a5 5 0 0 0 .28.64v3.28a1.45 1.45 0 0 0 1.07 1.37 4.23 4.23 0 0 1-.66 1.14 1.76 1.76 0 0 0 0 1.32c1 3.36 1.17 7 2.87 10.07.64 1.15 1.17 2 .28 3-2.82.54-1.77-4.14-5-3.43a28.39 28.39 0 0 0 5.49 7.63 6.76 6.76 0 0 1 2.66 5.22 2.77 2.77 0 0 0 .56 1.55 8 8 0 0 1 1.21 5.53 9.84 9.84 0 0 1 1.89 5.4 7.48 7.48 0 0 0 .91 2.82l3.52 1.59c0 .93-.21 1.64 0 2.11a6.21 6.21 0 0 1 0 5.6c-.13.31.15.79.27 1.29l2.25-2.07 5.94 4.09c.28-.62.44-1 .7-1.57l-4.24-3.57 1.59-3.6.8 1q0 .4.09.81a1.19 1.19 0 0 0 1.36 1.08l1.28 1.65 2-4.23-1.83-1c.23-2.85 1.87-5.62 2.46-8.35a45.17 45.17 0 0 0 .63-6.13 11.37 11.37 0 0 0 .17-1.63c.07-.55.16-1.09.28-1.63a4.34 4.34 0 0 0 .6-.79c1.07-2 1.92-4.14 2.8-6.26 2.54-3.66 5.75-6.93 7.89-10.85a1.54 1.54 0 0 0 .4-.67 3.69 3.69 0 0 1 .23-.58l.06-.13a8.23 8.23 0 0 1 1.45-1.58c.83-.44 1.74-.76 2.59-1.18 1.41-.69 2.72-1.34 3.2-3.12a3 3 0 0 1 1.15-1.33q.58-.24 1.2-.45h2.72c-.28 2.23-.93 4.37-1.39 6.47-.25.68-.51 1.35-.76 2-1 2.73-.81 5.57-.92 8.41l-.53-.86v5.17c-.06.27-.12.54-.19.81l-1.43 1.48h-4.71v1.7h3.12l1.06 1.07c-.28.89-.54 1.71-.79 2.54a2.57 2.57 0 0 1-.66.69 1.45 1.45 0 0 0-.66.93 6.51 6.51 0 0 1-4.44 1.06c-.07 0-.18.39-.43.93h3.72l1.07 3.16c-2.6 1.85-5 3.62-7.5 5.33s-3 5.43-6.31 6.33c-.05 2.3.4 4.7-1.3 6.69l-3.81 1.23c-.73 1.46-1.33 2.88-2.14 4.17a7.88 7.88 0 0 0-.88 4.6h1.66c.46-1.54.93-3.14 1.66-5.6l6.46-4.55c.49 2.44.94 4.66 1.41 7-1.14.69-2.12 1.23-3.05 1.85-3.77 2.5-4.5 6.76-6.05 10.55 1.32 2.6.4 5.39.7 8.08.24 2.14-.5 3.93-2 6.07.18 1 .47 2.36.69 3.76s.34 2.59.5 3.86L279 151.6l-2.92-5.13v-6.27l1.79-.6v-2.46c-2.09 0-4-1.95-6.37-.45.11.41.23.86.38 1.39l1.11-.88 1.17 1.23c.53 3.17-.7 6.31.86 9.37l-2 1.24c-.91-1.44-1.19-3-2.44-4.08-2.16 2.38 1.05 3.81.56 5.71-3.07-1.64-4.46-3.47-6.87-7.43a3.75 3.75 0 0 1-.15-4.13c-3-.64-1.93 2.56-3.1 3.66-3-1.5-3.59-4.86-6-6.93-1.52 2.45 1.1 3.92.56 5.28 2.38 1.64 3.48 3.79 5.07 5.87a30.91 30.91 0 0 0-15.2 0h-.11c-1.93-3.88-3.29-8-7.68-10-.28 2.92 2.37 3.54 3.56 5.2a11 11 0 0 1 2.41 5.26 62.41 62.41 0 0 0-7.22 2.53c.13-1.22.26-2.44.41-3.76a18.23 18.23 0 0 1-1.29-3.54 22.38 22.38 0 0 1-.06-4.06c-1.29-1.7-2.11-3.39-3.45-4.37l-.32-.26a1.49 1.49 0 0 0-.38-.59 20.66 20.66 0 0 1-3.45-5 31.7 31.7 0 0 0-3.71-5.2c-.12-.15-.26-.28-.39-.42v-.45c-1.36-.76-1.75-2.33-2.9-3.38s-2.22-1.89-3.37-2.77a42.34 42.34 0 0 0-3.26-3.17 26.78 26.78 0 0 0-5.74-3.29c-1.49-.72-3-1.41-4.48-2.11a8.24 8.24 0 0 1-1.47-1.19c-.15-.15-.58 0-.88 0a1.85 1.85 0 0 1-.24 0c-2.19-1-4.4-2.09-6.67-3v-1.21l-4.13-.79a1.08 1.08 0 0 0-.49-.21c-2.85-.4-5.72-.68-8.6-.8-1.94-.08-1.9 2.86 0 3 1.65.13 2.41 2 2.74 3.38s.46 2.73.74 4.08l-.74.23 1.42 2a36.27 36.27 0 0 0 5.2 9c.13.17.27.32.41.47a7.6 7.6 0 0 0 4.43 3.86c1.15.9 2.31 1.8 3.49 2.67a50.08 50.08 0 0 0 9.75 5.82c1.75.76 3.28-1.82 1.51-2.59a51.33 51.33 0 0 1-10.1-6.08c-1.54-1.15-3-2.34-4.55-3.54a17.08 17.08 0 0 1-3.83-4.3 41.16 41.16 0 0 1-3-5.18 18.33 18.33 0 0 1-1.29-4.3v-2.17l1.32-1.31h2.57a38.59 38.59 0 0 1 4.59 1.92l.8 1h1.37l2.26 1.07c2.19 1 4.38 2 6.55 3.08a21.42 21.42 0 0 1 5.55 3.29 134.62 134.62 0 0 1 9.47 9.79 31.64 31.64 0 0 1 3.17 4.72v.64h-10.24c-1.59 1.29-1.52 3.87-3.51 3.8-1.77 3.58-3.18 7-5.83 9.12-.09 1.06-.14 1.62-.18 2.13l-3 .55 3.85 1.74c.37 1.63.4 3.18-1.39 4.27l-7.53-1.2-.59.49c-4.14-.4-8.77-.58-12.62 1.09s-6.43 4.8-9 7.84c-1.72 2-3.34 4.13-4.86 6.3a33.83 33.83 0 0 0-4 3.54l-2.15 2v.16l-.5.51c-2.1 2.15-4.36 4.24-7.28 5.19a1.5 1.5 0 0 0 .8 2.89 26.11 26.11 0 0 0 8.11-3l11.08-.59.76.78c2.44 0 4.86.15 7.25 0s4.48-.69 6.66-1l.45-.73c.3 0 .6-.06.89-.11a29.78 29.78 0 0 0 10.53-3.36 25 25 0 0 0 4.34-2.15 3.53 3.53 0 0 1 0-1.08 22.84 22.84 0 0 0 3.35-4l1.6 1.6c1.38.4 3.34-.59 4.05 1.58-.37.65-.67 1.18-.91 1.63a1.24 1.24 0 0 0-.42.9c-.5 1.28-.29 2.1.34 4.55l2.58-3.34 3.77 2c1.37 0 3.13-.35 4.64.1 1.08.33 2 .93 3 .71l2.12.66c.22.06.44.14.65.21h.12c1.19.39 2.38.79 3.59 1.11l-.47.75a2.71 2.71 0 0 0-1.18.08c-4.47 1.66-9.16 1.19-13.6.66-3.2-.38-6.37-.55-9.57-.65a7.75 7.75 0 0 0-2.23.54l-2.35-.71c-3.34 3.18-7.06 5.34-11.62 5.82l2 2.36-2.57 3.67-3 .17v.43l1.21.41 3.52 5.41c1-.06 1.57-.09 2.16-.16.11 0 .21-.19.32-.3-2.35-1.32-2.35-1.32-2.6-3.72l2-1 15.22-1.43c-.53-.57-.91-1-1.07-1.14-4.53 1-8.9.21-13.11.54a2.42 2.42 0 0 1 .7-3.42c2.21-.6 4.3.25 6.67-.83l-2.24-2.54 1.88-1.88c1.13.19 2.44.8 2.91.41a3.92 3.92 0 0 1 2.87-.81c4.81 0 9.62.07 14.43 0 1.41 0 2.65.75 4.27.2.88-.3 2.07.27 3.25.76-.75 1.18-1.48 2.37-2.18 3.59-3.32 0-6.62.08-9.92 0s-6.9.53-10.28-.5v2.53l2.86-.79 11.1 1.21c1.43-1.21 3.36-.5 5.24-.59-.64 1.2-1.21 2.43-1.73 3.68h-.12c-1.18 2.83-3.12 5.45-3 9.47l1-1.9c-.21 1.09-.42 2.17-.69 3.23a4.51 4.51 0 0 1-.39.37l.23.23a15.29 15.29 0 0 1-2 4.52c-.87 1.28.81 2.75 2.05 2 1-.58 2-1.13 3.08-1.66a1.45 1.45 0 0 0 .9-.37 2.11 2.11 0 0 0 .23-.19 88.34 88.34 0 0 1 16.78-6.29 30.79 30.79 0 0 1 2.34 5.19c.67 2.19 2.79 3.94 4.34 6 0 .6.29 1.54-.05 2.07-1.77 2.76-3.71 5.4-5.46 7.9h-3l-2.08 3c-.2-1.34-.33-2.17-.45-2.93h-2.76c-.83 1.06-1.4 2.44-2 2.48-2.24.13-4.32 2.12-6.93.46-.17-.41-.42-1.06-.71-1.69s-.52-1-1-1.87l-4 7.07c2.83-.66 5-2.32 6.45-.55l5.66-.87 1.44-1.55c1.16.92 1.92 1.93 1.23 3.22l-3.79 1.43 1.32 4.29h-2.77a1.15 1.15 0 0 0-.6.19l-1.74.09-.12-.14c-.09-.1-.39 0-.76.18l-2.72.13a16.56 16.56 0 0 0-5.43.71 8.54 8.54 0 0 0-1.5.78 14 14 0 0 0-3.82 2.93c-1.35 1.1-2.69 2.23-4 3.42h-1.78l-.52 2a8.29 8.29 0 0 1-5.93-5.52c-.4-1.19-.9-2.08-2.32-2.06-.44 3.83 1.64 7.18 5.85 9.39-.58.93-1.19 1.84-1.73 2.79s-1 2-1.58 3.05l.38-.11c-.31.6-.61 1.19-.88 1.81 0 .11-.08.23-.11.34l-5-3.73c-.37 2.93 1.7 4.62 2.62 7.34-.35 1.67.77 4.13-.86 6.16l.53 1.39a4.08 4.08 0 0 0 .43 1.39l-3.65 4.68h-2.62c-1.26 5.38-6 5.47-9.82 6.8-1.78-.79-3.67-1.66-5.59-2.48-.19-.08-.51.16-.87.27v2.07c3.64 1.68 7.46 1.26 10.91 1.21l8.26-4.24c1.3-2.05 1.64-4.47 3.89-5.51l1.66 1.67h2.25v-1.7a11.88 11.88 0 0 0 2.15 0c1.25-.09 2.48-.13 3.7-.12l.86.14.11-.11c.93 0 1.87.07 2.82.16a43.29 43.29 0 0 0 7.55.3 28 28 0 0 0 5.37-.91v1.95c1.81 1.2 2.94 3 4.33 4.79a49.27 49.27 0 0 1 2.49 23.52 16.84 16.84 0 0 1-.87 2.49 1.21 1.21 0 0 0-.54 0 1.51 1.51 0 0 0-.82.62 6.2 6.2 0 0 1-2.21-3c0-.16-.75-.12-1.32-.19v3.24l2.73 3c-.65 2-1.21 3.72-1.76 5.43a8.81 8.81 0 0 0 1.38-1.34 1.39 1.39 0 0 0 .71 1.39 1.52 1.52 0 0 0 2.05-.53c.12-.25.22-.5.32-.74a1.64 1.64 0 0 0 1.11-.64c.18-.24.33-.5.49-.75 0 .16 0 .31-.06.47-.61.8-1.41 1.19-1.78 2.24 2.95-.05 2.67-2.5 3.64-3.55-.2-.55-.42-1.08-.63-1.6a28.6 28.6 0 0 0 1.18-8.34c.08-2.07.11-4.13.11-6.2l1.26 1.26c-.42 1.19-.71 2-1.31 3.75l2.41-2.29 2.3.73v-2.52l-2.82-.51c-.64-1.5-1.26-3-1.89-4.48 0-1.48-.09-3-.16-4.44a1.47 1.47 0 0 0-1.28-1.42c-.14-.63-.28-1.26-.45-1.89l.22.12-.32-.51a51.39 51.39 0 0 0-4.33-11 1.72 1.72 0 0 0-.24-.34 10.87 10.87 0 0 0 3.67-2.22 7.56 7.56 0 0 0 1.7-3h12.1c.27 0 .54.38.8.58l.36-.38 2.93 2.09c-.37 1-.67 1.75-1 2.53 1.3 1.74 1.15 3.37-.65 4.85-1.41-1.88-2.81-.51-3.61-.2l-8.22-1.44-1.46.91-1.15-1 .78.8-2.78 1.93c1.69-.08 3.3-.15 4.91-.24.32 0 3.39.19 3.69.51 1.34 1.4 3.22-.12 4.59.92-.19 1.89 3.3 2.59 1.67 4.84l-5.85-1.65c-.52-1.58-1-2.92-3.19-2.39l1.38 3c-1.86.55-4.3.32-3.95 2.34 1.38 2.75 2.38 4.75 3.45 6.87l2.85.95c0 2.57.82 4.54 1.7 7 2.08-1.91.33-3.23.24-4.5.38-.63.74-1.21 1.11-1.81-3.45-1.94-4.94-5.13-7-8.54l3.57-.19c2.24 2.09 3.62 4.61 6.24 6.07l-1.05 1.6 7.12 6.36v11.82c-.78 2-1.26 3.3-1.78 4.59-.89 2.19-1.74 4.39-2.73 6.54-.68 1.48-1.58 2.74-3.56 2.77-.61 0-1.21.8-2.21 1.52 3.95.77 5.47-2.48 8.15-3.21l2.69-9.46 1.21-1c.29-2.83-.43-5.48.89-8a3.32 3.32 0 0 0-.15-3c-1-1.13-.45-2.26-.7-3.36s-.69-2.43-1.31-4.52l-8.53-6.56c.19-.19.48-.37.6-.62a15.14 15.14 0 0 0 .56-1.55h3a27.37 27.37 0 0 1 2.35 2.51c2.45 3.27 5.14 6.39 6.1 10.55.62 2.74 1.38 5.49 2.1 8.17a10.36 10.36 0 0 1-.45 7.21l2.84 1.8a2.57 2.57 0 0 1-1.8 3.15l-4.57-1.1c1.2 2.95 3.47 1.54 4.52 2.66l3 1.6c-.71 1.39-1.16 2.25-1.55 3l-2.92.37 4 2.44v6.37l-.81-.58c-.11-.09-.19-.25-.32-.29s-.21.13-.66.44c.26 2 .54 4.25.83 6.58h-2.1c-1.13-1.42-2.39-2.83-3.46-4.36a13.58 13.58 0 0 1-1.39-3 2.55 2.55 0 0 1 .07-1.12l3.5-1.35c-1.16-2.68-1.74-5.27-3.71-7.74-.68 1.52-1.23 2.57-1.62 3.69s-.41 2.59-1 3.6-1.82 1.55-3.29 2.71l2.82.6 6.32 8.27-1.77 1.67c-.28-1.43-2.11-.51-2.41-2.36-.26-1.61-2.09-3-3.35-4.41-.35-.38-1.14-.36-2.31-.69l2.39 5.06c-.46.23-.87.52-.94.45a225.91 225.91 0 0 1-3.44-3.32 22.58 22.58 0 0 0-2.15-9.25 16.51 16.51 0 0 0-5.65-5.8c-2.52-1.73-5.09-3.47-7.71-5.07-2.06-1.25-4.44-1.42-6.8-1.48l-2.15-.42a18.08 18.08 0 0 0-4.58-.34l-.94-.5v.35a49.06 49.06 0 0 1-6.23-20c2.59.4 2.53 2.84 3.45 4.4a18.75 18.75 0 0 1 1.25 3.41 5.78 5.78 0 0 0 .16-3.47c-.15-.84-.3-1.67-.47-2.5s-.09-1.61-.52-2c-.83-.76 1.13-1.2 0-2s.21-1.41.49-2.14c.4-1.06-.12-5.1-.53-6.32-.59 2.11-1.22 4.38-1.9 6.85.28 1.15.54 2.2.83 3.36l-2.76.41a48.76 48.76 0 0 1 .62-13.15l.32-.29a1.61 1.61 0 0 0 .7.43 1.77 1.77 0 0 0 1.15-.15 1.55 1.55 0 0 0 .69-.9 1.62 1.62 0 0 0-.15-1.16l-1.16-2.1a1.52 1.52 0 0 0-.9-.69 1.22 1.22 0 0 0-.6 0 1.09 1.09 0 0 0-.55.18 1.36 1.36 0 0 0-1.75 1c0 .2-.09.4-.13.6h-.08c-.49.87-1 1.68-1.46 2.6-3.93 5.13-4.53 12.53-3.37 18.74a28.68 28.68 0 0 0 1 3.67c-.27-.06-.53-.12-.82-.17l1 .67a30.47 30.47 0 0 0 7.77 12.33c-.63.3-1.26.61-1.88.88-3.43 1.47-5.34 5.13-5.93 8.67a20.81 20.81 0 0 0-.22 4.31l-1.34-.51-.59 1.76a3.06 3.06 0 0 1-1.85-1.5 1.26 1.26 0 0 0 0-1.48 18.85 18.85 0 0 0-1.47-1.93 3.38 3.38 0 0 0-.59-.67s0 0 0-.05c-.33-.34-.66-.67-1-1-1.18-1.31-2.11-2.83-3.05-4a19.35 19.35 0 0 1-3.23-.5c-2.87-1.71-5.88-3.27-8.61-5.17a24 24 0 0 1-4.22-3.8v-.09c-.13-.1-.25-.22-.37-.33a43.56 43.56 0 0 1-2.94-3.86 5.89 5.89 0 0 1-.35-3l-2.81-1.73c-.76-1.15-1.52-2.3-2.27-3.45v-.07l-.39-.45-3.83-5.83.75-.75a105.16 105.16 0 0 1 18.5 2.8c2 .47 3.86 1.55 6.42 2.62a8.35 8.35 0 0 1 6.43 2.38c.9.81 2.5 2.19 4.09 1v-3l-3.08.65a2.48 2.48 0 0 1 .78-3.51l2.54.85c-.27-2.43.2-4.43-.81-6.34-.13.83-.25 1.66-.37 2.46-2.7.47-5.38-.2-8.38.49.86 1.2 1.48 2.09 2.22 3.13h-2.63c-9.75-5.13-19.89-5.73-30.16-5.16l-2.81 1.58c1.27 1.2 1.87 2.42 3.48 2.9a5.44 5.44 0 0 1 1.22.58q3.81 5.79 7.63 11.58a64.05 64.05 0 0 0 4.07 5.63l-.65 1c.47.92 1 1.9 1.57 3.09l2.21-.79c.46.4.93.8 1.43 1.18 4.85 3.67 11.18 5.88 15.6 10.15l-8.16-1.17c-2.44-2.13-5.12-4.45-8.59-7.46 1.58 3.81 4 5.62 6.19 7.4a9.91 9.91 0 0 0 8.11 2.17c2.64 1.81 5.66 2.29 7.52 4.62.11.15.08.41.16.86l-1.59 1.16a7.58 7.58 0 0 0 6.14 3.4v4.4h-2.36a4.94 4.94 0 0 0-1-.19 4.37 4.37 0 0 0-2.63 0 1.59 1.59 0 0 0-.41.21h-1.42l-2.57 3.7a18.4 18.4 0 0 0 .9 3.29 11.78 11.78 0 0 0 1.6 2.12 154.81 154.81 0 0 0-16.12.31 2.86 2.86 0 0 1-.41-.63c2.12-1.65 5.22-1.35 6.29-3.56.29-1.16.48-1.9.81-3.21 1.11 1.51 1.84 2.48 2.37 3.2h3.08l-3-1.91-1.9-3.68c-2.63 1.36-1.9 4.81-4.52 5.83a74.4 74.4 0 0 0-6.93 3.55h-8.73c-1.05 0-2.26-.31-3.1.12a7.52 7.52 0 0 1-1.26.53h-4.73a14.08 14.08 0 0 1-3.13-1.46 9.73 9.73 0 0 0-6.72 1.22 13.71 13.71 0 0 1-1.8-.38c-6.28-1.79-11.07-7.32-17.34-8.81l-.07-.37-.67.23a13.25 13.25 0 0 0-3.64-.18 1.62 1.62 0 0 0-1.36 1.97c-.73.39-1.64 1-.94 2.32l4-1.4h.19l3.76 2.88c1.78.6 3 1 4.17 1.39 1.73.52 3.15 1.93 5.09 1.87a22.38 22.38 0 0 0 6.8 3.09c4.26 1 8.9.52 13.24.52h13l.61.94c-5.76-1.14-10.62 2.94-13.36 7.66a43.15 43.15 0 0 0-2 3.91c-.46 1-.82 2.79-2.12 2.81a11.48 11.48 0 0 1-4.68-1.46c-1.56-.75-3.08-1.58-4.61-2.39s-3 1.38-1.81 2.4l4 5.56a24.18 24.18 0 0 0 3.8 4.68c3.31 2.77 7.73 1.77 11.68 2.35 4.27.63 8.31 1.56 12.64.8a27.92 27.92 0 0 0 10.45-4.48 51.58 51.58 0 0 0 6.54-5.26c1-.68 2.1-1.3 3.16-2v-1.08l.44-.44a1.46 1.46 0 0 0-.06-2.11 5.66 5.66 0 0 1 1.16-1.27l1.23 1.6 8.39 1.36 2.67 3.89c-1.64 2.29-1.27 5.55-4.1 7.35v7.57c-3.37.19-1.75-3.76-2.92-4.07-1.94.2-3.09.68-3.75.31-1.87-1-3.37-.43-5.28-.07a11 11 0 0 0-5.58 3.16c.53.29 1.07.58 1.6.91v-.09l3.58-1.94c1.79 1.32 3.23 2.56 4.83 3.51s2.3 2.32 3.43 3.49l2.3 2.31c-.15.75-.3 1.51-.42 2.26a21.93 21.93 0 0 0-.34 3.69l-.53.11c.19.29.37.59.55.89a16.32 16.32 0 0 0 .31 2.48 42.54 42.54 0 0 0 2.24 6.49 116 116 0 0 1 4.29 13.64 114.11 114.11 0 0 1 2.8 16.22c.2 1.9 3.19 1.92 3 0a23.92 23.92 0 0 1-.07-6.49 7.76 7.76 0 0 1 .87-2.51l.28.2-.09-.53a7.78 7.78 0 0 1 2.26-2.24l.64-.43.69.66.51-.5c.07-.42.16-.83.26-1.24a15.2 15.2 0 0 0 3-3.17 26 26 0 0 0 2.94-6.1 77.26 77.26 0 0 0 4.36-22.12c.3-1.81.48-3.63.6-5.45a9.9 9.9 0 0 1-1.21-3.21c0-1.08-.08-2.15-.14-3.23a10.78 10.78 0 0 1 .61-2.64 8.86 8.86 0 0 1-.52-.73c-.16-1.1-.34-2.19-.54-3.29-.2-2.13-.42-4.25-.7-6.38a10.08 10.08 0 0 1 2.7.1c.32 1.18.68 2.52 1.17 4.31l1.52 1.52a8.4 8.4 0 0 1 1.25-.58c1.61 1.58 3.23 3.15 4.84 4.74 2.35 2.87 4.6 5.85 6.83 8.83v.05c.17.17.32.36.48.55l.59.78c.13.19.26.36.38.56 2.67 4.48 5.82 8.73 8.71 13.1a1 1 0 0 0 0-.17 40.37 40.37 0 0 0 7.95 8.65 20.79 20.79 0 0 0 13.52 4.69c.13.51.27 1 .44 1.54.6 1.83 3.5 1 2.89-.8a32.16 32.16 0 0 1-1.34-6.68l.25-.09v-7.33l.42-.42c0-.25-.06-.51-.1-.76 0 .19-.54-2.34-.61-2.62a9.31 9.31 0 0 1-.24-1.26l-.21-.2c0-.48-.05-1-.09-1.43s0-.64.07-1h.25a9.29 9.29 0 0 1 .66-2.29l-1.43-.75a30.54 30.54 0 0 0-.91-4c-2.5-8.15-8.55-14.5-14.93-19.86-4.13-3.46-8.45-6.7-12.71-10-1.3-1-3.08.44-2.54 1.61-1.68-1-3.3-2.14-5.33-3.46l3.44-2.45 6.51 2.12c.48 1.13 1.07 2.54 1.67 4 1.93-.25 3.64.23 5.27-.39-4.3-4.52-9.84-6.28-15.46-8.08.51-3.33 1.34-6.27 3.52-8.1a153.26 153.26 0 0 0 23.17 5.18c-.15.46-.29.93-.44 1.42l1.77-.18.08-1 .64.1a29.4 29.4 0 0 1 10.74 3.43 32.42 32.42 0 0 1 8 6.66 43.4 43.4 0 0 1 4.88 6.79 14 14 0 0 0 1.77 3.23v.06l.23.31a1.31 1.31 0 0 0 .63.45 48.61 48.61 0 0 0 4.41 10.61c-13-2.19-24-10.9-36.91-13.4-1.88-.37-2.69 2.52-.79 2.89 14.24 2.75 26.09 12.69 40.75 13.91a1.5 1.5 0 0 0 1.29-2.25c-6-8-6.47-18.37-10.86-27.12 2.41 2.41 4.82 4.82 7.49 7.08a20 20 0 0 0-.65-2.64c-.05-.28.61-.69 1-1.1l1.75 2.83h3.52l-1-1.8 2.14-2.55c-2.14-.02-3.74-.06-5.36-.01Zm-30.54-162.44c-2.53.16-4.7.21-6.57-1.21.86-2 .86-2 3.55-2.83-.09-2.29-2-2.09-3.5-2.48-.08-.69-.16-1.4-.26-2.24l-1.51-.35c-.1 1.53-.2 2.95-.32 4.82l-2.5-1.19c-.13-2.59-.33-4.92 1.15-7 3.28-1.18 3 2.5 4.65 3.45l.92-.83 1.22 1.06 3.44-2.59c.2 3.5 1.94 5.69 4.15 7.56Zm6.32-6.24-4.11-4.08v-5.11l-2.37.87v-2.58l6.71 1.91c.4 2.63.77 5 1.17 7.67Zm41.3 2c1 2.42 3.25 4.35 5.19 6.79v2.72h-2.3c-.56-4.78-5.55-7.37-6.95-12.94 1.64 1.66 3.2 1.49 4.06 3.47Zm-27.28-14.61h5l2.32 2.25-3.53 3.52c-.86 2.32 1.48 3 2.48 4.05l3.85 4.18c1.39 1.53 2.53 3.05 2.66 5.25 0 .59 1.17 1.11 2.1 1.92 1.09-2.87-.26-4.74-1.48-6.5-1.39-2-3-3.81-4.92-6.14l2.88-.61 4.39 5.06a4 4 0 0 0-.38-4.76h2.31l3.58 6.3c.4.59 1.06 1.54 1.73 2.49l.32-.43c.26 1.31.53 2.62.8 3.92-.22.05-.66.24-.73.16-1.37-1.88-2.84-3.74-2.51-6.68a5.56 5.56 0 0 1-3.06.54l4.11 8.48-4.08 2.4c-1.09-1 .35-1-.12-1.83l-2.48.59-6.91-3.16c0-4.24-2.12-8.14-5.45-11.52a21.12 21.12 0 0 1-2.16-3.12h-2.52c3.45 4.45 7.23 8.44 8.37 14.23l-2.11.13-6.26-4.87 1.32-1.39-3.43-3.75c-.33.58-.71 1.23-1.24 2.17-3.1-2.17-3-5.94-5-8.4 3.43-3.06 4.47-3.29 8-1.89ZM262.46 72.09c.52-2.43-.52-4.79-1.34-7.27-.73-2.21-2.14-4.46-1.07-6.72l1.83-1.09a12 12 0 0 1-2.15-3.84 61.05 61.05 0 0 1 .64-9.35c.08-.61.13-1.23.16-1.84l1.11-.91-1-1a27.69 27.69 0 0 1 .61-6.35 34.4 34.4 0 0 1 2-5.52l.9-.69c.1-.6.19-1.16.29-1.74.9-1.7 1.89-3.36 2.95-5h2.87a9.82 9.82 0 0 1 1.41 1.45c.49.79.95 1.59 1.4 2.41a13.62 13.62 0 0 1 .23 1.74c0 .49.05 1 .08 1.45v.07a21 21 0 0 0 .62 4.45 29.06 29.06 0 0 1 .88 6c.26 4.12.56 8.24.77 12.37a5.29 5.29 0 0 1-.41.41c-.12.12.05.56.09.92l.35.13a14.63 14.63 0 0 1-1.22 5.68l-1.76.81a11.49 11.49 0 0 0-.26 2.94c-.31.51-.64 1-1 1.52a22.32 22.32 0 0 0-2.69 6.12c-.73 2.38-1.47 4.77-2.21 7.15a1.31 1.31 0 0 0 .61 1.6 3.56 3.56 0 0 1-1.32.59c-1.11-2.09-2.18-4.21-3.37-6.49Zm8.37 9.93c-.46.21-.87.27-.94.45-.27.79-.4 1.64-.67 2.43a3.87 3.87 0 0 0 .17 3.7 6.19 6.19 0 0 1 .42 2.35c-1.58-2.24-3.41-4.34-2.66-7.26l-2.22-2.52 1.76-1.88 1.47 2.25 4.39-2.14a2.56 2.56 0 0 1 1.71 3.18l-1.27 1.27Zm51.1 26.48-1.53 2-2.69-3.13v-2.49c1.37-.27 2.85-.71 4.22 1.06Zm6.84-19.13h2.53l5.12 3.89v2.31c-1.34-.66-2.51-1.24-4-2l-1.12 1.8 4.24 3.1v2.44h-3c-1.59-.79-2.17-2.76-3.22-4.41a29.25 29.25 0 0 0-3.66-3.92Zm-8.19 4.51c5.84 0 7.08 5.78 10.71 8.65l-.84 1.58c-1.69-1.85-3.78-2.82-5.27-4.8-1.33-1.75-3.43-2.91-5.19-4.33Zm-3.57 1.56c1.87 1.48 4.58 2.36 5.69 4.23 1.33 2.22 3.56 3.43 4.82 5.67 0 .59-.09 1.29-.17 2.4a12 12 0 0 1-4.49-4.31c-1.08-1.73-3.48-2.6-4.73-4.26s-4-1.43-4.24-3.94c1.17-.92 2.05-.6 3.12.25Zm-8.37-.74c1.08.9 2.57.73 2.93 2.46.12.55 1.33.9 2.08 1.28 1.66.85 3.38 1.61 3.5 4.38l-1.74 1-6.77-4.81Zm-7 15.48 3.34 2.31c.32 1.05.68 2.24 1.13 3.69h-4.55c-.24-1.72-.47-3.35-.73-5.19Zm-9.34 3.96 2.26-2.25h3l3.27 4.68a19.87 19.87 0 0 0-2.26 1.27 15.78 15.78 0 0 0-1.6 1.57c-.13 1.11-.25 2.23-.38 3.39-2.86-.24-2.28-3.48-4.26-4Zm-10 25.89c1.76-.44 2.3.47 2.75 1.66.16.42.62.73 1.1 1.26.85-1.42.87-2.28 0-3.4-1.72-2.19-1.77-2.68-1.78-4.91l2.06.75c1.15-1.87-.95-2-1.32-3v-3.12a2.57 2.57 0 0 1 .69.09 15.53 15.53 0 0 0 3.52 1.37c-1.94-1.93-1.41-5.31-4.34-6.49l2.57-3.84 2.41 2.24 1.26-.92c1.68.66 2.19 1.74 1.86 3.54a13.43 13.43 0 0 1 2.21-.72 27.53 27.53 0 0 1 3.06 0c.47-1.63 1-3.35 1.5-5.21l8.51-2.27c.58-2.37-.7-4.45-1.71-6.93h3.65c-.8-1.43-1.44-2.6-2.35-4.25l-4.55-2c-.44-2-.5-3.57 1.45-4.82l5.79 4.19-1.08 2.17h3c2.13 2.49 5.22 4.18 5 8.11h-3.21l-2.12-1.85c-.51.34-.93.49-.94.65-.06 1.2 0 2.4 0 3.73a5.54 5.54 0 0 0 3.7-.09c1-.31 2.24.39 4 .77-3.63 1.68-5.48 4.91-9 6.15a8.54 8.54 0 0 0-3.59 3.24c-2.35 3.44-5.17 6.56-8 10.08l1.44 3.17-3.08 1.62-.72-.66v-5.22l-4.17 1.72c-.81-.25-1.88-1.23-3.25-.1 1.11 1.85 2.2 3.63 3.55 5.87.15.1.79-1.75 1.53-.26.16.33 1.43 0 2.09.23a13.68 13.68 0 0 1 2.32 1.37l-1.38 3.85h-13c-1.91-2.26-1.22-5.04-1.36-7.77Zm-39.23 10.73a39.41 39.41 0 0 1 5.94-1.4l1.27.18-.46-.29a27 27 0 0 1 5.9-.15 21.69 21.69 0 0 1 4.09.76l.23.6c1.29.33 2.57.64 3.78 1a16.59 16.59 0 0 1 3.52 2.56 1.4 1.4 0 0 0 1.27.39c.14.17.3.33.43.51h6.26v-2.55l1.89.37c-2.14 1.6-.69 3-.25 4.25-1 2-1.61 3.84-.08 5.77.2.25 0 .79 0 1.35h-3.93l-2.63 2.67H269a1.53 1.53 0 0 0-1-1l-.3-1.59h-1.1l-.8 1.55c-1.8 0-3.61.09-5.4.26h-2.5c-.28.13-.55.27-.82.41-1.08.17-2.16.36-3.23.58-4.19.89-9 2-12.48 4.61-.29.21-.56.44-.83.67l-2.12.29a4.11 4.11 0 0 1-2.72 2.11c-1-.28-1.91-.6-2.84-.91l-.78-.74h-1.56l-5.6-1.74c.19-.62.33-1.1.4-1.32-.43-1-.7-1.67-1.23-2.9-.29 1.77-.43 2.6-.57 3.45-.92-.53-1.7-1-2.46-1.42 3-4.56 4.55-10.16 9.55-13.08a61.83 61.83 0 0 1 12.53-5.25Zm-34.56 13.31a19.39 19.39 0 0 1-6.64 6.56 21.62 21.62 0 0 1-4 1.81 22.91 22.91 0 0 0-4.7-.57c-.48.56-1.09 1.26-1.69 2l-.61.08c-4.09.48-8.23.6-12.34.82l-4.8.26h-3.57l-.72-.68.07-.11a25.62 25.62 0 0 0 3.12-5c.48-.69 1-1.39 1.47-2.07a62 62 0 0 1 7.81-9 12.72 12.72 0 0 1 4.78-2.84 21.19 21.19 0 0 1 6.35-.6 48.44 48.44 0 0 1 7.41.63c1.68.28 3.77.59 4.58 2.28a1.25 1.25 0 0 0 .7.68 13.17 13.17 0 0 0 2.93 5 6.68 6.68 0 0 1-.15.75Zm7.51-2.47c-1.87-2.22-3.78-4.42-5.61-6.7-1-1.2-1.42-4.47-1.11-6.46a6.76 6.76 0 0 0 0-.9v-4.51c1.2-1.9 2.54-3.74 3.57-5.73a10 10 0 0 1 5.41-4.64c1.85.45 4.29-.84 6.5.57a25 25 0 0 0 4.62 2.49 1.27 1.27 0 0 0 .7.25c.12 0 .23.09.35.12.92 1.18 1.85 2.35 3.16 4a42.76 42.76 0 0 0 1 4.62c1.08 3.57.9 5-1.42 6.7l-1.45.67a21.1 21.1 0 0 0-6 4h-.66c-.38.38-1.23.88-1.56 1.61-1.43 3.32-4.35 3.68-7.5 3.91Zm12.76 40.52c.09-.38.19-.75.27-1.13l1.45-1.2a17.3 17.3 0 0 0-1.72 2.33Zm-16.11 80.36h-.06l-.12-.2c.07-.23.13-.47.22-.69-.02.31-.03.6-.04.89Zm-.58 12.33a26 26 0 0 1 .12-11.63h.42a52.42 52.42 0 0 0 2.23 17.56 7.34 7.34 0 0 0-1.16-.84 28.4 28.4 0 0 1-1.61-5.09Zm2.75 7.45.67.46c.19.55.37 1.11.59 1.66-.45-.69-.87-1.4-1.26-2.12Zm-10.95 36.54a1.19 1.19 0 0 0 0 .26 1.89 1.89 0 0 0 .11.25v.07a6.74 6.74 0 0 0-.75.17l-.13.05Zm13.35 17.69-3.47-1.12c.83 1.65 1.43 2.87 2 4l-2.28 2.28c-2.82.76-4.61-1.35-6.79-2-.1-.49-.19-.91-.31-1.48l-3.41.18v3.21a1.48 1.48 0 0 0-.75.43c-4.82 5-10.36 10.06-17.19 12-3.8 1.08-7.44.67-11.27 0a38.93 38.93 0 0 0-5.89-.68c-1.75 0-3.66.12-5.3-.6-1.89-.83-3.06-2.88-4.21-4.48l-.84-1.18a17.05 17.05 0 0 0 3.52 1.15c1.47.29 3 .42 4.28-.57a8.14 8.14 0 0 0 2-3.31c.46-1 1-2.14 1.62-3.26 1.7-1.7 3.4-3.4 5.13-5.07a24.12 24.12 0 0 1 1.7-1.81 7 7 0 0 1 3.89-.18c1.88.43 2.68-2.46.8-2.9h-.27l5.11-1.18a1.6 1.6 0 0 0 .55.06 155.58 155.58 0 0 1 19.07-.3l1 1.14h4.37a6.28 6.28 0 0 0-1.74-1.78 1.67 1.67 0 0 0 .22-.76c.46.23.91.47 1.38.67a25 25 0 0 0 3.12 1.08c1.43 1.73 2.73 3.27 3.93 4.87.24.26.03.93.03 1.59Zm-1.25 18.93c-.12.34-.23.68-.34 1v-.65Zm21.77-10.05a3.15 3.15 0 0 1-.53 0 1.43 1.43 0 0 0-1.36-1h-.22a1.62 1.62 0 0 0-1.33 0 2.28 2.28 0 0 0-2.19.24l2.6 6.37c.17.78.3 1.55.44 2.33a158.44 158.44 0 0 1 .6 16 1.31 1.31 0 0 0 .58 1.18c-.09 2.08-.25 4.16-.51 6.23-.09.73-.21 1.46-.33 2.18-.49 1.52-1.2 3.14-.91 5-.4 1.8-.89 3.58-1.41 5.34l-.08-.24-2.22 5.55.76-.73q-.43 1.08-1 2.1l-.3-.62-1.8 3.73a45.19 45.19 0 0 1-4.45 3.47 8.62 8.62 0 0 0-2 2.23h-.05a114.59 114.59 0 0 0-4.39-16.37c-.44-1.27-1-2.55-1.48-3.83a12.26 12.26 0 0 1-.5-2.73 21.29 21.29 0 0 0-1.66-7 37.93 37.93 0 0 1 1.29-6.75c.56-2.28 1.18-4.53 1.85-6.78a146.46 146.46 0 0 1 5.41-15 2.21 2.21 0 0 0 .16-.65c.32-.56.57-1.42.93-2.11a2.72 2.72 0 0 0-1.77.65 1.47 1.47 0 0 0-1.91.6c-.11.26-.22.52-.32.78a1.82 1.82 0 0 1-1.23-.52v-5l3.47-2.21c-.25-2.42.29-4.57 2.51-6.13a32.17 32.17 0 0 0 7.31 2.92v-1.41c-3.77-2.36-7.8-3.92-10.73-7.22-1.49-1.68-3.16-3.21-4.77-4.79a8.9 8.9 0 0 1-2.52-4.38c-.16-.64-.29-1.21-.41-1.76a1.15 1.15 0 0 0 .75-1.32c-.24-1.85-.58-3.71-.82-5.57 1-2.3 1.12-4.78 1.76-7.16a10.78 10.78 0 0 1 4-5.77 8.49 8.49 0 0 1 2.24-1.34 1.35 1.35 0 0 0 1.75-.31c1-.07 2 0 2.93 0 1.15 0 2.3 0 3.45.08a39.43 39.43 0 0 1 4.9 1.34l.48.34v2.38l1.31-2a15.29 15.29 0 0 1 1.65.87 1.85 1.85 0 0 0 .39.17l1.94 1.27a27.67 27.67 0 0 1 5.84 4.45c3.09 3.53 3 8.71 3.09 13.12v4.07a3.92 3.92 0 0 1-1.18 3.16 8.61 8.61 0 0 1-3.11 1.37l-1.62.47h-.06l-2.54.72a1.41 1.41 0 0 0-1 .85l-2-.31 3.33-3.66-1.18-1.18-5.51 4.28-3.77.46 1.89 2.37c2.41-.15 4.73.32 7-.83a1.42 1.42 0 0 1 .18-.08 1.4 1.4 0 0 0 1.77 1l.91-.25a5 5 0 0 1 .69.93l-8.77 3.65c.23 1.47.39 2.5.51 3.29l-2.09 1.13c1.84 3 5.84 3.49 6.47 7Zm39.81 39.39c-.46-.26-.89-.56-1.33-.83.52.16 1 .3 1.58.42l.17.64Zm-14.88-43-.06-.29c5.4 4.11 10.8 8.33 15.26 13.41a32 32 0 0 1 6.28 10.23c.09.26.16.52.25.78a4.48 4.48 0 0 0-1.8-.34l3.07 6.88c.22 2.2.28 4.43.32 6.65 0 2.64.07 5.29.3 7.92l-4.33-2.13-1.74-2.64c-2.51.58-4.61-.52-6.79-1.18-.09-2-2.13-2.37-3.23-3-1.49-.81-2.29-2.69-3.72-2.84l-.31-.06a86.83 86.83 0 0 1-5.48-9.37l-.57-1.62c-.12-.32-.26-.64-.39-1-.19-.79-.39-1.59-.61-2.37a18.1 18.1 0 0 0-2.66-5.26 18.87 18.87 0 0 1-1.41-2.32c-.43-.88-.75-1.82-1.25-2.67a5.39 5.39 0 0 0-4-2.8 36.81 36.81 0 0 0-7-5.4 1.38 1.38 0 0 0-1.83.31c-.25-1.75-1.38-3.38-2.15-5.21 3.93-1.16 7.59-2.35 10.55-2.12Zm-11.8-15.29h-1.69v3.46l4.07.32-2.88 3.55-3-.8-.92 1.1a32.85 32.85 0 0 0-4 1.17c-1.58.68-2.49-.11-3.57-1.4l3.3-.33 1.69-2.68 1.36 1.25c.08-1.23.14-2.22.22-3.66.8-.69 1.68-1.47 2.56-2.25q.42-.21.81-.45a6 6 0 0 0 2.72-3.65h1.88c0 .65.06 1.22.11 2.09Zm4.31-5.77c-1.18.86-2.21.39-3.28-.85v-.53c0-.88.05-1.78.06-2.69 1.17.67 2.62 1 3.14 2.08a1.63 1.63 0 0 0 .18 1.18 4.45 4.45 0 0 1-.1.81Zm42.51-11.42c-1.34.28-2.12-.48-2.8-1.79l1.77-2.76 2.16 4a5.06 5.06 0 0 1-1.13.55Zm22.16-18c-3-.4-5.27-2.14-5.86-4.32a4.77 4.77 0 0 0-1.72-.18c-.06-1-.12-1.94-.18-2.89l-5.39-6.66c.31-2.23 1.95-2.36 3.69-2.2-.87-2.16-2.51-1.51-3.85-1.85a14 14 0 0 1-3.32-1.9v-3.22a3.76 3.76 0 0 1 1.19-.2c2.41.36 4.8.77 7.41 1.2 2.47 5.23 2.74 8.73 1.33 14.54-.24 1 .4 2.14.63 3.18a13.42 13.42 0 0 0 3-.92l4.31 2.94c-.45.82-.81 1.63-1.24 2.44Zm-10.86-4.91-2.77-2.32.93-2c2.39.81 2.58 2.11 1.84 4.32Zm-13-6.76-5.43-5.44 3.86-1.29c1.57 2.41 4.3 3.28 4.2 6.48Zm2.27 12-5-1.56-2.55-3 5-.32Zm-1.13-19.14c-1.19-1.75-2.21-3.26-3.48-5.15l2.82-.49c.74 1.23 1.45 2.43 2.32 3.89Zm.66-15.32c3.94-.54 7.58.76 11.59 1.88v3.82c.93 1.08 2.47 1.87 1.52 4.09a7.91 7.91 0 0 1-1.87 0c-.67-.15-1.24-.67-1.9-.84a11.8 11.8 0 0 0-1.79 0c-.72-.06-1.7.05-2.07-.36-.86-.94-1.11.24-1.88.29-.43-1.59-.86-3.21-1.37-5.08-2.02-1.21-2.02-1.21-2.19-3.85Zm3.5 16.87 3 2.61c-.45 1.05-.83 1.94-1.2 2.79l-3.42-1.05c-.66-.73-.02-2.78 1.66-4.4Zm33-1.74h-3.01v-3.91l4.32 1.45c-.51.91-.9 1.64-1.32 2.41Zm2-8.94 1.89 3.2c-1.85 1.4-3.39-.26-5.19-.74.4-.83.8-1.64 1.2-2.46Zm-1.92-4.06c-2.2 3.18-3.81 5.53-5.26 7.61h-2.42c-.44-1.59-.88-3.2-1.31-4.78Zm-51.75-48.33c1.77.31 3.57-.64 5 1.31.29 1.34.65 2.91-1.05 4.05l-2-1.12c-.2.77-.32 1.27-.49 1.91a41.82 41.82 0 0 1 12.48 3 59.44 59.44 0 0 1 8.87 4.66 12.63 12.63 0 0 1 3.93 4.55 24.5 24.5 0 0 0 3.7 4.78c1.24 1.41 2.32 2.95 3.48 4.43.15 4.66 2.24 8.63 4.85 12.54-2.88 1.83-5.64-.79-8.34-.15 0 .55-.12 1 0 1.13a15.33 15.33 0 0 0 1.4 1.34c1.79.36 4-.56 5.73 1 2.23-.36 3.4-3.21 6-2.65 1.05 2.59 2.09 5.13 3.22 7.9h-3.12a26.5 26.5 0 0 0-2.54-1.62 17.65 17.65 0 0 0-2.74-.78 6.92 6.92 0 0 0 1 1.63 18.39 18.39 0 0 0 2.13 1.46c-.8 1.91-2.13 2.9-4.42 3.73l2.85.32 3.11 3.52c.29 1.67.69 3.87 1.06 5.93-2.72 1.53-4.95-1.83-7.46.07.65 2.53 5.48 1.37 4.54 5.42-.88.84-3.28-.15-3.45 2.44.15.2.48.64.8 1.09l-2.25 1.16-2.93-1.72c-.2-1.42-.61-2.82.32-3.74-.71-6.05-1.73-11.87-4.21-17.34v-6.23l-2 .75c-2-2-4.07-4.08-5.84-5.84h-3.13l4.05 5.13c-2.53.29-4.84.09-7 .17-1.65-2.35-1.65-2.35-.49-5.17l-15.28-2.43-1.84-3.08c.49-2.13 2.23-1.81 4.39-2.46-3-.66-5.31-.25-7.51-.43-2.72-2-6.09-3.26-7.88-6.56 2.27-1.71 5.27.71 7.29-1.84-.35-.71-.72-1.53-1.13-2.33-.86-1.65-3.4-4.21-5.25-4.5s-2.48-1.73-3.68-2.78c3-1.82 3-1.82 6.57-1.78 3.14 1.1 4.24 4.6 7.61 4.54l2.31 3.41-1.12 3.12c1.7.92 3.17 1.72 4.58 2.47.1.93.18 1.64.27 2.33 2.34 1.06 4.87 1.86 5.81 5.65.27-1.61.39-2.35.52-3.16.82-.41 1.69-.85 2.72-1.35l-.3-1.48-3.8 2c-1.58-3.15-4.79-4.24-6.32-6.79-1.42-2.35-2.25-5.07-3.49-8l-3.05-.16-2.22-2.78c.23-4.01 3.51-7.13 5.76-10.72Zm8.14 43.42-5.39-1.25c-.29-.56-.68-1.29-1.14-2.19 2.84-2.22 5.36-1.08 7.87 0 .68 1.51-.09 2.49-1.34 3.44Zm-47.48-49.75c.86-.28 1.67 1.6 2.83.11.23-.31 1.74.37 2.65.59-.41 1.82-.72 3.24-1.12 5l-6.84-3.71Zm-1.87 26.75a27 27 0 0 0-3 4.7 51.25 51.25 0 0 0-1.94 5.09 4.39 4.39 0 0 1-.42.84c-.31.17-.62.34-.87.51-.94.62-1.93 1.16-3 1.82h-4.16a14.64 14.64 0 0 1-4.28 2 46.72 46.72 0 0 1-5.29-.24 9.91 9.91 0 0 1-2.17-1.02l-.88.84-.69-.05c-2-.12-3.94.14-5.93.17a3.84 3.84 0 0 1-2.53-.56c-.42-.34-.89-1-.6-1.51a1.58 1.58 0 0 0-1.38-2.27l1.32-1.31v-5.35a1.45 1.45 0 0 0 .37.32 1.5 1.5 0 0 0 2.05-.53c2.52-5.95 7.29-10.36 12.23-14.32a18.11 18.11 0 0 1 4-2.84c1.56-.67 3.51-.5 5.18-.58l10.33-.49c.92.11 1.89.16 2.89.3l1.32-1.5-3.2-3.21.48-2.39 8.62 4.29c0 .93.09 1.94.13 2.82l1.72 1.73v2.54l-3.68 3.84c-2.76 1.33-4.78-1.67-7.37 0a33.74 33.74 0 0 1 1.09 4.46c.05.51.08 1 .09 1.52a1.68 1.68 0 0 0-.43.38Zm10.2-2.38v2.57h-4.72a4.64 4.64 0 0 1-3.33-4c1.8-1.07 2.15 1 3.21 1.48Zm1.53 11.44c-3.4-1.82-7.6.67-10.84-1.25l2.55-2.55c1.56 1.08 4.15.28 7 .55l-2.23-3c1.78-1.42 2.84-.51 3.83.68l-.81.81 2.4 3.76Zm24.69 70a4 4 0 0 1 0 1.79c-.43 2.07-.92 4.12-1.43 6.17-.07.25-.41.43-.71.73h-1.29c-1.31-.17-2.62-.33-3.94-.47-1.46-1.56-.36-3.56-.72-5l1.4-2.71h5.81c-2.3-1.22-4.07-1.66-5-2.79a4.87 4.87 0 0 1-.89-5.36l4.58-1.45 1.92 1c.24 1.17.53 2.52.9 4.33l-1.63 1.29a22.38 22.38 0 0 1 1 2.47Zm9.87 10.94q-2.22-.45-4.44-.84l-.25-.66 2.71-2.26 2 2.71Zm.19-14.35a4.44 4.44 0 0 0-.3 1.33l-3.58.19 2 2.24c-.67 3.53-3.3 5.92-5.06 9.34l-1.16-.18a37.53 37.53 0 0 1-.09-4c-.05-1.66 0-3.31 0-5.31l3.13-2.52-3.21-3.57c2.35-2.82 5.67-.57 8.73-2.19l-5.35-.28-3.43-2c.26-1.05.52-2.08.84-3.39 3 .3 5.64-.51 9.06 1.2l-2.24-3.2a7.43 7.43 0 0 1-7.25-.06c-.32-.63-.81-1.62-1.49-3l4.07-1.77-4.55-1.68c-.32-1-.81-2.6-1.52-4.84-.47-.38-1-2-2.76-1.93-1 1.69.68 2.08 1.36 3.12v8.33l-1.62.61v2.25h3c1.95 2.33 1.94 2.34.24 4.51-3.8.13-3.8.13-6.72-1.95.52-1.4 1-2.8 1.68-4.55l-2-2.11.65-2.7c-.67-1.63-1.51-3.63-2.38-5.73.31-.55.66-1.15 1.3-2.25l-2.07-1v-3.6c.61-.61 2.75-.58 3.66.3 1.95 1.88 4.19 2.4 7.91 1.73l-2.83-.84-.1.09c-1.43-1-2.83-2-4.25-3a27.68 27.68 0 0 1-10-11.12c-1.34-2.85-3.08-5.46-2.65-8.35l-2.69-5.23c0-2.11.1-4.66 0-7.2a8.07 8.07 0 0 1 2.15-6.36c.5-.54.5-1.56.73-2.37-1.81-1.09-4.28.79-5.53-2.17.16-1.3-.44-3.23.58-5.25l-3.82-.43 4.2-7.24-3.06-3.25c1.41-.85 1.41-.85 2.58-.07.16-.38.32-.75.46-1.1-4.3-2.78-5.59-6.79-3.9-11.8.49-1.46.83-3 1.39-5 1.31-1.31 2.78-3.33 4.74-4.58 1.7-1.07 4-1.25 5.91-1.81 6.29 2.25 10.46 7.23 14.91 11.82.8.83 1 2.25 1.63 3.8l-2.22 1.27v5.73l-3.13-2.55c-.67 2.14-1.21 3.83-1.88 6-1.29.24-3.32-.44-4.89.91s-2.9 2.42-4.45 3.71l-7.27-2a19.66 19.66 0 0 1 0 3.09 5.69 5.69 0 0 0-.44 2.47l2.95-3a29.39 29.39 0 0 0 5.64 1.26 5.57 5.57 0 0 1 4.68 4.05c2.45 1.15 5.1 2.28 6.46 5.54-1.2-.29-2-.55-2.9-.69a3.42 3.42 0 0 0-2.4.76c-.73.45-2 .1-3.51.1a14.2 14.2 0 0 0 1.19 2.16 37 37 0 0 0 10.75 8.66 6 6 0 0 1 2.95 3.9c1.13 3.36 3.18 6.42 5 9.88.18-1.07.31-1.89.47-2.82h3.16c.46 1.25.93 2.56 1.55 4.26l-5.41.26 3 1.68h3.34c1.09.9 2 1.86 1.13 3.41l-7 .63-1-1c.37-.87.74-1.73 1.17-2.77l-1.75-.36v4.41c1.81 2.31 4.48.47 6.92 1.33l1.8 3-1.29 1.29c-2.22-.21-4.82.61-7.29-1.14-1.1 3 .79 6.18-1.13 9.18l2.46-.78c.07-1.28.13-2.29.18-3.3l.47.46 1-2.61 3.75 5.73c-.33.68-.62 1.29-.94 1.94 3.5.87 3.5.87 3.58 3.91h-4.11c-.52-.79-1.14-1.7-1.93-2.88l-2.45 2.12c-1.37-.32-3.14.72-4.48-1l-.57 1.6 7.6 1.65c.21.55.61 1.58 1.17 3.05h-5c1.71 2.31 3.89 1.81 6.05 1.91l2 2.91 2.75-2.16 3.9 1.27 2.3-2.82h2.67l2.82 4.18c.1-2.35.17-3.78.26-5.92l3.44 2.81v2.77c-2.27 3.62-7.16 4-9.26 7.73h-3l-1.77 2.55c-2.22-.62-3 2-5 3.07l-2.19-2a9.05 9.05 0 0 0-1.2 1.27Zm11.81 24.07a11.21 11.21 0 0 1 1.23.95 8.69 8.69 0 0 1 1.31 1.49c-.8-.9-1.66-1.71-2.54-2.49ZM413.01 273.67c-2.39.23-4.66 1.09-6.28.42-1.92-.81-3.7-.52-5.53-.7-.2 0-.42.33-.61.48v1.65l6.67 2.22 3.52-1.83 2.89 2.89.52-.39c-.33-.86-.67-1.71-1-2.56l.81-1.26Z"/><path d="M216.57 129.68v-3.52l2.53-2.45h-6c-4.62-2.84-8.05-6-12.87-6.71l13.51 9.18c.12 1.19 1.49 1.8 2.83 3.5ZM372.24 388.85l-1.21.11c-.27 2.63-.53 5.16-.82 7.89a17.58 17.58 0 0 1 2.36 1.81 27.23 27.23 0 0 1 2.11 2.7h3.75c-4.13-3.6-5.27-7.99-6.19-12.51ZM342.62 309.97l-1.66-2.49c-.52.4-.71.66-.94.7-1 .16-2 .22-3 .39-.2 0-.34.42-.69.88l1.47 1.78h7.3l3.2-2.26-3.32-3.34c-.42 2.2-.42 2.2-2.36 4.34ZM89.43 115.16l1.67 1.56v-3.74c3.5-.63 7 .76 9.92-1.59-3.84-1.43-7.68-2.26-11.59-.06ZM366.3 398.72c-1.69-.66-3-1.81-2.7-4.09-1.89-1.15-2.68-3.86-5.82-4.1.54 1 .77 2.1 1.36 2.32 1.66.64 2.05 2 2.62 3.38a12.49 12.49 0 0 1 .5 1.79c6.84 3.51 7.24 3.83 9 7.07l1.29-1.38c-1.86-1.9-3.6-3.94-6.25-4.99ZM339.48 173.23l-2.78-6.69-2 1.86c1.42 2.78 2.65 5.19 3.94 7.7 1.91-2 4.29-.29 6.41-1.75a14.68 14.68 0 0 0-2.7-1.08 15.88 15.88 0 0 0-2.87-.04ZM419.3 65.77a5.34 5.34 0 0 0-.31 3.8c1 3 2.57 5.93 2.38 9.36-.08 1.6.79 3.25 1.32 5.21 1.41-4.49-.95-8.39-.56-11.94-1.03-2.41-1.92-4.42-2.83-6.43ZM106.56 203.37l.82 1.41 5.23 1a11.1 11.1 0 0 1 .2-1.76 16.94 16.94 0 0 1 .82-1.89l-4.8-2.55-1.45.68c-.08 1.11.38 2.4-.82 3.11ZM243.3 266.25c1.72.64 3.14-.2 4.7-.15s3.14.41 4.76-.3l-1.3-1.3h-12.2l.52.68-1.7.38c1.96.59 3.74.17 5.22.69ZM296.05 226.84l-1.75 1.67-2.77-1.31c-.22-.28-.46-.56-.68-.83l-.83.12-2.39-1.12c-1.74-.82-3.26 1.76-1.52 2.59l12.89 6.08 6.23 2.94a44.43 44.43 0 0 0 6.05 2.63c4.16 1.26 8.14-.38 12.27-.82.18.09.37.16.55.27a2.12 2.12 0 0 0 1.76 0c.25-.13.49-.26.73-.37a27 27 0 0 1 3.25.26c1.14.69 3 0 4.19 1.59.55.77 1.92 1 2.85 1.36l.91-.91a1.32 1.32 0 0 0 1.06-1.76c-.17-.45-.35-.89-.54-1.33v-.59a25 25 0 0 0-1.52-2.47 30.64 30.64 0 0 0-12.25-12c-3.56-1.89-7.45-2.65-11.22-4a17.68 17.68 0 0 1-1.78-.77l-1.91-2.24-2-.32a12.26 12.26 0 0 0-4.62-2.58c-1.88-.45-2.68 2.44-.8 2.9s3.13 1.69 4.55 2.8a19.18 19.18 0 0 0 4.94 2.81c2.33.92 4.77 1.5 7.14 2.27a4.46 4.46 0 0 0 2.86 1.1c.21.1.42.18.62.29a27.94 27.94 0 0 1 12.17 11.81l-.05.06c-.9-.27-1.81-.51-2.74-.7a7.56 7.56 0 0 0-4-.58l-.05.05c-.64 0-1.29-.06-1.94-.05a33 33 0 0 0-6.18.76c-2.17.44-4.42 1-6.63.53l-2.26-1.14c-.87-.27-1.75-.49-2.61-.76l-1.36-.66-6.22-2.94-2.75-1.3.25-.39c-.41-.74-1.06-1.72-1.9-2.95ZM57.52 94.63c1.53-2.53 3.6-4 2.89-6.66 1.34-.77 3.29-.94 2.47-3.22l-4.22 1.37c.42 2.68-2.54 4.87-1.14 8.51ZM405.24 395.86c-3.15-1.74-5.15-4.66-7.76-6.95-.75-.66-1.55-1.26-2.33-1.88-.23-3.48-3.42-5.44-3.81-8.68-.1-.84-1.23-1.55-2.39-2.91-.06 1.36-.33 2.11-.07 2.42 2.34 2.88 2.84 7 6.26 9.38 0 .41-.14.86 0 1.11 1.09 1.51 2 3.31 3.51 4.31 1.7 1.16 3 3 4.7 3.74 1.54.69 2.32 2.81 4.39 2.36-.79-.99-1.44-2.31-2.5-2.9ZM195.3 202.91c1.94-.59 3.79-1.47 5.67-2.24l-.12-.54-6.56.75-5.66-2.31v2.17c1.45.56 2.85 1.15 4.27 1.65a4.54 4.54 0 0 0 2.4.52ZM392.93 273.3c1.37.08 2.48 1.88 4.24.33l-3-1.49a12.18 12.18 0 0 1-3.73-3c-.07-.08-.4.09-.82.19l1.37 3-3.37 3.15c2.18-.8 4.52 1.02 5.31-2.18ZM421.58 241.89c-2.37-1.55-4.93-1-7.53-.3l8.47 1.37 3.89 2.3 1.1-1.1c-.86-2.25-3.24-2.16-4.91-3.18ZM136.64 234.48l-2.3.32c.41 2.51 2.65 2.79 3.84 4.09s1.85 3.11 2.91 5c1.9-2.92-2.14-3.72-1.23-5.94-1.09-1.18-2.19-2.35-3.22-3.47ZM329.69 166.05a35 35 0 0 1 3.95.91c.07-.71.14-1.4.22-2.15-1.2-1.17-2-3-4.25-2.26-1.11 2.16-1.11 2.16-4.81 3.46 2.28 0 3.6-.11 4.89.04ZM374.3 335.9c.11.64.16.92.27 1.61.92-.25 1.79-.54 2.68-.71 1.1-.22 2.22-.35 3.41-.53.6-1.06 1.17-2.08 1.86-3.29h-3.32c-1.3 1.56-2.69 2.97-4.9 2.92ZM102.96 34.44v3.31l3.25 1.93 1.37-3.82-1.42-1.42ZM201.09 301.67l.44 1.61 2.31-.71a23 23 0 0 0-11.54-5.41 24.28 24.28 0 0 0 8.79 4.51ZM118.1 218.01a8 8 0 0 1 6.68 4.57c.14.25.94.14 2 .27-1.32-2.41-1.75-4.6-4.29-5.49-1.19-.41-2.14-1.52-4.39.65ZM249.1 298l-1.41-.29c-1.74 3.43-3.36 6.64-4.94 9.77l1.61 2.92c-.06-5.49 3.28-8.41 4.74-12.4ZM231.81 326.97l-3.79 1.57c.31 1.37.5 2.48.83 3.56.09.3.55.49.6.53l2.36-1.85ZM230.9 247.9c.39-1.94 3.81-1.28 3.62-5l-7.89 5ZM408.86 82.91l1.31.14c.69-2.58 1.39-5.21 2.08-7.83-1.95 2.15-4.19 4.39-3.39 7.69ZM67.58 90.74l3.62 2.5 2-2c-1.06-.1-2.67-.22-2.91-2.85ZM74.44 128.58c.9-3 2.84-5 1.94-8.05l-2.17 1.42c-.62 1.7.54 3.52-.55 4.37ZM100.5 103.95h-2.85l-3.35 3.42 1.15 1.07ZM430.44 233.37l-1.47-1.47c-1.36 2-4.47 1-5.94 3.51h4.27ZM238.97 89.06c.59-3.06-.92-5.11-3.17-7a8 8 0 0 0 3.17 7ZM185.11 265.17h3.07c1.24-.91 1.74-2 .93-3.52l-4 1.21ZM143.14 252.9l1.14 1.88 6.16 2c-.42-1.86-.42-1.86-7.3-3.88ZM372.16 335.03c-2.38-.6-3.55-.17-4.23 1.82l2.42 2c.67-1.42 1.18-2.48 1.81-3.82ZM418.17 281.47l-.82.82 3.88 3.87v-1.27ZM484.48 359.48a6.39 6.39 0 0 0 2.08.43l-4.2-4.3h-2.95c2.02 1.56 3.5 2.76 5.07 3.87ZM269.6 126.37v-2.4c-1-.58-2.65-.84-2.68-2.72a4.12 4.12 0 0 0-.69-.13v3.11c.82.72 1.59 1.41 2.37 2.08.09.06.3.06 1 .06ZM315.58 155.06h2.8l4.92-2.37c-3.07-.47-5.56-.32-7.72 2.37ZM80.48 100.51c-.21.17-.07.78-.09 1.32h2.32l2.12-2.12-1.31-1.34c-1.02.72-2.08 1.37-3.04 2.14ZM371.05 316.82a12.39 12.39 0 0 0 1.11-2.56l-6.69 5.91 2.1.17c1.21-1.21 2.4-2.32 3.48-3.52ZM328.23 152.37l-4.29.29-.08.71 5.94 2.18c-.73-1.46-1.07-2.18-1.57-3.18Z"/><path d="m452.03 294.78 5.75 1.3c.66-.77 1-1.21 1.41-1.68.07-.09 0-.29 0-.63-5.92-6.88-13.56-11.22-23.21-14.56-.15.63-.36 1.52-.61 2.55l-1.6-2.08 1.09-1.67a29.31 29.31 0 0 1-12.46-3.41 23.9 23.9 0 0 1 3.5-1.34l1.06-.09a28.61 28.61 0 0 0 10.92-3.63c1.43-.83.48-3.34-1.15-2.74s-3.17-2.08-4-3.16a33 33 0 0 0-3.86-4.15 34.12 34.12 0 0 0-10.07-6.22l-.61-.23a24 24 0 0 0-2.71-1.19 15.35 15.35 0 0 0-6.56-1.12l-1-.14c-2.65-2-5.79-1.55-8.77-1.59-.52-1.09-1-2.09-1.62-3.43l3.24-1.24 2.23-2.69 2.79 1.34v-2.4l-3.5-2.8 1.63-1.56 4.28 2.15 1.59 2.38h3.24c.1-.83.19-1.54.27-2.24 1.17-.63 3-.69 2.47-2.83l-5.72.76-6.83-2.81c-1.77 1.53-3.64 1.13-5.47 0s-3.81-2.39-5.73-3.6h-4.49a6.05 6.05 0 0 0-4.92 2.24c-.19.21 0 .79.07 1.56l3.33-1.27c4.1 2.3 8.27 4.43 11.21 8.43l-1.44 1.42-2.9-.71 1.38 2.8a6.21 6.21 0 0 1-4.37 4.42l-3.75-1.23c.11-2-1.66-2.09-2.75-2.9l.15-2.1h3a13.83 13.83 0 0 0 2.33 2c-.05-2.47-2-3-2.54-4v-3.2l1.5-.54-1.35-1.68-3.2 1.57v4h-4l-3.92-2.63h-2.65c-.83-1.73-2.51-.34-3.5-1.08-.24-.59-.49-1.17-1-2.38l-3.16 4.19-2.75.43c1.55 3.39 3 6.53 4.41 9.61 1.74 2.13 4.16 1.84 6.17 1.84 2 1.63 4.82 1.74 6.18 4.94l-3.64 2.55c3.4.51 3.47 2.91 4.08 4.7l-2.06 3.07-2.33.27c.37 1.85.72 3.62 1.12 5.66l-3 2.16.83 1.19-1.51 2.01c-1.77.5-2.71.84-3.68 1-1.65.3-3.4 2-4.79 1.08-1.62-1.07-3.17-.33-4.56-1-1.53-1-3.27-1.68-4.73-2.74s-2.54-2.9-5.07-2.94c.42.7.59 1.31 1 1.61 2.84 2.13 5.73 4.18 7.9 5.75 2.33.8 4.08-.31 5.47 1.23a2.22 2.22 0 0 0 2.14 0c1.38-1 3.07-.55 4.48-1.21a6.64 6.64 0 0 1 6.13.21l1.33-1.41-2.89-.45c.06-.87.12-1.69.17-2.48 5.69 0 8.63-.69 11.39-2.61l-5.21-.27v-4.77l.95-1 3.35.56.2-.58-2.37-1.57c-1.85-2.54-1.09-5.14-1.26-7.9 2.29.25 4.3-.37 5.6.41l2.11-.79-10.05-2.71c.2-2.67-2-3.26-4-4a8.36 8.36 0 0 1-5.38-5.59 13.87 13.87 0 0 0-1.64-2.77c-2.48 1.24 1 2.61-.61 3.82l-3.55-3.72 1.67-1.7 1.17.93 2.4-3.61h1.87c1.77 1 3.23 1.78 4.55 2.7 1.53 1.08 2.95 2.31 4.42 3.48 1.26 1 1.74 2.77 3.34 3.54l-.24 2H382a24.41 24.41 0 0 0-8.06-6.34 12.28 12.28 0 0 0 5.71 5.81c.45 1 .89 2 1.37 3.15h2.75l2.52-1.93 2.08 2 2.16-1.93 1.52.93a1.42 1.42 0 0 0 1.44 1.29c8.63.1 17.77.16 25.77 3.87a30.49 30.49 0 0 1 9.5 6.88c1.12 1.2 2.31 3.1 3.74 4.51l-1.62 1.2a24.16 24.16 0 0 1-6.55 1c-2.51 0-5.12 0-7.16 1.3h-.94c-1.62 2.39-1.71 3-.13 4.08a13.79 13.79 0 0 1 1.91 1.82c1.7 1.77 3.05 4 5.56 4.95.84.33 1.31 1.6 2 2.46l1.52-1.6-3.06-2.44c.05-.78.09-1.35.13-2 2.17 1.11 2.1 1.16 4.45 4.5 1.3 1.86 2.88 3.51 4.36 5.29l1.76-.1a4.34 4.34 0 0 1-.43-4.2h2.53c-.2 1.81-.38 3.44-.58 5.22l.6 1.29-1.22 1.06-5.13-.77c-.49-1.39-1-2.81-1.56-4.49-1 1.87.77 4.5-1.42 5.34-2.27-.38-3.89-1.72-6.05-1.44 0 .6-.06 1-.08 1.39 1.7.45 3.58.5 4.89 1.39 2.23 1.52 4.08.77 6.08-.12 4 2.37 10.9 2.71 18.37.36-.91-.67-1.92-2-3-2.06-4.62-.1-5.24-4.29-7.74-6.59l1-.84c2 .67 2.35 3 4.61 2.91 1.37 0 1.69 2.54 3.23 2.4l1.38-2.09c1.65 2 3.58 3.18 4.51 4.95-.33 1.82-3.08-.22-2.69 2.5Zm-55.88-58c2-1.27 3.63.15 5.37 1.07-.36 1.81-1.52 2.37-3.5 2.09ZM491.46 253.27c.4-.92.78-1.81 1.19-2.77-1.13-1.45-2.2-2.95-3.4-4.35-1.36-1.58-2.84-3.06-4.11-4.41h-3.53c-2.75-1.3-5.18-2.35-7.52-3.59a48.9 48.9 0 0 0-6.48-2.88c-2.33-.83-4.68-1.78-7.08-2.47-2.85-.83-5.63-2-8.71-1.88-.64 0-1.27-.53-1.94-.69-1.65-.4-3.55-1.39-4.92-.91-1.82.65-3.65.57-5.82.85l1.77 2c-.37.84-.59 1.35-.86 2l2.71 1.77v3.43c-3-1.3-4.36-4-6.48-5.56h-2.25l3.3 6.11h2.07a77.15 77.15 0 0 0 4.85 7.1c1.3 1.52 1.9 2.84 1 4.67-4.14-.57-6.85-2.37-9.32-6.62-1-1.75-1.92-3.75-.08-6.1a22.6 22.6 0 0 1-4.65-1.36c-2-1.07-2.94.62-4.59.92.59.59.93 1.2 1.23 1.18 2.31-.1 3.32 1.33 4 3.19.07.17-.07.42-.11.58l-3.86.46a23.21 23.21 0 0 0 2.06 2.34c.64.54 2 .83 2 1.35.27 2.31 2.35 2.87 3.68 3 2.05.23 2.55 1.47 3.25 2.82l.91-.81c1.18.3 2.29.49 3.33.87 2.91 1.07 6.14.85 9 2.33.72.37 2 .67 2.5.29 2.44-1.93 4.81-.45 6.89.29a9.42 9.42 0 0 0 9.15-1.12c1.24 0 3.11-.58 4.17.11 3.33 2.17 5.22-.37 7.52-1.76 3.18 1.18 5.61 1.07 9.13-.38Zm-21.07-13.41c1.47 1.71 3.3 2.87 4.56 5.21l-2.71.39c-.15-2.03-3.23-2.88-1.85-5.6Zm-4.9-.32v1.95l-1.17.37-2.25-4.56c1.84-.15 2.4 1.47 3.42 2.24Zm-23.27-5.88c-.08-.61-.12-.9-.16-1.18.07-.12.13-.34.2-.35l7.08-.35c3.87 2.27 8.28 3.32 9.72 8.07h-5c-1.24-1.25-2.55-2.68-4-4-1.25-1.12-2.65-2.08-4-3.11-1.07 1.53-2.52.74-3.84.92Zm9.28 20c-3.1-1.18-3.46-3.9-4.66-5.9a47.27 47.27 0 0 1-2.74-6.68l1-1c2.16.43 3.15 2 4.12 3.79 1.48 2.69 3.15 5.28 4.92 8.19Zm5.68-.81-4.17-5.36.29-.12-2.37-4.3 2.63-.58a32.41 32.41 0 0 1 3.44 4.88c.77 1.59 2.67 2.18 3 4.34Zm9.94 1.39h-2.76c-1-1.85-2-3.69-3.1-5.45-.75-1.21-1.77-2.25-2.48-3.47a12.66 12.66 0 0 1-.7-3.07c2.83 1.2 5.6 1.27 6.44 3.66.95 2.74 3.57 4.95 2.6 8.38Zm11.23-.41c-1.93-1.45-4.13-1.41-6.12-2-2.53-.71-4-1.46-4.05-4.19 0-.33-.55-.65-1.08-1.23l2.44-.24 3.14 3.71 4-2 3.3 3.29a11.17 11.17 0 0 1-1.63 2.71Zm1.79-2.94c-.06-2.13-.06-3.75-.06-5.29 1.8-.91 1.49.73 2.06 1.52h4.69l2.91 4.23-.89.89ZM140.79 293.02a25.4 25.4 0 0 0 6.41-3c.39-.26.77-.55 1.14-.84a9.39 9.39 0 0 1 2.5-1.07 3.71 3.71 0 0 0 2.86-2.8 5.79 5.79 0 0 1 .29-.68 18.09 18.09 0 0 1 14.56-2.42 1.44 1.44 0 0 0 1.77-1l1.17-1.18a12.38 12.38 0 0 0-5-1.25A21.38 21.38 0 0 0 155 280.6a26.26 26.26 0 0 0-6.18 4.33 25.91 25.91 0 0 1-6.52 4.34 25 25 0 0 1-4.07 1.38 3 3 0 0 0-2.16.44 31.3 31.3 0 0 1-6.34.35 7 7 0 0 1-1.15-.94 21.66 21.66 0 0 0-3.12 0 12.64 12.64 0 0 1-2.6.07c-1.16-.23-2.32-.49-3.47-.78a14.15 14.15 0 0 1-2.55-1.28 5.64 5.64 0 0 0-4.12-.63l-2-.62c-1.38-.44-2.85-.87-4.34-1.19a8.62 8.62 0 0 0 1.88-1.48 3.65 3.65 0 0 0-3.62 0 10.89 10.89 0 0 1 2.41-3.79 9.86 9.86 0 0 1 3.57-2c5.63-1.92 12.85-1.44 16.91-6.52a1.62 1.62 0 0 0 .34-.79c2.31 0 4.86-.06 7.42 0 3 .11 6-.59 8.9.54l1.12-1.11-3.3-2.17h4.93c2.3 0 4.57-.23 6.63 1.45 1 .81 2.63.83 4 1.26a10.71 10.71 0 0 1 2.71 1.07c2.8 1.9 2.77 2 4.63 2.27-.05-1.84-.52-3.36-1.21-3.28-2.34.27-3.77-1.8-6-2s-4.46-1.44-6.68-2.23c-2.87-.94-6.08.66-8.95-1.21-3.1 2.69-6.06-1.27-8.89 0-3.16-2.6-.2-4.9-.3-7.22 2.47-.36 4.52 2 7.36.21.45-1.75 1-3.92 1.55-6l-1.35-1.35-2.5 1.21q.26 2.28.54 4.86c-2.41 1-5-2.21-7.47-.45-.48 2.67-.94 5.19-1.4 7.76l-5.25 1.31-1.14 1.45h-7.72a1.24 1.24 0 0 0-1.67-.13l-.23.13h-2.2l-.87.87a27.18 27.18 0 0 1-6.27-.89c-.34-.29-.67-.6-1-.94h-8.07l-1.29-1.28a17.76 17.76 0 0 1 .1-4.07c.32-.58.63-1.16 1-1.73a32.12 32.12 0 0 1 3.42-4.54 16.94 16.94 0 0 1 4.24-3.73c1.81-1 4-.92 6-1l7-.43 13.3-.82c2.1.73 4.16 2 6.82 1-.9-1.78-3.55-1.44-3-4l2.6-.12 3.24 3.69 3-.16c.33-1.83-.17-2.88-1.61-3.51s-3-1.42-4.57-2.16c-.05-1-.1-2-.15-3.05l-6.08-3.66h-4.57v1.71c3.53-.39 6.58.35 8.49 4.61l-3.73-1.11-2.89 3.83c-2.47-.21-5.12.43-7.64-.87-.82-.42-1.84-.07-1.49 1.58h.32l-1.79.11-.83-.9a39.33 39.33 0 0 0-7.78.5 26.47 26.47 0 0 0 3.29.73l-3.86.24.78-.56a10.47 10.47 0 0 0-3.72.95 9.32 9.32 0 0 0-3 1.14c-3.35 2.05-6.08 5.54-8.18 8.8a36.2 36.2 0 0 0-4.79 11.54c-.39 1.78 2.17 2.59 2.8 1.08a44.74 44.74 0 0 1 13.52.25c3.7.66 7.82 1.77 11.2-.51a1.7 1.7 0 0 0 .46-.47h7c-1.43 2.67-3.07 3.35-6.74 3.38l-4.75 2.17c-.4.1-.81.21-1.2.34a15.94 15.94 0 0 0-3.18 1.41c-1.75.38-2.57 1-2.7 2.19a10.53 10.53 0 0 0-.92 1.17c-1 1.57-1.52 3.42-2.5 5a10.5 10.5 0 0 0-5.35 1.92 1.52 1.52 0 0 0 0 2.59c2.6 1.45 5 .32 6.75-1.58a26.28 26.28 0 0 1 7.72 1.59l.36.12.07.07h.05a84.66 84.66 0 0 0 15.45 3.81 35.19 35.19 0 0 0 14.93-1.14ZM181.92 238.13a14.45 14.45 0 0 0-10.13 7.24c-2.65-.26-2.58-.41-3.1-2.51-.24-1-.52-1.94-.8-2.91a47.6 47.6 0 0 0-5.05-22.58 19.61 19.61 0 0 0-3.69-5.4 30 30 0 0 0-5-3.64l-8.68-5.5.26-.34c-.94-.39-1.74-.76-2.51-1.08l-1.34-.85a1.29 1.29 0 0 0-1.46 0c-.73-.13-1.51-.2-2.39-.34a7.46 7.46 0 0 0 2.3 5.61c.76 2.07 1.52 4.15 2.29 6.22.83 2.27 1.8 4.54 1.85 7a48.07 48.07 0 0 0 .26 7.1 21.54 21.54 0 0 0 2.19 6.38c1.85 3.47 4.72 6.23 7.46 9a38.9 38.9 0 0 1 4.17 4.72l-.12.13c1.14 2.45 1.93 4.9 3.33 6.93s3.8 3.67 5.07 5.33l-1.12 2.09c-1-.57-2.08-.81-2.37-1.42a21 21 0 0 0-4.24-5.94 58.84 58.84 0 0 1-5.38-5.45c-1.66-2.13-4.42-1.89-6.46-3.64-.79-6.14-3.34-11.86-6.5-17.62v-4.6c-3-5.59-5.74-10.85-9.93-14-2.37-.58-4.16-.72-5.64-1.47s-2.8-2.68-4.77-2.56-3.14-1.47-5-1.6c.14 1.57.95 2.52 2.23 2.37a5.92 5.92 0 0 1 4 1.33 49.37 49.37 0 0 1 5.41 4.41c2.54 2.22 4.65 4.86 7.54 6.78 2.22 1.48 4.31 3.55 4.42 6.77l-1.76 2c3.74 3.74 3.74 3.74 4.36 6a9.62 9.62 0 0 1-2.85-1c-1.52-1.23-3.32-1.5-5.08-1.91-.33-.08-.8.43-1.6.9l9.08 4.38 1.18-.77 2.55 7.68.5-.11v3.76a6.62 6.62 0 0 0 1.13 1.1c1.21.68 2.53 1.2 3.69 2 1.32.86 2.49 2 3.8 2.83 1.14.76.95 2.81 2.8 2.83 2.45 4.8 6.52 8.22 10.12 11.94.34 6.3 6.28 13.69 10.76 13.55-1-1.27-1.23-3.28-3.36-3.45-3.26-3.22-5.65-6.85-5.59-11.67v-9.41a12.69 12.69 0 0 0 1.8-3.82 13.7 13.7 0 0 1 7.6-8.84c2.45-1.07 5.1-3.62 8.22-1.2 5 .74 7 1.43 8.34 4a22.06 22.06 0 0 0 3 3.71c.11.14.4.14.58.19l1.17-2.71c-.73-1.06-1.68-2.06-.3-3.49a26.63 26.63 0 0 0 1.87 3c.35.43 1.09.56 2.22 1.08a12.55 12.55 0 0 0-.68-3c-1.07-1.83-2.31-3.56-3.47-5.33-.71-1.07-.8-3-.52-3.32l2.21-1.14h6.24c2.15 1.05 1 2.88 2.08 3.71l1.79 2.11c1.59-2.79-2.15-4.74-1.37-7.84h5.56l-1.57-1.67h-4.65l-3.48 2.36c-1.75-1.12-3.72-.42-5.47-.66l-3.62 3.57-2.28-2.1-2.46 2.2c-.55-2.28-1-4.32-1.54-6.37h-1c-.36 1.08-1.38 2.62-1 3.26.86 1.35.44 2.49.43 3.91a11.89 11.89 0 0 1-4.77-6.33h-2.58c-1.58-4.86-2.79-9.87-4.15-14.78a31.36 31.36 0 0 1-1.6-8.1c.24-1.38.52-2.8.8-4.28l.06.08c3 0 5.26 2.05 6.94 4.27a71.2 71.2 0 0 0 5 5.67 19.52 19.52 0 0 1 3 7.36 43.26 43.26 0 0 1 0 10c-.14 1.93 2.86 1.92 3 0 0-.37 0-.73.07-1.1l2-.21-1.22-2.1c1.24-1 .85-2.39.64-3.65-.11-.67-.6-1.28-.72-2a15 15 0 0 0-1.52-4.3 25.51 25.51 0 0 0-3.55-6.85c-3.44-4.87-7.72-10.83-13.95-12a1.49 1.49 0 0 0-1.37.4c-.19-.18-.37-.37-.56-.54s-.4 0-.61 0v.73a1.61 1.61 0 0 0-1.39 2.6 4.49 4.49 0 0 1 .54 3.14 31.69 31.69 0 0 0-.15 3.77 20.73 20.73 0 0 0 .26 2.08 13.07 13.07 0 0 0 .29 5.61c.64 2.93 2.34 5.49 2.82 8.29a23.19 23.19 0 0 0 2.4 6.45c.43 1.34.89 2.68 1.39 4a1.59 1.59 0 0 0 3 0c.68.5 1.39 1.13 2.29 1.77-1.32.86-2.05 1.65-2.89 1.8Zm-17.16 4.15a1.61 1.61 0 0 0-.39 1.41c.05.25.08.51.12.77l-1.14-2.09c-2.22-.8-3.48-3.63-5.75-4.7-2.73-1.28-2.86-3.57-3.67-5.69-2-.29-2.71-2.21-4.17-3.18.49-2.7-1.19-4.63-2.27-6.92v-1.7c.63-.73.55-1.62 0-2.81-.09-.22-.19-.43-.28-.64a26.27 26.27 0 0 0-1.16-4 5.12 5.12 0 0 1 0-.67 6.24 6.24 0 0 0-2.18-5.41 1.58 1.58 0 0 1-.22-.33l-.3-.81.25-.32 8.15 5.16a34.31 34.31 0 0 1 4.87 3.41c.19.17.34.37.52.55a4.42 4.42 0 0 0-.63 0c1.77 3.17 3.61 6.14 5.12 9.27.95 2 2.27 4 1.2 6.53l-4.12-4.3c.38-4.59-3.83-7.2-4.89-11.17l-1.65.32c2.14 1.23.51 3.34 1.91 5s1.78 4.45 3.2 6.26 1.69 4.65 4 6.09a4.11 4.11 0 0 1 1.82 2.77 6.77 6.77 0 0 0 1.67 4.11c.11 1.04.07 2.07-.01 3.09Zm29.54-5.77 2.22 1.1c-.19 2.92-.19 2.92-3.09 3.19l-1.13-2.28Zm-18.87-33.31a8.35 8.35 0 0 0-.17-1.42l.61.78c-.12.23-.27.44-.41.64ZM134.5 317.73a14.08 14.08 0 0 0 4.25-.06c1.86.32 3.7-.48 5.47-1.11 1.26-.26 2.52-.5 3.78-.73a2.1 2.1 0 0 1 .69.3c2.55 1.74 4.71-.43 7.07-.46a3 3 0 0 0 1.65-.77 76.29 76.29 0 0 1 8.14.21 1.36 1.36 0 0 0 1.36-1.9l3-.38c-2.4-1.78-2.81-2-4.7-1.21a7.76 7.76 0 0 1-1.24.4c-1.23-.07-2.46-.11-3.68-.11a12.14 12.14 0 0 1-1.88-.76l-.81.8a92.89 92.89 0 0 0-17.3 2.37c-.63.15-1.26.27-1.9.37a13.33 13.33 0 0 0-2.25-.29 10.25 10.25 0 0 0-1.8.25l-.39-.08a46.27 46.27 0 0 0-5.42-1.5c-.4-.06-.79-.09-1.19-.12l-.43-.72h-4.78a.35.35 0 0 0-.16.06l6.15-6a1.3 1.3 0 0 0 1.41 1.64 48.94 48.94 0 0 0 10.45-2.05c3.41-1.09 6.61-3 10.18-3.49a72.08 72.08 0 0 1 10.9-.29h1.3l10.4 1.16c1.68.19 2-2.58.4-2.95-.65-.14-1.31-.26-2-.37.38-.27.77-.63 1.19-.91l-2.43-1.21-1.22.86-1.94-1.08-1.74 1.06c-1.7-.91-3.15-1.76-4.66-2.46-.62-.28-1.66-.58-2.06-.27-3.08 2.29-6.64 1.59-10 1.76l-1.7 1.69-7.53 1.25-4.5 3.5a45.94 45.94 0 0 1-5.09.76l.76-.75a35.24 35.24 0 0 1 4.66-4.05 22.18 22.18 0 0 1 6-2.75 59.26 59.26 0 0 1 13.39-2.41 62 62 0 0 1 6.68-.1 13.62 13.62 0 0 1 6.3 1.28 1.5 1.5 0 0 0 1.51-2.59 11.79 11.79 0 0 0-1.92-.85l-.29-.37h-.82a23.28 23.28 0 0 0-5.68-.62 18.73 18.73 0 0 0-5-.39c-2.36.19-4.85 0-6.51 1l-.57.33a61 61 0 0 0-7.43 1.71 26.77 26.77 0 0 0-6.38 2.7 23.57 23.57 0 0 0-2.19 1.56 54.53 54.53 0 0 0-12 10.57v.94l-1.75 1.72a1.41 1.41 0 0 0 0 2.1l-1.67.45a1.51 1.51 0 0 0 .8 2.9c3.76-1.08 7.83-2 11.73-1.13 1.84.46 3.53 1.3 5.39 1.59Zm27.51-18.87a3.37 3.37 0 0 0 .61.29h-.25l-2.91-.32a1.23 1.23 0 0 0-1 .25h-3.33l1.17-1.1c2.43.32 4.37.09 5.71.88Zm-12.54.66a21.49 21.49 0 0 0-2.3.58l-.1-.58Zm-8.34 2.85-.56.21-1.14.36a9.43 9.43 0 0 1 1.7-.57ZM345.3 339.29v-.2l-.14.09a1.38 1.38 0 0 0-.63-.14 1.52 1.52 0 0 0-1.5 1.5v5.36a1.5 1.5 0 0 0 3 0v-1.36h.27v-4.17l-.33.27v-.06a1.58 1.58 0 0 0-.67-1.29ZM353.63 352.5a8.58 8.58 0 0 0 3.65-5.07 1.5 1.5 0 0 0-2.89-.8 5.79 5.79 0 0 1-.18.63 31.7 31.7 0 0 1-3.5 3.36l-.52.16c-.2.05-.41.09-.61.12h-1.25a1.5 1.5 0 0 0-.8 2.89 8.59 8.59 0 0 0 6.1-1.29Z"/><path d="M413.14 386.72c.37-1.13.76-2.33 1-2.94l-2.17-3.16h-4l-5.32-7.8.89-.89 5.7 3.84 1.55 3.49c.77-1 1.28-1.62 1.9-2.42l-2-1.57v-3.39l2.1-.7a24 24 0 0 1-9.65-7.61c.29-1.2.63-2.56 1-4.22l-7.22-8.34 1.14-2.39-4.61-1-3.67 1.42-5.48-2.23c0-.29-.08-.71.08-.86a13.78 13.78 0 0 1 1.7-1.32c1.65-1.15 3.62-2 3.64-4.51a19.09 19.09 0 0 1-2.69 2.19c-1.67.91-3.35 2.31-5.4.95-.4-2.72 4.08-1.8 3.45-5.07-1.31.9-2.44 1.64-3.52 2.43s-2.59.08-3.44 1.55c-1 1.76-2.77-.39-3.59.22-1.7 1.28-2.68-.25-2.93-.3l-4.52.78a10.43 10.43 0 0 0 .2-1.14c.35-3.22-.74-6.36-2.16-9.21v-.06a5.69 5.69 0 0 1 .39-.66l-1.11-.74c-.57-1.09-1.18-2.18-1.85-3.23v-1.95c-.67-.14-1.21-.27-1.66-.41-.32-.39-.64-.78-1-1.15s-.51-.53-.78-.77v-.31l2.65-.59c-.07-.57-.11-.85-.18-1.38-1.54-.43-2.64.42-3.78 1.26a17.4 17.4 0 0 0-7.25-2.72 1.5 1.5 0 0 0 .12-.44c.47-3.78 1-7.83 2.81-11.24a34.47 34.47 0 0 0 2.59-3.39 16.79 16.79 0 0 1 9.17-4c4.05-.56 9.25-.53 12.9 1.51a10.6 10.6 0 0 1 4.32 4.47v10.55l-4.49 3.81a31.46 31.46 0 0 0-1.49 2.94 24 24 0 0 0-.72 2.37l-1.46 1.5a1.34 1.34 0 0 0-.41 1.28c-.54.37-1.15.73-1.75 1.19l3.05 1.59 7.05-7a3.77 3.77 0 0 0 1.13-1.7 11.08 11.08 0 0 0 2.51-3.19 12.42 12.42 0 0 0 .83-4.22c.25-3 .34-6.08-.8-8.93a14.59 14.59 0 0 0-1.6-2.93 1.49 1.49 0 0 1 0-.21c0-.17-.32-.31-.46-.42a13.38 13.38 0 0 0-2.19-2.26l-.11-.08a11.8 11.8 0 0 1 2.07 1.29c2.05-.37 3.47 1 5.35 1.91a4.46 4.46 0 0 1 .54-.53 76 76 0 0 0 15.79 3.12c1.92.19 1.91-2.81 0-3h-.23c-.19-2.67-2.55-4.79-2.93-7.74-.94-.77-2.17-1.8-3.41-2.64v2.34l-2 .22c-2.1-2.94-3.35-6.71-7.73-7.38v-3.23l1.12-1.12a37.65 37.65 0 0 1 4.06 4.91c1.15 1.91 3 2.72 4.59 4.22-.78-3.15-4-7.9-7-10.33a5.85 5.85 0 0 0-5-1.55c-1.17-.55-1.51-2.61-3.1-1.64-1 2.72 2.41 1.79 2.69 3.89l-3.5 1c1.94 1.72 4 2.66 4.6 5.12l-6.49-3.61-1.52 1.52-6.76-5.47-3.31.37c.88 1.1 1.3 2.2 1.94 2.34 2.78.62 4.39 2.72 6.24 4.53 1.6 1.58 3.15 3.22 4.8 4.75a10.54 10.54 0 0 0 2.31 1.11c-1.93-2.57-2.41-3.65-2.75-5.89a9.2 9.2 0 0 1 6.05 4.48c1.05 1.73 2.15 3.24 4.32 3.83.08-2.62-3.39-3.55-2.15-6.53 1.42 1.43 2.78 2.72 4.06 4.08a8.26 8.26 0 0 0 5.57 2.56l3.63 4.86c-1.91.88-3.67-.19-5.35-.07a72.93 72.93 0 0 1-12.52-3.73c-5.55-2.21-11.94-4.56-15.86-9.29a1.29 1.29 0 0 0-2.07.05h-1.7c.45.38.87.76 1.28 1.16a1.54 1.54 0 0 0 .36.91 26.45 26.45 0 0 0 9 6.59 27.57 27.57 0 0 0-9.6-.81c-4.86.33-9.85 1.84-13.34 5.4a17 17 0 0 0-3.69 6 3.91 3.91 0 0 0-.73 1.17v1.13a56.08 56.08 0 0 0-1.39 7.9l-.54.3c-1-.06-2-.07-3-.06a28.08 28.08 0 0 0-4.6.36l-.14-.13v.16a15.39 15.39 0 0 0-3 .82c-2.3-2.3-3.92-4.88-6.5-6.42-.13-.08-.41.11-.64.18v2.06c3.26.2 3.24 3.69 5.19 5.06l-.07.14-.27.15c-2.68 1.76-4.77 4.29-7.58 5.87a1.36 1.36 0 0 0-.57 1.86 17.08 17.08 0 0 0-3.37 6 15.74 15.74 0 0 0-.71 5.78c0 .56.11 1.11.2 1.66-.11.47-.21.94-.29 1.41a13.08 13.08 0 0 0-.21 1.86 2 2 0 0 1-2.7-.71l-.62.57c-2.32-.22-4.64-1.14-6.19-.41-2.13 1-4.35.12-6.76 1.24 4.4 1.12 8.67-.67 12.19 1.13 1.05-.29 2-.91 2.61-.67s1 .35 1.52.52a8.45 8.45 0 0 0 .82 2.84 15.43 15.43 0 0 0 3.86 4.58c1.42 1.24 2.86 2.45 4.3 3.66l-.51.87a2.49 2.49 0 0 0 3 1.9l1.92-1.5-.31-.47a1.23 1.23 0 0 0-.36-1.56c-.48-.42-1-.83-1.46-1.24-.08-.16-.18-.32-.25-.49-.79-1.79-2.79-2.26-3.79-3.75s-2.06-3.17-3.2-4.95a13.3 13.3 0 0 0-.14-2.36v-4a14.26 14.26 0 0 0 .32-3.57 1.44 1.44 0 0 0-.48-1 13.74 13.74 0 0 1 6-8 1.43 1.43 0 0 0 .68-1.51l1.78-1.54a12.9 12.9 0 0 1 7-3.2 37.19 37.19 0 0 1 7.68 0c.52 0 1.05.11 1.58.19 3 1.68 5.87 3.29 8.63 5 .64.88 1.22 1.82 1.79 2.76.69 1.14 1.37 2.3 2 3.5a9.23 9.23 0 0 1 .08 1.18c0 2 2 3.71.61 5.78l-1.33.29v2.91c.42.53.81 1 1.18 1.49-.06.21-.14.41-.19.62-.31 1.24-.25 2.52-.53 3.75a7.6 7.6 0 0 1-1.6 3.07c-.84 1-1.81 2-2.73 2.93s-2 2.24-3 3.32c-.27.28-.56.56-.87.85a2.9 2.9 0 0 0-1.57 1.24c-.2.13-.41.25-.62.37h-6.4c-2.11 0-4.18-.27-6.87.41l6.05 1.77c-.64 2.86-2 5.66-.14 8.67l-5.51 2.15 1.9 1.59 4-1.3c1 2.8 3 4.1 5.68 4.88.14-.63.24-1 .28-1.19l-3.07-2.46c-.67-2-1.08-3.23-1.43-4.44-.07-.23.11-.54.08-.42l2.83-2.1 6.74-1.32 1.46 2.73-2.17 2.55a8.74 8.74 0 0 0 2.12 1.07c3.65.52 6.69-.8 9.61-2.95 1.57-1.16 2.73-2.24 2.76-4.33-3.11 2.69-6.42 4.89-10.84 5.64.45-2 .82-3.57 1.26-5.48a10.45 10.45 0 0 0 8-3.23c.67 1.25 1.17 2.17 1.61 3.07 1.39-.12 2.06.68 2.74 1.77 1.36 2.17 2.9 4.23 4.58 6.65v3.13a8.49 8.49 0 0 1 3.55 8.08 6.8 6.8 0 0 0 .75 4.65c.56.9 0 2.51 0 3.77h-1.73c1.12-4.25-3.12-6.3-3.86-10l-2.91.51c1.48 2.32 2.78 4.16 3.85 6.12a20.14 20.14 0 0 1 1.2 3.56c.58 1.71.58 3.67 2.05 5 .26.24.78.18 1.38.3v-2.06l1.92-2.07a21.21 21.21 0 0 1-.81-3.31c-.1-1.8-.08-3.61 0-5.41a13.45 13.45 0 0 0-4.56-11.18v-3.57c-.89-.89-2.21-1.61-2.49-2.62-.67-2.41-2.36-3.91-3.91-5.62s-3-3.57-4.49-5.34c-.11-.13-.41-.1-1-.23l1.12 2.51-1.15 2.58-3.1 1.26c-.17-1.16-.3-2-.43-2.84h-2l-3.06 2.78c-.9-.42-1.52-.75-2.17-1a12 12 0 0 0-1.31-.39 1.29 1.29 0 0 1 .16-.09c2.25-1.43 3.93-3.56 5.7-5.53l3.12-2.42-.49-.4a11.3 11.3 0 0 0 2.79-4.87c.34-1.45.26-2.93.71-4.36.09-.28.19-.55.29-.82h5.87c3.94 3.5 9.36 4.85 11.91 9.39-.46 1.38-.84 2.55-1.19 3.59l2.8 3.15 2 .1c.66 1.86 1.82 3.12.43 5.06-.84 1.17.23 3.44-1 4.6l1.38 4.18c.53-3.63 1-6.88 1.53-10.4l2-.8 3.5 3.5-.9.2c-.43 1.32-.85 2.65-1.36 4.22l2 1.5v4.4c1.31 3.07 3.81 4.78 5.84 6.89.21.23.87 0 1.25 0a19.32 19.32 0 0 1 .3-2l5 1.9v4.14l-3.48-4.15h-2c.73 1.79 1.63 3.95 3.3 4.35 2.08.5 2.72 2.57 4.57 3 .61 2.34 3.48 2.38 4.24 4.39h2.14c.64 1 1.32 2.1 2.22 3.5v4.45a9.07 9.07 0 0 0 1 .15c.12 0 .25-.11.57-.27.5-5.42-1.53-9.92-5-14Zm-22.66-25.79-4.88-1.26c-.21-1.8-.21-1.8 1.32-3.44l3.75 2.15c-.06.88-.12 1.69-.19 2.55Zm2.48 2.16c.59-1.49.94-2.39 1.22-3.11l-4.3-4.25 3-.35 4.68 5.28-.46.57c2.26 3.71 6.92 5.09 9.41 9.36l-2.14.2Zm9.93 15-3.59-3.59 1.69-.16 2.39 2.39c-.18.54-.33.92-.49 1.35ZM399.97 83.1c1.39 1.89-.43 4.91 2.63 6.41-.37-1.32-.66-2.18-.84-3.06-.21-1.08-.33-2.19-.49-3.35ZM371.93 269.65c-1.37 2.15-2.07 3.26-3.39 5.35l4.47-2.48ZM113.87 45.85c1.74.47 2.9 0 3.74-2.33l-2.62-.22ZM355.14 385.22a4.75 4.75 0 0 0 3.4 5.17ZM436.9 226.75l-1.39-.27c-.87 1.14-1.55 2-2.18 2.87-.09.12 0 .4.05.63h2c.52-1.06.97-2.03 1.52-3.23ZM225.13 190.37c-2.27.08-2.1 2.19-3.26 3.56 2.96-.91 3.43-1.4 3.26-3.56Z"/><path d="M407.68 399.18c.71.16 1.44.26 2.13.49a19.76 19.76 0 0 1 1.86.89l2.89 1.41c-2.91-3.08-3.07-3.15-6.88-2.79ZM445.01 115.98c-.59-1.19-1.11-2.24-1.61-3.23l-1.07.19c-.77 1.61-.15 2.73 1.34 3.42.27.13.75-.2 1.34-.38ZM205.46 102.05q5.7 3.09 11.6 5.81c1.89.88 3.79 1.72 5.7 2.54s3.7 1.43 5.42 2.36a13 13 0 0 1 4 3.73c1.24 1.6 2.49 3.2 3.71 4.83a13 13 0 0 1 2.5 4.88c0 .11.05.22.08.34l-.5.18c.69 2.16.89 4.62 2.14 6.3 2.85 3.84 5.56 7.84 9.16 11.07.3.28 1 .14 2.2.28-1.75-2.4-3-4.28-4.42-6-1.58-1.91-1.6-4.28-2.68-6.46 4.12-.18 4.07 0 5.93.6 2.79 1 5.6 2 8.65 2 1.76-.05 3.53 0 5 0l2.48 5.25a8.37 8.37 0 0 1 1.19.32c.52.21 1 .67 1.5.69a9.4 9.4 0 0 0 2.5-.83l-4.32-2.19-1.6-5.38c-1.46.8-2.93-.3-4.41.84-.64.5-2.31-.34-3.51-.59a35 35 0 0 1-4.11-.93c-1.31-.45-2.47-1.47-3.78-1.69s-2.58-.21-3.66-1-2.14-1.72-2.93-2.37l-1.67.52c-.18-.87-.33-1.74-.58-2.58 0-.12-.09-.24-.13-.36v-.91c-1.93-3.42-2.74-4.83-4-5.56l-2.39-3.1a16.69 16.69 0 0 0-3.95-4 3.82 3.82 0 0 0-3.55-2l.23.31c-.75-.31-1.51-.6-2.25-.92q-3-1.28-6-2.64c-1.08-.49-2.14-1-3.2-1.53 1.88 0 3.76.05 5.64 0 3.72 0 7.37-1 11.08-1 3.35 0 6.85 1.12 10 2.13 1.14.36 2.27.77 3.37 1.23a12.38 12.38 0 0 0 2.48 2c4.2 2.33 8.72 4.26 12 8 .12.13.56 0 1 0 1.1-3.8-1.6-5.81-3.8-8.06h-3l-.65-.4a1.47 1.47 0 0 0-.39-.45 30.7 30.7 0 0 0-9.18-4.87l-1.71-.56c-.18-.43-.35-.81-.46-1.07.23-1.47.43-2.8.56-3.69l-3.62-2.58-2.95.33c.7 2.72 3 2.78 4.61 3.71v2.61a29.07 29.07 0 0 1-2.85-1c-2-.94-4-1.76-5.83-.32h-.73l-1.27-.95-2.16 1.45a52.34 52.34 0 0 1-5.57.59c-3.45.09-6.92 0-10.38-.08l-1.57-.34-3.81-1.23a1.51 1.51 0 0 0-1.16 2.74ZM397.65 282.9l4.4 2.57.35-1.83c-1.56-.41-2.67-2.02-4.75-.74ZM396.02 343.22l4.15.58c-2.94-2.43-3.55-2.42-6.65.32ZM267.05 209.67c1.42-1.44 3-2 2.71-4h-2.71ZM219.38 210.37c1.42-.25 3 .61 4.54.72.56 0 1.18-.64 1.28-.7 1.59.42 2.92.39 3.65 1.05.89.81 1.8-.63 2.73.53.64.79 2.36.63 3.51 1.1a21.8 21.8 0 0 1 2.87 1.69 18.1 18.1 0 0 1 4.63.74c1.64.51 3 1.47 4.59 1.95a6.75 6.75 0 0 0 1.75 0v-2.34c-3.34-3.4-7.86-3-11.92-3.89-1.73-.36-3.38-.48-4.64-1.84-5.83.23-11.71-2.67-17.55.39v1.12c1.69.62 3.06-.29 4.56-.52ZM198.01 324.61a27 27 0 0 0-11.3-2.51c-2.12-.08-4.25-.08-6.37 0a5.07 5.07 0 0 1-3-.9c-5.87-.66-11.51.89-17.19 1.87a10.21 10.21 0 0 0-1.44.39 57.87 57.87 0 0 0-9.82 1.55c-3.52 1-6.8 2.77-8.73 6a1.5 1.5 0 0 0 2.59 1.51 9.12 9.12 0 0 1 2.3-2.52 7.94 7.94 0 0 0 3.62-1.85 25.9 25.9 0 0 1 4.68-1.08l.25.23 1.35-.44c1.73-.2 3.41-.33 4.91-.48a230.69 230.69 0 0 1 24.65-1.26c4.07 0 8.25.29 11.95 2.14a1.47 1.47 0 0 0 1.37 0 4.86 4.86 0 0 0 2.74 0c-.64-.51-1.23-1-1.84-1.46a1.23 1.23 0 0 0-.72-1.19ZM139.22 76.06l-1.32-1.91h-3.94l3.06 3.06ZM294.08 263.01l2.78 1.37c1.35-1 2.69-1.51 4.16-.06a25.35 25.35 0 0 0 2.42 1.69c1.69 1.34 3.28 2.83 5.05 4.06.69.47 1.75.41 3.54.78-3.31-2.94-5.23-6-8.54-6.74-1.42-3.44-5.16-3.09-7.33-5.36.43 2.08-.86 3.16-2.08 4.26Z"/></svg>