<svg width="400" height="400" data-name="Ebene 1" xmlns="http://www.w3.org/2000/svg" viewBox="0 0 500 352.64"><path d="M165.54 297.37c.69.95.15 3.17 1.12 3.88a121.75 121.75 0 0 0 12.57 8.18 48.27 48.27 0 0 0 7.91 3.16c1.51 1.16.83 2.63 4.68 3.8a11.73 11.73 0 0 0 6 0 38.25 38.25 0 0 1-4.53-3.5 20.13 20.13 0 0 1-3.4-4.1.83.83 0 0 1 .63-.23 16.6 16.6 0 0 1 6.77 2.1c1.39.73 5.78.09 5.78.09s-2.39-3.29-4.46-4.16a12.82 12.82 0 0 1-3.68-2c-1-.73-.05-2.43 1-1.7 3.35 2.35 9.64 1.13 9.85.76s-2.2-4.16-5-6.11c-10.48-7.23-16-16.62-13.74-29.45 1-5.72 3.61-11.26 5.14-16.7 2.25-8 9.18-13.77 15.74-20.06 2.48-2.37 4.28-4.86 6.78-6.37-2 0-4 0-6 .13-1.19.26-8.78 7.35-18.65 20.61s-6.63 39.19-6.63 39.19c-.09.69 7.53 6.44 8.17 12 0 0-2.25.35-1.76 2.3s1 4.4 1 4.4-2.45-1.14-4.24.25-1.3 5.21-1.3 5.21ZM187.1 52.17c.3-2.85-1.71-8.15-2.65-7.85 0 0 .49 6.21-.26 7.35-2-.63-7.15-4.29-8.94-4.86-.62 8.35-3.6 5.93-9.17 3.53h-1.81a18.15 18.15 0 0 0-3.47.36l-1.7.7c1.17 0 2.34.06 3.5.07a1 1 0 0 1 0 2c-2.23 0-4.47-.1-6.72-.15a9.28 9.28 0 0 1 3.24 1.6c1.53 1.26 2 3.27 2.84 4.95a16 16 0 0 0 4.45 5.45 37.84 37.84 0 0 1 5.25 2.53 1 1 0 0 1-.77 1.83A15.59 15.59 0 0 1 165 66.8c-3-1.33-6-2.68-8.4-5.2-1.54-1.64-3.12-3.87-5-5.52l-1.7-1.27a6.55 6.55 0 0 0-3.94-1 1 1 0 0 1-.4 0c-.53.08-1.06.17-1.59.28-3 .65-5.68 2.12-8.64 2.76-1.39.31-2.81.47-4.19.83a5 5 0 0 0-.68.25 18 18 0 0 1 4.24.91c1.09.41 5.64 6.71 13.14 10.77 6 3.24 15 4.34 17.32 5a42 42 0 0 0 7.19 1.45c.72-.35 1.45-.69 2.2-1a44.67 44.67 0 0 1 6.4-1.59l-.05-.11 7.68-4.07c-1.27-1.85-2.92-4.63-4.94-7.1s-4.51-4.81-6.16-8c8.13 1.29 19.92 13.54 20 13.47a17.79 17.79 0 0 0-2.49-9.4c-1.99-3.09-6.87-5.19-7.89-6.09ZM153.65 67.6l-12.72-9.23c8.51-1.32 10.68 3.88 13.83 7.67Zm26.61.21c-7.9-1.25-11.12-5.21-17.16-11.8 10.3-.13 13.02 4.61 17.16 11.8Z"/><path d="M158 285.6c.13-.56.27-1.11.44-1.65a62 62 0 0 1 2-8c1.26-4.13 2.32-8.33 3.73-12.41a50.7 50.7 0 0 1 2.37-5.87c.92-1.84 2.09-3.54 3.17-5.28.7-1.12 1.31-2.28 1.93-3.45v.42a28.84 28.84 0 0 1 7.21-10.04 1 1 0 0 1 0-.17.92.92 0 0 1 .45-.79l.06-.06c.12-.15.22-.31.32-.46.28-.44.54-.89.81-1.33a21.49 21.49 0 0 1 2.11-3.05 11.82 11.82 0 0 1 4.77-2.81c.47-.55.94-1.1 1.45-1.62a1 1 0 0 1 1.08-.2 20.08 20.08 0 0 1 7.94-5 39.35 39.35 0 0 1 14-2.21c3.54 0 7.07.38 10.6.57a30.15 30.15 0 0 1 5.05-.32q49.18.81 98.39.32c5.16-.05 10.27-3 15.43-4.51 2.46-.72 5-1.73 7.47-1.74 7.73 0 14.9-.66 20.8-6.83 2.8-2.93 6.86-4.81 10.61-6.61 5.66-2.72 11.71-4.63 17.28-7.49 3.42-1.76 6.83-3.51 10.34-3.21a14.21 14.21 0 0 1 5.08-.23 47.94 47.94 0 0 1 12.51 2.68c3.41 1.22 8.52 3.52 8.83 7.65 7.93 5.68 12.87 15 24.45 15.26-1.72-6.31-3.27-12-5.26-19.29 8.72 7.31 19.87 8 29.78 6.95 2-.2 2.28 4.4 4.13 6.43 1.25 1.38 1.66 3.52 2.69 5.89 4-3.58 2.56-6.5.77-9.42-2.43-3.95-1.87-9.89-8.31-13.46s-13.92-4.82-21.28-8.55c6.57-2.93 12.68-4.63 17.55-6.8 2.62 2.81 20.64 3.66 21.21 2.88-1-.62-8.67-5.73-11-6.29-3.71-.89-9 1-9.84.83a21.59 21.59 0 0 1-4.62-1.51c-7.61-4.14-11.52-5.24-14.61-5.17s-14.79 1.5-15.71 2.27c-7.9 6.7-14.34 5.28-23.63 4.56-6.39-.5-12.83-.41-19.27-.39-2.05 1.39-4.83 1.73-7.66 1.8-4.3 3.44-9.09 5.65-15.15 5.06a6.92 6.92 0 0 1 2.93-4.1 1.46 1.46 0 0 0 1-.64 27.49 27.49 0 0 1 6.13-3.64c1.73-.62 4-.2 4.58-.29l15-2.61c1.87-.33 1.07-3.18-.79-2.86l-16.47 2.87c-3.64.63-7.51 1.26-10.12 3.95-2.09.07-2.14-1.53-1.68-5.2 1.61.74 5.23-1.38 5.34-1.48s-4-1.75-6.66-4.28c5.68-8.1 16.39-5.41 22.88-11.82 1.12 2.93 1.79 4.69 2.52 6.62 1.06-2.07 1.44-4.2 2.69-5 5.12-3.38 10.25-7 15.86-9.32 5.09-2.13 9.3-4.39 11.12-9.92 0 0 1.59-8 2.87-10.2s10.13-4.71 10.13-4.71 1.37 2.07-1.2 7.34a63.36 63.36 0 0 1-6.54 10.22l5.16 2 3.91-2.71c1-5.79 1.63-10.53 2.7-15.17 1.65-7.18 8.81-3.26 13-6.53-2.46-1.31-5.3-2.56-7.31-1.75-7.09 2.87-13.81 3.49-20.66 6.94a11.82 11.82 0 0 0-3.57 4c-.68 1.83-.06 5.42-1.05 6.92-3.91 5.93-10 9.52-16.53 12.3-11.64 5-23.58 9.22-35.88 14 1.55-13.34-3.53-23.77-13.75-32.09-1.5-1.22-1.69-4-2.66-5.93-3.66-7.32-5.78-16.52-11.55-21.35a36.53 36.53 0 0 1-11.21-14.85c-.66-1.6-2.15-2.91-3.44-4.17-4.14-4-8.38-8-12.64-12 6.43-10.46 13.88-16.92 26.49-15.47 7.35.85 10.69-3.12 7.33-9.65-.45-.87-2.22-1.78-2.75-3.32 4.33-1.23 10.7-.92 14.64-1.94 2.74-.72 9-4.18 10.28-6.7a13 13 0 0 0-1.89-13.66c-.77 1.74 1.21 7.82-3 11-5.85 4.48-20.28 7.2-23 8.64-3.09-.52-24-1.1-26.43-2s11.31-5.43 17.63-6.47a25.63 25.63 0 0 1 11.63.87c2.67-.15 6.73-1.17 7.61-3 4.19-8.84-3-23.82-12.65-25s-19.9-1.63-29.64 2.82c-6.17 2.83-13.28 5.51-19.83 5.22-12.18-.51-18.82 7.49-26.71 13.9-1.07.13-2.14.3-3.19.53-1.91-7-14.37-16-20.27-13.64-1.29.53 1.78 21.35 5.7 25.61s6.82 13 6.68 15.46a12.22 12.22 0 0 1-2.1 6.93c-1.55 2-3.85 3.06-6 4.27-1.67 1.33-3.37 2.63-5 4.06l-2.45 4.76a4.29 4.29 0 0 0 1.7 3 9.13 9.13 0 0 0 3.69 1.51l.65.06a62.62 62.62 0 0 0 8.22-.09 31 31 0 0 0 8.55-1.36 58.45 58.45 0 0 0 8.59-4.13 1 1 0 0 1 1.19 1.55 13.32 13.32 0 0 1-4.73 3.4 53.74 53.74 0 0 0 1.31 7.71c5.45 6.75 10.81 13.63 16.38 20.68-.38 2.78-.85 6.25-1.34 9.89l-11.28-5.53c-3.84-.77-7.43-2.83-10.67-4.92-3.41-2.19-11.9-6.66-12.74-6.56 0 0-15-12-23.14-16.38s-23.32-7.31-28.9-7.19a46.08 46.08 0 0 0-10.32 1.4c-2.62.82-25.73 7.36-27.46 7.64a25.08 25.08 0 0 1-2.79 1.63c-2.64.16-21.37-11.53-23.37-13.48l.14-.15c-.85-.6-1.71-1.18-2.57-1.77-2.23-.21-4.23-.68-4.61-3.26a21.2 21.2 0 0 0-5-3.12 26.14 26.14 0 0 1-3.89-1.17l-.26-.13-3.46-2a229.66 229.66 0 0 1 22.58-6.51 171.94 171.94 0 0 1 25.21-3.65c4.86-4.48 10.36-5.72 16.95-5.49 1.78-.53 6-1.53 7.25 0 2.13.34 4.3.45 6.44.71a31.25 31.25 0 0 1 3.52.67c5.54 0 26-.35 28.55.9.3.15 8.73 1.55 12 3.46.12.06.22.14.32.2 2.1.36 6.7 9.6 8.13 12.92.39-.23 5.65-5.33 6.24-7.21a.89.89 0 0 1-.94-.69l-.15-.6v.11c-9.77-11.49-42.75-11.55-46.71-11.73-9.35-.43-18.66-2.08-28-2.17-5 0-10.14 2-15.15 3.28-6.23 1.62-12.37 3.58-18.61 5.19-12.08 3.11-24.2 6.07-36.28 9.16-.38.1-.56 1-1 1.7 8.17 4 16.51 7.45 24.1 12.1s14.65 10.66 22.24 16.3c-6.75 4.43-13.87 7.46-18.74 12.62-11.79 12.51-25.44 18.27-42.57 16.17-3-.37-6.18.84-10.28 1.47 4.41 6.92 8.85 11.34 15.52 12.08 7.06.79 14.23.64 21.34 1 2.48.11 5.19-.14 7.39.76 17.69 7.2 35.8 5.32 55.65 3.26l4.5 7.07-1.05 1.7c-12.69-.48-21.67 5.56-29.39 14.74-6.75 8-16.18 11.38-26.38 13.8a156.67 156.67 0 0 0-29 10.35c-5.79 2.65-12.36 6.35-15.5 11.47a188.11 188.11 0 0 0-16.81 35C67.3 238.15 67 240 56 239.83c-4.24-.06-8.49-1.65-12.68-2.72-4.88-1.25-9.62-3.27-14.56-3.93-10.17-1.37-18.47 4-20.33 12.66 1.35.56-3.64 9.62-8.46 13.81l6.7 1.59 3.58 2.53c1.66 1.18 3.39 2.3 5 3.58s3.06 3.08 4.74 4.38a12 12 0 0 0 3.73 3.21 28 28 0 0 0 15.74 2.15c7.86-1.17 14.57-5.89 21.69-9.39 13.85-6.82 20.16-18.3 26.58-30.59 5.83-11.16 11.39-22.5 17.85-33.28 7.83-13.06 23.88-18 38.05-13-1.51 15.28-2.92 30.45-4.56 45.58-.43 3.94-.67 8.39-2.66 11.56-2.92 4.63-7.35 8.32-11.56 12.88 1.1 21.5 3 63.39 3.37 65.59s13.25 10.24 20.89 12.68l.18.17.42.42a26.15 26.15 0 0 1 3.82 11.55 1.49 1.49 0 0 0 2.78.67 1.41 1.41 0 0 0 .49-.73 15.2 15.2 0 0 0 .81-5.79c0-.25-.07-.5-.11-.74v-3.56a58.53 58.53 0 0 0 8.73.76 10.72 10.72 0 0 1 1.74 1.55c.8.87 5.13 1.73 4.44.86-.48-.59.59-3.44-3.38-5.48a6.83 6.83 0 0 0-1.33-2 12.26 12.26 0 0 1-1.47-2.25c-.08-.17-1-1.78-.65-2.49s2-.34 2.31-.2l.23.1c3.46 1.5 6.54 1.27 10 2.91.23.11 2.32 1.4 2.68.94s-1-2.76-1.6-3.19c-.84-.58-.72-2.3-1.53-2.86-.56-.39-4.55-6.77-3.82-7.64.47-.56 8.54 4.27 9.26 2.75s3.75 2.93 4.58 1.88-.7-3.93-1-5.69.52-2.4-1.13-4.33a32.25 32.25 0 0 0-8.16-6.22m173.09-197.55 7.55 6.14c-.72.79-1.45 1.57-2.18 2.36l-6.67-7c.43-.51.87-1 1.3-1.5Zm-9.77-16 4.49 7.48-2.71.68c-.95-3.06-1.68-5.43-2.41-7.79ZM325 76.66l7.7 4.91-.92 1.39-7.55-5.12Zm3.17-35.86c4-1.53 22.92-2.09 23.87 7.53a27.79 27.79 0 0 0-16.57-2c-3.72.81-4.56 3.52-6 3.51a17.32 17.32 0 0 1-4.31-.41 61 61 0 0 1-1.46-1.06l-.38.15c-1.32-4.5 1.86-6.59 4.85-7.72Zm-73.3-11.64c-2.32-5-2.45-16.23-2.45-16.23s3.32 2.13 4.25 2.65a29.37 29.37 0 0 1 2.66 1.56 28.12 28.12 0 0 1 4.13 3.88 30.43 30.43 0 0 1 2.32 2.64c.53.72 1.27 2 .69 2.84 0 0-.19 2.36-.3 3.49-.08.86-1.57 9.32-1.57 9.32s-7.41-5.11-9.73-10.15ZM24.74 270.77a16.68 16.68 0 0 1-5.74-5.45 44.4 44.4 0 0 1-5.32-3.71 36.67 36.67 0 0 1-2.92-3.06c-.95-1-1.95-2-2.12-3.4a1 1 0 0 1 1.24-.95 8 8 0 0 1 2.92 2 36.2 36.2 0 0 0 2.91 2.33 40.09 40.09 0 0 0 3.5 2.4c1.16.68 2.34 1.33 3.46 2.07a1 1 0 0 1 .44.75 38 38 0 0 0 7.45 3.46c6.72 2.12 17.86 4.42 17.86 4.42.02.24-16.81 3.08-23.68-.86Zm212-58.53 7.63 4.83c-6.37 2.69-8 1.82-7.62-4.83Zm-67.92 112.53s-4.51-.75-6.95 1-2 7.62-2 7.62c-5.24-.23-11.84 1.34-16.64-.76-1.14-.57-12.19-7.6-11.28-13.3-.06-.53-.11-1.05-.12-1.58 0-1 0-2.05.12-3.07-3.64-17.64-1.1-35.3-2.09-53.38 0 0 7.85-1.41 12.64-14.72s2.5-43.18 2.5-43.18a21.81 21.81 0 0 1 .68-3.76 10.29 10.29 0 0 1 .4-1.1v-.22h.12c.3-.66.63-1.31.89-2a6.07 6.07 0 0 1 .31-.69 9.52 9.52 0 0 1 2.86-3c1.26-1 2.53-1.91 3.78-2.88a12.72 12.72 0 0 0 1.9-4c.18-.44.36-.88.56-1.31s.43-4.42.68-5.9c-.69 1.16-2.71 3.67-3 4.08-.45.56-.91 1.17-1.42 1.74a1.42 1.42 0 0 0-.35.11 16.21 16.21 0 0 1-8.55 1.58c-.39-.09-.78-.2-1.18-.28-.77-.16-1.53-.28-2.28-.38-3.79.36-7.11 1.32-13.91 1.06-2.7-.1-13.83 2.87-23.22 14.67-16.11 20.2-30.95 57.58-35.65 57.75s-11.28-2.05-15.82-1.27c0 .61 1.39 8.62 1.42 9.23-5.12-2.11-11.57-11.62-17.67-14.12-1 1.78 6.27 10 4.59 12.88-5.2-2.13-20.83-7.86-24.56-15.59 1.38-.65 2-11.07 8.48-11.89 10.49-1.34 29 7.22 36.44 9.22l-4.08 1.81-3 1.28c8.78 3.69 18.5-4.72 21.87-13.15 2.6-6.49 3.74-13.57 6.28-20.1.41-1.06 4-17.4 16.26-27.4 12.84-10.46 34.39-14.58 34.37-14.93 6.46-2.5 17-5.56 22.1-9a.15.15 0 0 1 0 .1c4.68-3.16 9.34-6.34 14.23-9.14a29 29 0 0 1 3.9-4.08 19.41 19.41 0 0 1 3.92-2.68l-.35-.53 12.37-1.93.48.75c.65 0 1.31-.06 2-.06 2.06-.13 4.11-.48 6.15-.74-2.4-2.22-4.46-4.66-4.51-8.58 6.66 3.35 13.29 6.85 20.2 9.65 7.24 2.94 15.07 4.88 22.93 4.07 1.87-.19 1.89-3.15 0-3-7.63.78-15.11-1.11-22.14-4q-3.06-1.24-6-2.66c1.53 0 6.2-.39 7.89-1.41 0 0-10.6-2.11-13.39-5.2-.62-.26-12.22-6.51-19.29-5.88s-22.57.55-33.1 0a36.14 36.14 0 0 1-17.15-5c1.61-3.6 13-8.67 13.69-8.34-1 1.29 8.83 6.44 12.56 8.23 2.73.4 5.47.74 8.22 1a55 55 0 0 0 9.6-.16c1.73-.17 3.47-.32 5.2-.37 0 0-11.47-5.68-21.59-7.19s-10-4.65-10-4.65a27.85 27.85 0 0 1 8.62-4.51s2.33-2.61 7-.11c2.68 1.45 16.14 9.77 24.77 13.87 6.28 3 8.76 2.27 8.76 2.27l-23.78-15.41-3.73-5.2s4.88-2.57 6.89-1.08a81.24 81.24 0 0 0 9.3 8.47 24.72 24.72 0 0 0 10.28 4.59c1.68.87 11 5.6 15.69 10.17 3.61 3.51 4.37 9.92 4.77 10.71 1 1.88 5.1 3.29 5.29 3.18-.87-.61-3.76-9.72-8.86-15.3-5.7-6.25-13.63-9.05-14.16-9.89 3.35-.82 17.56 4 17.56 4s-17.92-18.61-23.18-22.17c.05-.16-.48-.77-.8-.9a54.65 54.65 0 0 0-9.95-1c-.31 1 4.65 3 9.86 6.06 6.64 3.86 14.1 11.17 14.1 11.17s-9-1.1-10.72-1.6c-2.73-.79-9.44-4.7-10-5.81-3.21-1.38 2.16-1.64-9-5.14s-19.5 4.57-19.66 4.59c-1.49.55-13.24 3.65-15.94 4.82-3.73 3.14-7 5.81-10.12 8.54-5.07 4.39-10.71 6.85-17.58 5.79-2.8-.43-5.64-.58-8.52-.87-1.13-4.54-.91-4.29 3.53-5 5.21-.87 10.89-1.6 15.27-4.23 8.49-5.11 16.3-11.38 24.23-17.39 11.22-8.52 23.75-13.83 37.38-17.37a73.35 73.35 0 0 1 40.18 1.22c1 1.9 6.38 7.46 6.44 7.62.56 1.13 9.38 6.8 10.7 8 0 0 27.42 14.7 28.33 14.9l.59.13a33.27 33.27 0 0 1 7.11 1.88 14.17 14.17 0 0 1 2.21 1.26c.56.38 1.1.79 1.62 1.22a22.84 22.84 0 0 1 5.37 3.87 1 1 0 0 1-1 1.65l-.4-.12a3.6 3.6 0 0 1-.15.93 6.83 6.83 0 0 1-2.44 3.2 33.53 33.53 0 0 1-5.86 3.48 21.78 21.78 0 0 1-13 1.64c-.53.62 4 3.44 6.35 3.44a41.42 41.42 0 0 0 7.88-1.45.77.77 0 0 1 .26-.51c2.73-2.11 6-2.8 9.26-3.72.47-.25.94-.5 1.42-.73a52.88 52.88 0 0 0 6.89-3.67c.76-.52 1.48.24 1.43 1l1-1c-.16 6.78 2 11.08 7.26 13.45 2.68-4.84 2.38-8 .11-12.48-3.61-7.21-6.77-14.66-10.24-21.95a21.11 21.11 0 0 0-3.52-5.67c-3.68-3.82-7.64-7.35-10.82-10.37.84-2.83 1.52-5.11 2.23-7.48a11.71 11.71 0 0 0-.22-2.23 26.36 26.36 0 0 0-4.24 5 1 1 0 0 1-1.7 0c-1.36-2.51-1-5.31-.43-8a36.82 36.82 0 0 0 .65-3.76c-.05-.65-.12-1.3-.18-1.95-.05-.41-.09-.82-.14-1.23a21.87 21.87 0 0 1-1.58-2.57c-.11-.13-.23-.25-.35-.38-.39-.43-.77-.86-1.14-1.3a27.73 27.73 0 0 1-3.17 3.4 11.79 11.79 0 0 1-4.26 2.85 12.64 12.64 0 0 1-3.69 1.66 21.22 21.22 0 0 1-7.21.87c-1.92-.11-4.2-.51-5.52-2.06a1 1 0 0 1-.15-1.2c2.11-4.12 5.85-6.78 9.56-9.46.62.16 5.21-4.13 6.58-6.23 0 0 .41-11.28 1.86-17.93s4-7.93 4-7.93c6.17-7.63 17.5-11.72 19.07-12.53.47.5 22.49-3.77 27.49-6.38 8.09-4.24 15.46-2.67 24.09-2.45 5.89.14 10.65 7.46 9.92 13.3-1.46-2.05-4.69-6.48-9.81-6.87s-5.32 3.68-5.23 4.25c1.42 3.49 5.64 5.41 10 7.52-4.33.2-9.4-.36-11.78.11-4.35.87-12.29-.12-16.79 5-6.65 7.61-9.62 19.5-10 22l-4 .93 8.3 11-1.89 1.48-6.22-6.71c-1.28 4.87-2.27 8.63-3 11.61l13.5 5.46-.54 1.29-5.89-.29c-.13.49-.26 1-.38 1.47l15.37 9.17-.87 1.57-7.64-2.97c-.23.29-.46.58-.7.86l10.85 12.82-1.75 1.46-6.81-6.29c-.54 2.12-.93 3.69-1.16 4.58l7.3 8.18 5.09-1.19c1.93 2.49 3.64 4.66 6.1 7.82l-6.7-2.81c.46 2.94.82 6.46 1.62 9.87a18.39 18.39 0 0 0 2.56 5.59c1.57 2.4 3.75 4.43 5.18 6.9 1.73 3 3 6.28 4.87 10.46.59-5.42 1.05-9.62 1.52-14l-12.38-8.68c4.33.9 8.11 2.39 11 4.92 8.92 7.88 17.59 16.06 26.1 24.39 1.23 1.19 1 3.85 1.48 5.83l-1 .28-13.64-15.38c-.72.45-1.43.91-2.14 1.37l7.59 12.06-1.05.64-9.71-8.27-1.9 1.66 14.9 17.16-7.6-3.1 3.82 11.41q-7.12-6.08-14.23-12.17l-1.22.93 5 6.59v10.4l-8.17 6.69 1.05 1.84 12.93-2.92c-1.82 3.67-2.89 5.83-3.69 7.47 8.71-1.21 16.87-2.12 24.95-3.55 4.25-.76 9.09-1.42 12.35-3.87 9.82-7.35 19.86-5.53 27.64-4.57s12.73 1.57 22.34 0c5.46-.89 8.83-5.7 13.71-6.38 6.15-.85 19.62 3.76 19.72 4.54-3.76.59-7.6 3.27-12.3 4-4 .63-6.46.41-9.61.9 5.78 8.49 11.12 12 21.88 11.64 3.81-.12 7.54 2.13 7.56 7.41-9.53 1.05-17.59-1.7-25-7.1-5.53-4.06-11.87-2.74-19.64-3.53 2.76 3.66 9.23 2.61 12.2 5.95s2.63 11.25 4.88 14.23c-.35.36-7.22-2.35-8.56-3.94-2.28-2.7-3.88-6-6.34-8.49s-5.45-4-8.66-6.33c0 0-5.47-2.78-7.86-2.18-8.86-3.66-17.5-6.38-26.67-.09-3.86 2.64-8.88 3.62-13.4 5.28-8.62 3.16-17.27 6.27-27 9.79l7.73 3.17c-8.89 7-16.62-2.9-24.68-.38l-2.64-4.09c-3.36 1.75-6.41 8.64-9.86.65l3.76-1.54c-1.65-2.09-3-3.79-4.6-5.79l-4.33 3.87-10.9-5.68-1 1.73 7.91 9.54-.94.7-16.49-13.87-1.64 4.74c1.91 2.64 3.26 4.49 4.6 6.33l-2.89 2.65 7.67 11.21c-11.29-4.59-9.49-18.41-18.39-25.15-4.91 5.69 1.23 8.51 2.77 12.38 1.76 4.41 3.38 8.88 4.95 13.05-5.06-.73-8-3.89-9.17-10.77-1.19-7-4.74-12.2-13.32-16.32 1.23 4.27 1.63 7.16 2.87 9.63 2.55 5.08 5.67 9.87 8.22 14.94.35.7-1.23 2.37-2.4 4.44-3.16-8.78-16-24.57-21.2-26.18-1.11 9.84 11.45 12.85 11 23.31l-11-13.26c-6.82 5.75 3.48 8.74 1.65 13.57-8.05-2.14-9.31-9.23-12-14.94l-7-1.82 3.12 7.84-1.41.69-8.23-10.18c-1 4.27-1.52 6.79-2.09 9.32l-2.66-4.09-6.81 2.73c1.52 1.52 3.43 1.4 4.62 2.28s2.07 3 1.67 4-3.72 2-3.77 1.88c-2.88-5.29-7-2.43-10.9-1.93l6.88-4.55-8.68-3-2.16-6.91-1.89.6-.59 9.23-1.77-.07-3.31-21.16-1.69.26v25.71l-8.71-12.82-1.83 1c1.77 5.09 3.54 10.19 5.55 16l-5.68.66c-.19-3-.35-5.43-.49-7.69l-8.35-2.61c2.46 4.71 4.22 8.1 6 11.56-5.23 5-7.52-1.09-10.85-2.9-2.75 5.25 2.22 12.5-4.87 15.85l-2.84-7.7c-1.53 5.24-2.52 8.65-3.89 13.37l-1.25-5.35-1.84.24c.25 2.6.51 5.2.8 8.19l-9.36 21.5a11.57 11.57 0 0 1-.95 2.78 22.49 22.49 0 0 0-1.23 4c-.35 1.44-.84 2.85-1.27 4.27-.19.63-.35 1.29-.56 1.94-.42 3.43-2.24 6.61-1.94 10.16a22.16 22.16 0 0 0 4.63 11.3 39.61 39.61 0 0 0 8.65 8.25c1.44.73 4.15 2.63 4.06 2.85a13.83 13.83 0 0 1 1.07.94c1.26 1.23 4.91 3.51 4.93 5.53 0 0-4.28-2.14-5.82 1.08s-.45 7.98-.45 7.98Zm144-111.57c-5.32-1.76-8.91-3.33-9.44-8.22 5-.13 7.24 2.93 9.43 8.22Zm50-39.73c7.33-2.07 8.84-.34 7.89 9.1-4.61 4-8.93 1.66-12.87-1.18-1.07-.77-1-3.1-1.82-5.86l10.61 6 .7-1.35Z"/><path d="M268.43 64.93a9.92 9.92 0 0 0 1.25-2.42L267 57.93l-.27.21a13.93 13.93 0 0 1-5 6.06c-.91.66-1.9 1.21-2.78 1.9a4.31 4.31 0 0 0-1.08 1.05c-.16.23-.2.33-.14.4.44.53 1.38.47 2.13.44a19.2 19.2 0 0 0 3.7-.54 18.07 18.07 0 0 0 3.23-1 3.59 3.59 0 0 0 1.64-1.52ZM476 134.22c4.5 1.63 8.57 2.11 12.46 3.52-.71-8-6.85-10.26-15.58-6.89-7.77-7.1-20.77 2.48-25.24 11.45 7.49 3.29 15.79-17.49 23.86-6.65-6.11 3.36-11.46 14.17-18.83 18.23 3.14.54 10.8-.37 14.83.68 3.53.91 2.13 2.79 5.69 3.57v.67c-17.44 2.05-38.65-8.88-55.53 5.41.3-4-3.25-8.39-4.9-9.95-.5 2.64-1 5.05-1.41 7.36 1 .31 1.71 4.6.88 6.51 1.3.48-.35 2-.35 2s18.73-9.29 23.09-10c7.32-1.19 19.54 2.6 21.59 2 5.91-1.85 16.79-.77 21.34 3.63.59.57 1.67.61 2.52.9l1-1.36c-3.24-2.75-4.75-9.37-8.94-12.49-2.49-1.85-7.62-.05-10-2.07 4.11-.77 12.87-13.11 13.52-16.52ZM286.43 45.18c2.42-7 4.43-13.34 6.83-19.48.58-1.48 2.49-2.44 3.79-3.64l1.27.94c-.46 1.64-.93 3.27-1.4 4.92 4 5.91 4.27 10.73-.17 14.4-2.75 2.24-5.56 7-10.32 2.86ZM307.86 91.21a71.22 71.22 0 0 0-5-14.7c-.78-1.56-4.26-1.77-6.51-2.6l-.83 1a12.69 12.69 0 0 1 2.38 3c5.73 3.61 5 10.18 5.23 17.61 2.38-2.14 4.92-3.57 4.73-4.31ZM332.51 131.87c5.69 6.4 4.8 20.39 0 22.69ZM254.8 202.14c-2.13-4.23-4.25-8.45-7-13.82 6.45 2.07 9.37 7.75 7 13.82ZM271.24 136.05a58 58 0 0 1-19.51-11c-7-6.34-11.91-16.17-12.79-17.32a.14.14 0 0 0 0-.07 17.34 17.34 0 0 1-1.19-2.21c-.44-.36-.88-.7-1.29-1.06a9.15 9.15 0 0 1-2.4-2.92c0 .14-.08.28-.12.42a64.22 64.22 0 0 0-2.21-2.16 18.48 18.48 0 0 0-5.06-3.63 34.48 34.48 0 0 0-6.45-1.94 68.76 68.76 0 0 0-14.15-1.7 1.36 1.36 0 0 0-1.41 1.16H204c-1.92.12 16.43 4.78 23.28 9.35a36 36 0 0 1 8.91 8.42c2.86 3.84 11.21 17.44 10.43 15.69 7 6.63 24.62 8.97 24.62 8.97ZM294.31 64.16l-5-7.31 3.61-5.47 1.37.52ZM246.6 197.2c-6.62-2.83-8.08-5.53-2.89-9.95.81 2.79 1.62 5.59 2.89 9.95ZM293.28 78.88a1.37 1.37 0 0 1-.45-.23l-.11-.08-.15-.1-.3-.18-.16-.08-.25-.09c-.42-.12-.86-.18-1.28-.26l-1 .67c.08.34.16.68.25 1q1.76 2.72 3.52 5.43l2.69-1.84q-1.37-2.11-2.76-4.24ZM288.68 70.68c-.64-3.86-1.09-6.55-1.6-9.68-5.37 4.44-5.2 5.7 1.6 9.68ZM306.16 104.97c.48 2.68.95 5.37 1.43 8.06l-1.78.49c-.85-2.55-1.69-5.09-2.53-7.64ZM228.35 197.18c-1.46 2.16-2.91 4.33-4.37 6.5l-2-1.18 3.72-7c.89.54 1.77 1.11 2.65 1.68ZM235.92 186.83l2.84 5-2 1.1-2.76-5.14ZM228.35 117.21s-.12 7.82 10.41 13.69 24.93 11 24.93 11-3.25 3.32-15.85 0-20.76-10.12-19.49-15.06a21 21 0 0 0 0-9.63Z"/></svg>