<svg id="Ebene_1" data-name="Ebene 1" xmlns="http://www.w3.org/2000/svg" viewBox="0 0 500 500"><defs><style>.cls-1{fill:#84be9c;}.cls-2{fill:#497a9a;}.cls-3{fill:#fff;}</style></defs><path class="cls-1" d="M468.54,342.06a237.83,237.83,0,0,0,0-184.12V31.46H342.06a237.83,237.83,0,0,0-184.12,0H31.46V157.94a237.83,237.83,0,0,0,0,184.12V468.54H157.94a237.83,237.83,0,0,0,184.12,0H468.54Z"/><path class="cls-2" d="M0,0V500H500V0ZM468.54,342.06V468.54H342.06a237.83,237.83,0,0,1-184.12,0H31.46V342.06a237.83,237.83,0,0,1,0-184.12V31.46H157.94a237.83,237.83,0,0,1,184.12,0H468.54V157.94a237.83,237.83,0,0,1,0,184.12ZM441.09,365a219.89,219.89,0,0,0,0-216.85V65.32H358.15a219.85,219.85,0,0,0-216.3,0H58.61v83.36a219.84,219.84,0,0,0,0,215.76V447.8h83.24a219.92,219.92,0,0,0,216.3,0h82.94Zm3.14-190.47a211.43,211.43,0,0,1,0,164.1c-1,2.37-2.06,4.71-3.14,7V167.47C442.17,169.79,443.23,172.14,444.23,174.51Zm-12,188.12a212,212,0,0,1-76.39,76.29H144.18a212.29,212.29,0,0,1-76.69-76.8V151a212.08,212.08,0,0,1,76.69-76.8H355.82a211.91,211.91,0,0,1,76.39,76.28Zm0-288.43v59.61A220.86,220.86,0,0,0,372.52,74.2ZM168,62.32a211.55,211.55,0,0,1,164.1,0c2.26,1,4.49,2,6.71,3H161.24C163.46,64.29,165.69,63.28,168,62.32ZM67.49,74.2h60a220.83,220.83,0,0,0-60,60.07ZM55.77,338.61a211.43,211.43,0,0,1,0-164.1q1.36-3.22,2.84-6.39V345C57.63,342.88,56.68,340.76,55.77,338.61ZM67.49,438.92V378.85a220.83,220.83,0,0,0,60,60.07Zm264.56,11.87a211.55,211.55,0,0,1-164.1,0c-2.26-1-4.49-2-6.71-3H338.77C336.54,448.83,334.31,449.84,332.05,450.79Zm40.47-11.87a221,221,0,0,0,59.69-59.61v59.61Z"/><path class="cls-3" d="M268.45,368.7q0,16.82,7,23.16t24.19,6.35v8.61q-37.73-1.62-49.61-1.63t-49.61,1.63v-8.61q17.22,0,24.19-6.35t7-23.16V240.36q0-18.84-7-27.47t-24.19-8.61v-8.6q13.11,1.22,25.42,1.23,25.83,0,42.64-5.75ZM265.58,101a25.73,25.73,0,0,1,0,36.89,26.24,26.24,0,0,1-44.69-18.45A26.09,26.09,0,0,1,265.58,101Z"/></svg>